<svg width="48" height="68" viewBox="0 0 48 68" fill="none" xmlns="http://www.w3.org/2000/svg">
<g clip-path="url(#clip0_313_2)">
<path d="M0.0186768 8.03332L23.6078 0.123047L47.8319 7.8927L43.9097 37.2662L23.6078 47.8484L3.62335 37.4068L0.0186768 8.03332Z" fill="#E23237"/>
<path d="M47.8319 7.8927L23.6078 0.123047V47.8484L43.9097 37.2838L47.8319 7.8927Z" fill="#B52E31"/>
<path d="M23.6451 5.69531L8.9463 36.4751L14.4374 36.3872L17.3883 29.4437H23.6638H23.6825H30.5743L33.8054 36.4751L39.0537 36.563L23.6451 5.69531ZM23.6825 15.5568L28.6506 25.3304H23.8879H23.6451H19.3121L23.6825 15.5568Z" fill="white"/>
</g>
<path d="M4.49414 56.5767L1.43457 65H0.184082L3.70703 55.7578H4.51318L4.49414 56.5767ZM7.05859 65L3.99268 56.5767L3.97363 55.7578H4.77979L8.31543 65H7.05859ZM6.8999 61.5786V62.5815H1.70752V61.5786H6.8999ZM10.5498 59.5981V65H9.37549V58.1318H10.4863L10.5498 59.5981ZM10.2705 61.3057L9.78174 61.2866C9.78597 60.8169 9.85579 60.3831 9.99121 59.9854C10.1266 59.5833 10.3171 59.2342 10.5625 58.938C10.8079 58.6418 11.0999 58.4132 11.4385 58.2524C11.7812 58.0874 12.16 58.0049 12.5747 58.0049C12.9132 58.0049 13.2179 58.0514 13.4888 58.1445C13.7596 58.2334 13.9902 58.3773 14.1807 58.5762C14.3753 58.7751 14.5234 59.0332 14.625 59.3506C14.7266 59.6637 14.7773 60.0467 14.7773 60.4995V65H13.5967V60.4868C13.5967 60.1271 13.5438 59.8394 13.438 59.6235C13.3322 59.4035 13.1777 59.2448 12.9746 59.1475C12.7715 59.0459 12.5218 58.9951 12.2256 58.9951C11.9336 58.9951 11.667 59.0565 11.4258 59.1792C11.1888 59.3019 10.9836 59.4712 10.8101 59.687C10.6408 59.9028 10.5075 60.1504 10.4102 60.4297C10.3171 60.7048 10.2705 60.9967 10.2705 61.3057ZM21.0107 58.1318H22.0771V64.854C22.0771 65.4591 21.9544 65.9754 21.709 66.4028C21.4635 66.8302 21.1208 67.154 20.6807 67.374C20.2448 67.5983 19.7412 67.7104 19.1699 67.7104C18.9329 67.7104 18.6536 67.6724 18.332 67.5962C18.0146 67.5243 17.7015 67.3994 17.3926 67.2217C17.0879 67.0482 16.8319 66.8133 16.6245 66.5171L17.2402 65.8188C17.528 66.1659 17.8285 66.4071 18.1416 66.5425C18.459 66.6779 18.7721 66.7456 19.0811 66.7456C19.4535 66.7456 19.7751 66.6758 20.0459 66.5361C20.3167 66.3965 20.5262 66.1891 20.6743 65.9141C20.8267 65.6432 20.9028 65.3089 20.9028 64.9111V59.6426L21.0107 58.1318ZM16.2817 61.6421V61.5088C16.2817 60.984 16.3431 60.508 16.4658 60.0806C16.5928 59.6489 16.7726 59.2786 17.0054 58.9697C17.2424 58.6608 17.528 58.4238 17.8623 58.2588C18.1966 58.0895 18.5732 58.0049 18.9922 58.0049C19.4238 58.0049 19.8005 58.0811 20.1221 58.2334C20.4479 58.3815 20.723 58.5994 20.9473 58.8872C21.1758 59.1707 21.3556 59.5135 21.4868 59.9155C21.618 60.3175 21.709 60.7725 21.7598 61.2803V61.8643C21.7132 62.3678 21.6222 62.8206 21.4868 63.2227C21.3556 63.6247 21.1758 63.9674 20.9473 64.251C20.723 64.5345 20.4479 64.7524 20.1221 64.9048C19.7962 65.0529 19.4154 65.127 18.9795 65.127C18.569 65.127 18.1966 65.0402 17.8623 64.8667C17.5322 64.6932 17.2487 64.4499 17.0117 64.1367C16.7747 63.8236 16.5928 63.4554 16.4658 63.0322C16.3431 62.6048 16.2817 62.1414 16.2817 61.6421ZM17.4561 61.5088V61.6421C17.4561 61.9849 17.4899 62.3065 17.5576 62.6069C17.6296 62.9074 17.7375 63.1719 17.8813 63.4004C18.0295 63.6289 18.2178 63.8088 18.4463 63.9399C18.6748 64.0669 18.9478 64.1304 19.2651 64.1304C19.6545 64.1304 19.9761 64.0479 20.23 63.8828C20.4839 63.7178 20.6849 63.4998 20.833 63.229C20.9854 62.9582 21.1038 62.6641 21.1885 62.3467V60.8169C21.1419 60.5841 21.07 60.3599 20.9727 60.144C20.8796 59.924 20.7568 59.7293 20.6045 59.5601C20.4564 59.3866 20.2723 59.249 20.0522 59.1475C19.8322 59.0459 19.5741 58.9951 19.2778 58.9951C18.9562 58.9951 18.679 59.0628 18.4463 59.1982C18.2178 59.3294 18.0295 59.5114 17.8813 59.7441C17.7375 59.9727 17.6296 60.2393 17.5576 60.5439C17.4899 60.8444 17.4561 61.166 17.4561 61.5088ZM28.063 63.4131V58.1318H29.2437V65H28.1201L28.063 63.4131ZM28.2852 61.9658L28.7739 61.9531C28.7739 62.4102 28.7253 62.8333 28.6279 63.2227C28.5348 63.6077 28.3825 63.9421 28.1709 64.2256C27.9593 64.5091 27.6821 64.7313 27.3394 64.8921C26.9966 65.0487 26.5798 65.127 26.0889 65.127C25.7546 65.127 25.4478 65.0783 25.1685 64.981C24.8934 64.8836 24.6564 64.7334 24.4575 64.5303C24.2586 64.3271 24.1042 64.0627 23.9941 63.7368C23.8883 63.411 23.8354 63.0195 23.8354 62.5625V58.1318H25.0098V62.5752C25.0098 62.8841 25.0436 63.1401 25.1113 63.3433C25.1833 63.5422 25.2785 63.7008 25.397 63.8193C25.5197 63.9336 25.6551 64.014 25.8032 64.0605C25.9556 64.1071 26.1121 64.1304 26.2729 64.1304C26.7723 64.1304 27.168 64.0352 27.46 63.8447C27.752 63.6501 27.9614 63.3898 28.0884 63.064C28.2196 62.7339 28.2852 62.3678 28.2852 61.9658ZM32.3096 55.25V65H31.1289V55.25H32.3096ZM38.2446 63.8257V60.29C38.2446 60.0192 38.1896 59.7843 38.0796 59.5854C37.9738 59.3823 37.813 59.2257 37.5972 59.1157C37.3813 59.0057 37.1147 58.9507 36.7974 58.9507C36.5011 58.9507 36.2409 59.0015 36.0166 59.103C35.7965 59.2046 35.623 59.3379 35.4961 59.5029C35.3734 59.668 35.312 59.8457 35.312 60.0361H34.1377C34.1377 59.7907 34.2012 59.5474 34.3281 59.3062C34.4551 59.0649 34.637 58.847 34.874 58.6523C35.1152 58.4535 35.403 58.2969 35.7373 58.1826C36.0758 58.0641 36.4525 58.0049 36.8672 58.0049C37.3665 58.0049 37.8066 58.0895 38.1875 58.2588C38.5726 58.4281 38.873 58.6841 39.0889 59.0269C39.3089 59.3654 39.4189 59.7907 39.4189 60.3027V63.502C39.4189 63.7305 39.438 63.9738 39.4761 64.2319C39.5184 64.4901 39.5798 64.7122 39.6602 64.8984V65H38.4351C38.3758 64.8646 38.3293 64.6847 38.2954 64.4604C38.2616 64.2319 38.2446 64.0203 38.2446 63.8257ZM38.4478 60.8359L38.4604 61.6611H37.2734C36.9391 61.6611 36.6408 61.6886 36.3784 61.7437C36.116 61.7944 35.896 61.8727 35.7183 61.9785C35.5405 62.0843 35.4051 62.2176 35.312 62.3784C35.2189 62.535 35.1724 62.7191 35.1724 62.9307C35.1724 63.1465 35.221 63.3433 35.3184 63.521C35.4157 63.6987 35.5617 63.8405 35.7563 63.9463C35.9552 64.0479 36.1986 64.0986 36.4863 64.0986C36.846 64.0986 37.1634 64.0225 37.4385 63.8701C37.7135 63.7178 37.9315 63.5316 38.0923 63.3115C38.2573 63.0915 38.3462 62.8778 38.3589 62.6704L38.8604 63.2354C38.8307 63.4131 38.7503 63.6099 38.6191 63.8257C38.488 64.0415 38.3123 64.2489 38.0923 64.4478C37.8765 64.6424 37.6183 64.8053 37.3179 64.9365C37.0216 65.0635 36.6873 65.127 36.3149 65.127C35.8494 65.127 35.4411 65.036 35.0898 64.854C34.7428 64.672 34.472 64.4287 34.2773 64.124C34.0869 63.8151 33.9917 63.4702 33.9917 63.0894C33.9917 62.7212 34.0636 62.3975 34.2075 62.1182C34.3514 61.8346 34.5588 61.5998 34.8296 61.4136C35.1004 61.2231 35.4263 61.0793 35.8071 60.9819C36.188 60.8846 36.6133 60.8359 37.083 60.8359H38.4478ZM42.4404 59.2109V65H41.2661V58.1318H42.4087L42.4404 59.2109ZM44.5859 58.0938L44.5796 59.1855C44.4823 59.1644 44.3892 59.1517 44.3003 59.1475C44.2157 59.139 44.1183 59.1348 44.0083 59.1348C43.7375 59.1348 43.4984 59.1771 43.291 59.2617C43.0837 59.3464 42.908 59.4648 42.7642 59.6172C42.6203 59.7695 42.506 59.9515 42.4214 60.1631C42.341 60.3704 42.2881 60.599 42.2627 60.8486L41.9326 61.0391C41.9326 60.6243 41.9728 60.235 42.0532 59.8711C42.1379 59.5072 42.2669 59.1855 42.4404 58.9062C42.6139 58.6227 42.834 58.4027 43.1006 58.2461C43.3714 58.0853 43.693 58.0049 44.0654 58.0049C44.1501 58.0049 44.2474 58.0155 44.3574 58.0366C44.4674 58.0535 44.5436 58.0726 44.5859 58.0938Z" fill="white"/>
<defs>
<clipPath id="clip0_313_2">
<rect width="48" height="48" fill="white"/>
</clipPath>
</defs>
</svg>
