<svg width="48" height="68" viewBox="0 0 48 68" fill="none" xmlns="http://www.w3.org/2000/svg">
<g clip-path="url(#clip0_313_11)">
<path d="M47.487 29.832C47.5992 28.6944 48.5494 14.8417 36.6461 8.55C31.0817 5.60634 23.5716 5.64609 19.4475 9.82481C12.1598 17.2004 18.3385 24.9313 20.6505 25.6997C20.7384 25.7254 20.7056 25.6654 20.6827 25.5724C17.0226 10.9624 42.4712 8.34722 46.969 29.7547C47.1286 30.5131 47.419 30.4958 47.487 29.832Z" fill="url(#paint0_radial_313_11)"/>
<path d="M18.1247 47.4976C19.2601 47.6056 33.1128 48.5521 39.4057 36.6518C42.3496 31.085 42.3089 23.5731 38.1329 19.4508C30.7541 12.1636 23.0236 18.3402 22.2556 20.6567C22.2373 20.7043 22.31 20.7043 22.3819 20.6889C36.9925 17.0287 39.6068 42.4788 18.2024 46.9767C17.4418 47.1341 17.4586 47.4239 18.1247 47.4976Z" fill="url(#paint1_radial_313_11)"/>
<path d="M0.462387 18.1294C0.348949 19.2666 -0.598301 33.1186 11.3056 39.4128C16.8695 42.3561 24.381 42.3153 28.504 38.1373C35.792 30.7606 29.6165 23.0304 27.2986 22.2628C27.2027 22.2285 27.2341 22.2628 27.2656 22.3887C30.9285 36.999 5.47782 39.6117 0.979605 18.207C0.819293 17.4465 0.530637 17.4666 0.462387 18.1294Z" fill="url(#paint2_radial_313_11)"/>
<path d="M29.8254 0.467561C28.6907 0.355342 14.8366 -0.590502 8.54373 11.312C5.60157 16.8762 5.64057 24.3867 9.81826 28.5086C17.195 35.7972 24.9248 29.6233 25.6938 27.3038C25.7103 27.238 25.7103 27.238 25.5671 27.2738C10.959 30.9339 8.34592 5.48197 29.7495 0.98553C30.5122 0.827092 30.4893 0.53703 29.8254 0.467561Z" fill="url(#paint3_radial_313_11)"/>
<g opacity="0.6">
<path opacity="0.38" d="M23.975 10.1094C21.9393 10.1094 20.0016 10.4975 18.2387 11.2022C12.9113 18.1354 18.4812 24.9774 20.6497 25.6999C20.7377 25.7256 20.7048 25.6656 20.6819 25.5726C18.4462 16.6427 27.0867 12.1942 35.1696 14.9757C32.471 11.9984 28.4575 10.1094 23.975 10.1094Z" fill="url(#paint4_radial_313_11)"/>
<path opacity="0.38" d="M22.2548 20.658C22.2366 20.7055 22.3091 20.7055 22.381 20.6901C31.2075 18.4776 35.6546 26.886 33.0762 34.8859C36.4981 32.3418 38.6937 28.4041 38.6937 23.9846C38.6937 22.2601 38.3603 20.6117 37.7522 19.09C30.4907 12.3752 23.0103 18.3793 22.2548 20.658Z" fill="url(#paint5_radial_313_11)"/>
<path opacity="0.38" d="M27.2986 22.263C27.2027 22.2287 27.2341 22.263 27.2656 22.3889C29.5034 31.3217 20.8615 35.7673 12.7787 32.9858C15.4777 35.962 19.4922 37.852 23.9758 37.852C26.0101 37.852 27.9467 37.4657 29.711 36.7645C35.0401 29.8293 29.4706 22.9831 27.2986 22.263Z" fill="url(#paint6_radial_313_11)"/>
<path opacity="0.38" d="M25.6938 27.3038C25.7103 27.238 25.7103 27.238 25.5671 27.2738C16.7435 29.4829 12.2967 21.0761 14.8741 13.0791C11.4511 15.6199 9.2551 19.5598 9.2551 23.9847C9.2551 25.7027 9.59025 27.3511 10.1963 28.8706C17.4578 35.5855 24.9391 29.5817 25.6938 27.3038Z" fill="url(#paint7_radial_313_11)"/>
</g>
</g>
<path d="M5.83984 55.9287L2.54492 65H1.19824L4.99219 55.0469H5.86035L5.83984 55.9287ZM8.60156 65L5.2998 55.9287L5.2793 55.0469H6.14746L9.95508 65H8.60156ZM8.43066 61.3154V62.3955H2.83887V61.3154H8.43066ZM15.4033 63.0381C15.4033 62.8558 15.3623 62.6872 15.2803 62.5322C15.2028 62.3727 15.041 62.2292 14.7949 62.1016C14.5534 61.9694 14.1888 61.8555 13.7012 61.7598C13.291 61.6732 12.9196 61.5706 12.5869 61.4521C12.2588 61.3337 11.9785 61.1901 11.7461 61.0215C11.5182 60.8529 11.3428 60.6546 11.2197 60.4268C11.0967 60.1989 11.0352 59.9323 11.0352 59.627C11.0352 59.3353 11.099 59.0596 11.2266 58.7998C11.3587 58.54 11.5433 58.3099 11.7803 58.1094C12.0218 57.9089 12.3112 57.7516 12.6484 57.6377C12.9857 57.5238 13.3617 57.4668 13.7764 57.4668C14.3688 57.4668 14.8747 57.5716 15.2939 57.7812C15.7132 57.9909 16.0345 58.2712 16.2578 58.6221C16.4811 58.9684 16.5928 59.3535 16.5928 59.7773H15.3281C15.3281 59.5723 15.2666 59.374 15.1436 59.1826C15.0251 58.9867 14.8496 58.8249 14.6172 58.6973C14.3893 58.5697 14.109 58.5059 13.7764 58.5059C13.4255 58.5059 13.1406 58.5605 12.9219 58.6699C12.7077 58.7747 12.5505 58.9092 12.4502 59.0732C12.3545 59.2373 12.3066 59.4105 12.3066 59.5928C12.3066 59.7295 12.3294 59.8525 12.375 59.9619C12.4251 60.0667 12.5117 60.1647 12.6348 60.2559C12.7578 60.3424 12.931 60.4245 13.1543 60.502C13.3776 60.5794 13.6624 60.6569 14.0088 60.7344C14.6149 60.8711 15.1139 61.0352 15.5059 61.2266C15.8978 61.418 16.1895 61.6527 16.3809 61.9307C16.5723 62.2087 16.668 62.5459 16.668 62.9424C16.668 63.266 16.5996 63.5622 16.4629 63.8311C16.3307 64.0999 16.137 64.3324 15.8818 64.5283C15.6312 64.7197 15.3304 64.8701 14.9795 64.9795C14.6331 65.0843 14.2435 65.1367 13.8105 65.1367C13.1589 65.1367 12.6074 65.0205 12.1562 64.7881C11.7051 64.5557 11.3633 64.2549 11.1309 63.8857C10.8984 63.5166 10.7822 63.127 10.7822 62.7168H12.0537C12.0719 63.0632 12.1722 63.3389 12.3545 63.5439C12.5368 63.7445 12.7601 63.888 13.0244 63.9746C13.2887 64.0566 13.5508 64.0977 13.8105 64.0977C14.1569 64.0977 14.4463 64.0521 14.6787 63.9609C14.9157 63.8698 15.0957 63.7445 15.2188 63.585C15.3418 63.4255 15.4033 63.2432 15.4033 63.0381ZM19.5938 59.0254V67.8438H18.3223V57.6035H19.4844L19.5938 59.0254ZM24.5771 61.2402V61.3838C24.5771 61.9215 24.5133 62.4206 24.3857 62.8809C24.2581 63.3366 24.0713 63.7331 23.8252 64.0703C23.5837 64.4076 23.2852 64.6696 22.9297 64.8564C22.5742 65.0433 22.1663 65.1367 21.7061 65.1367C21.2367 65.1367 20.8219 65.0592 20.4619 64.9043C20.1019 64.7493 19.7965 64.5238 19.5459 64.2275C19.2952 63.9313 19.0947 63.5758 18.9443 63.1611C18.7985 62.7464 18.6982 62.2793 18.6436 61.7598V60.9941C18.6982 60.4473 18.8008 59.9574 18.9512 59.5244C19.1016 59.0915 19.2998 58.7223 19.5459 58.417C19.7965 58.1071 20.0996 57.8724 20.4551 57.7129C20.8105 57.5488 21.2207 57.4668 21.6855 57.4668C22.1504 57.4668 22.5628 57.5579 22.9229 57.7402C23.2829 57.918 23.5859 58.1732 23.832 58.5059C24.0781 58.8385 24.2627 59.2373 24.3857 59.7021C24.5133 60.1624 24.5771 60.6751 24.5771 61.2402ZM23.3057 61.3838V61.2402C23.3057 60.8711 23.2669 60.5247 23.1895 60.2012C23.112 59.873 22.9912 59.5859 22.8271 59.3398C22.6676 59.0892 22.4626 58.8932 22.2119 58.752C21.9613 58.6061 21.6628 58.5332 21.3164 58.5332C20.9974 58.5332 20.7194 58.5879 20.4824 58.6973C20.25 58.8066 20.0518 58.9548 19.8877 59.1416C19.7236 59.3239 19.5892 59.5335 19.4844 59.7705C19.3841 60.0029 19.3089 60.2445 19.2588 60.4951V62.2656C19.3499 62.5846 19.4775 62.8854 19.6416 63.168C19.8057 63.446 20.0244 63.6715 20.2979 63.8447C20.5713 64.0133 20.9154 64.0977 21.3301 64.0977C21.6719 64.0977 21.9658 64.027 22.2119 63.8857C22.4626 63.7399 22.6676 63.5417 22.8271 63.291C22.9912 63.0404 23.112 62.7533 23.1895 62.4297C23.2669 62.1016 23.3057 61.7529 23.3057 61.3838ZM25.8555 61.3838V61.2266C25.8555 60.6934 25.9329 60.1989 26.0879 59.7432C26.2428 59.2829 26.4661 58.8841 26.7578 58.5469C27.0495 58.2051 27.4027 57.9408 27.8174 57.7539C28.2321 57.5625 28.6969 57.4668 29.2119 57.4668C29.7314 57.4668 30.1986 57.5625 30.6133 57.7539C31.0326 57.9408 31.388 58.2051 31.6797 58.5469C31.9759 58.8841 32.2015 59.2829 32.3564 59.7432C32.5114 60.1989 32.5889 60.6934 32.5889 61.2266V61.3838C32.5889 61.917 32.5114 62.4115 32.3564 62.8672C32.2015 63.3229 31.9759 63.7217 31.6797 64.0635C31.388 64.4007 31.0348 64.665 30.6201 64.8564C30.21 65.0433 29.7451 65.1367 29.2256 65.1367C28.7061 65.1367 28.2389 65.0433 27.8242 64.8564C27.4095 64.665 27.054 64.4007 26.7578 64.0635C26.4661 63.7217 26.2428 63.3229 26.0879 62.8672C25.9329 62.4115 25.8555 61.917 25.8555 61.3838ZM27.1201 61.2266V61.3838C27.1201 61.7529 27.1634 62.1016 27.25 62.4297C27.3366 62.7533 27.4665 63.0404 27.6396 63.291C27.8174 63.5417 28.0384 63.7399 28.3027 63.8857C28.5671 64.027 28.8747 64.0977 29.2256 64.0977C29.5719 64.0977 29.875 64.027 30.1348 63.8857C30.3991 63.7399 30.6178 63.5417 30.791 63.291C30.9642 63.0404 31.0941 62.7533 31.1807 62.4297C31.2718 62.1016 31.3174 61.7529 31.3174 61.3838V61.2266C31.3174 60.862 31.2718 60.5179 31.1807 60.1943C31.0941 59.8662 30.9619 59.5768 30.7842 59.3262C30.611 59.071 30.3923 58.8704 30.1279 58.7246C29.8682 58.5788 29.5628 58.5059 29.2119 58.5059C28.8656 58.5059 28.5602 58.5788 28.2959 58.7246C28.0361 58.8704 27.8174 59.071 27.6396 59.3262C27.4665 59.5768 27.3366 59.8662 27.25 60.1943C27.1634 60.5179 27.1201 60.862 27.1201 61.2266ZM38.4814 63.0381C38.4814 62.8558 38.4404 62.6872 38.3584 62.5322C38.2809 62.3727 38.1191 62.2292 37.873 62.1016C37.6315 61.9694 37.2669 61.8555 36.7793 61.7598C36.3691 61.6732 35.9977 61.5706 35.665 61.4521C35.3369 61.3337 35.0566 61.1901 34.8242 61.0215C34.5964 60.8529 34.4209 60.6546 34.2979 60.4268C34.1748 60.1989 34.1133 59.9323 34.1133 59.627C34.1133 59.3353 34.1771 59.0596 34.3047 58.7998C34.4368 58.54 34.6214 58.3099 34.8584 58.1094C35.0999 57.9089 35.3893 57.7516 35.7266 57.6377C36.0638 57.5238 36.4398 57.4668 36.8545 57.4668C37.4469 57.4668 37.9528 57.5716 38.3721 57.7812C38.7913 57.9909 39.1126 58.2712 39.3359 58.6221C39.5592 58.9684 39.6709 59.3535 39.6709 59.7773H38.4062C38.4062 59.5723 38.3447 59.374 38.2217 59.1826C38.1032 58.9867 37.9277 58.8249 37.6953 58.6973C37.4674 58.5697 37.1872 58.5059 36.8545 58.5059C36.5036 58.5059 36.2188 58.5605 36 58.6699C35.7858 58.7747 35.6286 58.9092 35.5283 59.0732C35.4326 59.2373 35.3848 59.4105 35.3848 59.5928C35.3848 59.7295 35.4076 59.8525 35.4531 59.9619C35.5033 60.0667 35.5898 60.1647 35.7129 60.2559C35.8359 60.3424 36.0091 60.4245 36.2324 60.502C36.4557 60.5794 36.7406 60.6569 37.0869 60.7344C37.693 60.8711 38.1921 61.0352 38.584 61.2266C38.9759 61.418 39.2676 61.6527 39.459 61.9307C39.6504 62.2087 39.7461 62.5459 39.7461 62.9424C39.7461 63.266 39.6777 63.5622 39.541 63.8311C39.4089 64.0999 39.2152 64.3324 38.96 64.5283C38.7093 64.7197 38.4085 64.8701 38.0576 64.9795C37.7113 65.0843 37.3216 65.1367 36.8887 65.1367C36.237 65.1367 35.6855 65.0205 35.2344 64.7881C34.7832 64.5557 34.4414 64.2549 34.209 63.8857C33.9766 63.5166 33.8604 63.127 33.8604 62.7168H35.1318C35.1501 63.0632 35.2503 63.3389 35.4326 63.5439C35.6149 63.7445 35.8382 63.888 36.1025 63.9746C36.3669 64.0566 36.6289 64.0977 36.8887 64.0977C37.235 64.0977 37.5244 64.0521 37.7568 63.9609C37.9938 63.8698 38.1738 63.7445 38.2969 63.585C38.4199 63.4255 38.4814 63.2432 38.4814 63.0381ZM44.4766 65.1367C43.9616 65.1367 43.4945 65.0501 43.0752 64.877C42.6605 64.6992 42.3027 64.4508 42.002 64.1318C41.7057 63.8128 41.4779 63.4346 41.3184 62.9971C41.1589 62.5596 41.0791 62.0811 41.0791 61.5615V61.2744C41.0791 60.6729 41.168 60.1374 41.3457 59.668C41.5234 59.194 41.765 58.793 42.0703 58.4648C42.3757 58.1367 42.722 57.8883 43.1094 57.7197C43.4967 57.5511 43.8978 57.4668 44.3125 57.4668C44.8411 57.4668 45.2969 57.5579 45.6797 57.7402C46.0671 57.9225 46.3838 58.1777 46.6299 58.5059C46.876 58.8294 47.0583 59.2122 47.1768 59.6543C47.2952 60.0918 47.3545 60.5703 47.3545 61.0898V61.6572H41.8311V60.625H46.0898V60.5293C46.0716 60.2012 46.0033 59.8822 45.8848 59.5723C45.7708 59.2624 45.5885 59.0072 45.3379 58.8066C45.0872 58.6061 44.7454 58.5059 44.3125 58.5059C44.0254 58.5059 43.7611 58.5674 43.5195 58.6904C43.278 58.8089 43.0706 58.9867 42.8975 59.2236C42.7243 59.4606 42.5898 59.75 42.4941 60.0918C42.3984 60.4336 42.3506 60.8278 42.3506 61.2744V61.5615C42.3506 61.9124 42.3984 62.2428 42.4941 62.5527C42.5944 62.8581 42.738 63.127 42.9248 63.3594C43.1162 63.5918 43.3464 63.7741 43.6152 63.9062C43.8887 64.0384 44.1986 64.1045 44.5449 64.1045C44.9915 64.1045 45.3698 64.0133 45.6797 63.8311C45.9896 63.6488 46.2607 63.4049 46.4932 63.0996L47.2588 63.708C47.0993 63.9495 46.8965 64.1797 46.6504 64.3984C46.4043 64.6172 46.1012 64.7949 45.7412 64.9316C45.3857 65.0684 44.9642 65.1367 44.4766 65.1367Z" fill="white"/>
<defs>
<radialGradient id="paint0_radial_313_11" cx="0" cy="0" r="1" gradientUnits="userSpaceOnUse" gradientTransform="translate(28.8701 27.9825) rotate(90) scale(19.2567)">
<stop offset="0.1429" stop-color="#D4EFFC"/>
<stop offset="0.8424" stop-color="#3E8FC6"/>
<stop offset="1" stop-color="#3499CD"/>
</radialGradient>
<radialGradient id="paint1_radial_313_11" cx="0" cy="0" r="1" gradientUnits="userSpaceOnUse" gradientTransform="translate(29.5452 31.7812) scale(13.9807)">
<stop offset="0.1429" stop-color="#FEE588"/>
<stop offset="0.5636" stop-color="#F79B32"/>
<stop offset="0.6867" stop-color="#F68B2C"/>
<stop offset="0.8883" stop-color="#F4762A"/>
<stop offset="1" stop-color="#F36D2A"/>
</radialGradient>
<radialGradient id="paint2_radial_313_11" cx="0" cy="0" r="1" gradientUnits="userSpaceOnUse" gradientTransform="translate(19.0807 19.9804) rotate(-90) scale(19.2582 19.2582)">
<stop stop-color="#FAB117"/>
<stop offset="0.193" stop-color="#FAB218"/>
<stop offset="0.3352" stop-color="#F7B91C"/>
<stop offset="0.461" stop-color="#F6C324"/>
<stop offset="0.5767" stop-color="#F4D230"/>
<stop offset="0.6727" stop-color="#F0E03B"/>
<stop offset="0.7439" stop-color="#E5D534"/>
<stop offset="0.8645" stop-color="#CFBE2B"/>
<stop offset="1" stop-color="#B09E32"/>
</radialGradient>
<radialGradient id="paint3_radial_313_11" cx="0" cy="0" r="1" gradientUnits="userSpaceOnUse" gradientTransform="translate(27.9763 19.0863) scale(19.2585 19.2585)">
<stop stop-color="#A1C43A"/>
<stop offset="0.4545" stop-color="#A0CC3A"/>
<stop offset="1" stop-color="#3D9544"/>
</radialGradient>
<radialGradient id="paint4_radial_313_11" cx="0" cy="0" r="1" gradientUnits="userSpaceOnUse" gradientTransform="translate(24.0755 42.3619) scale(24.4478 36.0831)">
<stop stop-color="#F8E688"/>
<stop offset="1" stop-color="white"/>
</radialGradient>
<radialGradient id="paint5_radial_313_11" cx="0" cy="0" r="1" gradientUnits="userSpaceOnUse" gradientTransform="translate(24.0772 42.3649) scale(24.4465 36.0812)">
<stop stop-color="#F8E688"/>
<stop offset="1" stop-color="white"/>
</radialGradient>
<radialGradient id="paint6_radial_313_11" cx="0" cy="0" r="1" gradientUnits="userSpaceOnUse" gradientTransform="translate(24.0777 42.3611) scale(24.4436 36.077)">
<stop stop-color="#F8E688"/>
<stop offset="1" stop-color="white"/>
</radialGradient>
<radialGradient id="paint7_radial_313_11" cx="0" cy="0" r="1" gradientUnits="userSpaceOnUse" gradientTransform="translate(24.0763 42.3618) scale(24.4473 36.0824)">
<stop stop-color="#F8E688"/>
<stop offset="1" stop-color="white"/>
</radialGradient>
<clipPath id="clip0_313_11">
<rect width="48" height="48" fill="white"/>
</clipPath>
</defs>
</svg>
