<svg width="48" height="68" viewBox="0 0 48 68" fill="none" xmlns="http://www.w3.org/2000/svg">
<g clip-path="url(#clip0_313_13)">
<path d="M48 23.9995C48 37.2555 37.2551 48 23.9994 48C10.7446 48 0 37.2555 0 23.9995C0 10.7446 10.7446 0 23.9994 0C37.2551 0 48 10.7446 48 23.9995Z" fill="#F22E46"/>
<path d="M21.9421 18.9167L27.6966 24.6694C28.5273 25.501 29.8758 25.501 30.7086 24.6694C31.5394 23.8376 31.5413 22.4902 30.7086 21.6584L24.9537 15.9035C20.8359 11.7849 14.1808 11.7187 9.97581 15.6943C9.93695 15.727 9.89808 15.7613 9.86232 15.7971C9.84404 15.8155 9.82903 15.8351 9.81075 15.8515C9.79186 15.8694 9.77297 15.8857 9.75501 15.9036C9.71878 15.9399 9.68549 15.9778 9.65375 16.0156C5.6761 20.2226 5.74454 26.8778 9.86247 30.9962L15.6174 36.7496C16.4498 37.5809 17.7966 37.5809 18.6288 36.7496C19.4619 35.9178 19.4619 34.5685 18.631 33.7386L12.8761 27.9839C10.3638 25.4727 10.347 21.3972 12.8239 18.8645C15.3563 16.3875 19.4296 16.4055 21.9421 18.9167Z" fill="white"/>
<path d="M29.3694 11.2533C28.5377 12.0853 28.5377 13.4325 29.3715 14.2643L35.1242 20.0192C37.635 22.5304 37.6512 26.6053 35.1744 29.1386C32.6413 31.6134 28.5693 31.5971 26.0577 29.0856L20.3029 23.3315C19.4707 22.4996 18.1217 22.4996 17.2905 23.3315C16.4575 24.1627 16.4575 25.5143 17.2905 26.3438L23.0434 32.0988C27.1624 36.2172 33.8168 36.2842 38.0225 32.308C38.0615 32.2736 38.0984 32.2416 38.1371 32.2052C38.1546 32.1874 38.171 32.1691 38.1882 32.1508C38.2068 32.133 38.225 32.1164 38.2425 32.0966C38.2794 32.0623 38.311 32.0245 38.3438 31.9851C42.3216 27.7799 42.2552 21.1268 38.1371 17.0061L32.3824 11.2532C31.5507 10.4201 30.2002 10.4201 29.3694 11.2533Z" fill="#F5B1B2"/>
</g>
<path d="M9.83984 55.9287L6.54492 65H5.19824L8.99219 55.0469H9.86035L9.83984 55.9287ZM12.6016 65L9.2998 55.9287L9.2793 55.0469H10.1475L13.9551 65H12.6016ZM12.4307 61.3154V62.3955H6.83887V61.3154H12.4307ZM19.54 63.291V57.6035H20.8115V65H19.6016L19.54 63.291ZM19.7793 61.7324L20.3057 61.7188C20.3057 62.2109 20.2533 62.6667 20.1484 63.0859C20.0482 63.5007 19.8841 63.8607 19.6562 64.166C19.4284 64.4714 19.1299 64.7106 18.7607 64.8838C18.3916 65.0524 17.9427 65.1367 17.4141 65.1367C17.054 65.1367 16.7236 65.0843 16.4229 64.9795C16.1266 64.8747 15.8714 64.7129 15.6572 64.4941C15.443 64.2754 15.2767 63.9906 15.1582 63.6396C15.0443 63.2887 14.9873 62.8672 14.9873 62.375V57.6035H16.252V62.3887C16.252 62.7214 16.2884 62.9971 16.3613 63.2158C16.4388 63.43 16.5413 63.6009 16.6689 63.7285C16.8011 63.8516 16.9469 63.9382 17.1064 63.9883C17.2705 64.0384 17.4391 64.0635 17.6123 64.0635C18.1501 64.0635 18.5762 63.9609 18.8906 63.7559C19.2051 63.5462 19.4307 63.266 19.5674 62.915C19.7087 62.5596 19.7793 62.1654 19.7793 61.7324ZM25.8359 57.6035V58.5742H21.8369V57.6035H25.8359ZM23.1904 55.8057H24.4551V63.168C24.4551 63.4186 24.4938 63.6077 24.5713 63.7354C24.6488 63.863 24.749 63.9473 24.8721 63.9883C24.9951 64.0293 25.1273 64.0498 25.2686 64.0498C25.3734 64.0498 25.4827 64.0407 25.5967 64.0225C25.7152 63.9997 25.804 63.9814 25.8633 63.9678L25.8701 65C25.7699 65.0319 25.6377 65.0615 25.4736 65.0889C25.3141 65.1208 25.1204 65.1367 24.8926 65.1367C24.5827 65.1367 24.2979 65.0752 24.0381 64.9521C23.7783 64.8291 23.571 64.624 23.416 64.3369C23.2656 64.0452 23.1904 63.6533 23.1904 63.1611V55.8057ZM28.584 54.5V65H27.3193V54.5H28.584ZM28.2832 61.0215L27.7568 61.001C27.7614 60.4951 27.8366 60.028 27.9824 59.5996C28.1283 59.1667 28.3333 58.7907 28.5977 58.4717C28.862 58.1527 29.1764 57.9066 29.541 57.7334C29.9102 57.5557 30.318 57.4668 30.7646 57.4668C31.1292 57.4668 31.4574 57.5169 31.749 57.6172C32.0407 57.7129 32.2891 57.8678 32.4941 58.082C32.7038 58.2962 32.8633 58.5742 32.9727 58.916C33.082 59.2533 33.1367 59.6657 33.1367 60.1533V65H31.8652V60.1396C31.8652 59.7523 31.8083 59.4424 31.6943 59.21C31.5804 58.973 31.4141 58.8021 31.1953 58.6973C30.9766 58.5879 30.7077 58.5332 30.3887 58.5332C30.0742 58.5332 29.7871 58.5993 29.5273 58.7314C29.2721 58.8636 29.0511 59.0459 28.8643 59.2783C28.682 59.5107 28.5384 59.7773 28.4336 60.0781C28.3333 60.3743 28.2832 60.6888 28.2832 61.0215ZM37.1084 64.2344L39.166 57.6035H40.5195L37.5527 66.1416C37.4844 66.3239 37.3932 66.5199 37.2793 66.7295C37.1699 66.9437 37.0286 67.1465 36.8555 67.3379C36.6823 67.5293 36.4727 67.6842 36.2266 67.8027C35.985 67.9258 35.6956 67.9873 35.3584 67.9873C35.2581 67.9873 35.1305 67.9736 34.9756 67.9463C34.8206 67.9189 34.7113 67.8962 34.6475 67.8779L34.6406 66.8525C34.6771 66.8571 34.734 66.8617 34.8115 66.8662C34.8936 66.8753 34.9505 66.8799 34.9824 66.8799C35.2695 66.8799 35.5133 66.8411 35.7139 66.7637C35.9144 66.6908 36.083 66.5654 36.2197 66.3877C36.361 66.2145 36.4818 65.9753 36.582 65.6699L37.1084 64.2344ZM35.5977 57.6035L37.5186 63.3457L37.8467 64.6787L36.9375 65.1436L34.2168 57.6035H35.5977Z" fill="white"/>
<defs>
<clipPath id="clip0_313_13">
<rect width="48" height="48" fill="white"/>
</clipPath>
</defs>
</svg>
