<svg width="48" height="68" viewBox="0 0 48 68" fill="none" xmlns="http://www.w3.org/2000/svg">
<g clip-path="url(#clip0_313_18)">
<path d="M16.0019 0.000577054H30.2055L15.4607 46.2151C15.15 47.1888 14.2868 47.8447 13.3153 47.8447H2.26136C1.53306 47.8447 0.849306 47.4737 0.424498 46.8479C-0.000310421 46.2221 -0.114159 45.4182 0.118652 44.6882L13.8559 1.63018C14.1665 0.656009 15.03 0 16.0019 0V0.000577054Z" fill="url(#paint0_linear_313_18)"/>
<path d="M36.6418 30.998H14.1183C13.6898 30.9975 13.3046 31.2745 13.1474 31.6962C12.9902 32.1179 13.0929 32.5985 13.4064 32.9075L27.8795 47.1977C28.3009 47.6135 28.8557 47.8446 29.432 47.8446H42.1857L36.6418 30.998Z" fill="#0078D4"/>
<path d="M16.0018 0.000505787C15.0184 -0.00346886 14.1468 0.66972 13.8509 1.66186L0.135541 44.6489C-0.113016 45.3818 -0.0083382 46.1969 0.41605 46.833C0.840438 47.4692 1.53128 47.8467 2.26734 47.8446H13.6066C14.4664 47.6821 15.177 47.0428 15.4667 46.1712L18.2018 37.644L27.9717 47.2837C28.3811 47.642 28.8947 47.84 29.426 47.8446H42.1322L36.5594 30.9981L20.314 31.0022L30.2567 0.000505787H16.0018Z" fill="url(#paint1_linear_313_18)"/>
<path d="M34.1434 1.62778C33.8332 0.655181 32.971 0.000488281 32.0007 0.000488281H16.171C17.1412 0.000488281 18.0034 0.655292 18.3137 1.62778L32.0514 44.6875C32.2844 45.4177 32.1707 46.2218 31.7459 46.8479C31.3211 47.4739 30.6372 47.8452 29.9087 47.8452H45.739C46.4674 47.8452 47.1511 47.4736 47.5758 46.8476C48.0005 46.2216 48.1141 45.4176 47.8812 44.6875L34.1434 1.62778Z" fill="url(#paint2_linear_313_18)"/>
</g>
<path d="M9.83984 55.9287L6.54492 65H5.19824L8.99219 55.0469H9.86035L9.83984 55.9287ZM12.6016 65L9.2998 55.9287L9.2793 55.0469H10.1475L13.9551 65H12.6016ZM12.4307 61.3154V62.3955H6.83887V61.3154H12.4307ZM20.6885 63.9609V65H15.3086V63.9609H20.6885ZM20.4902 58.499L15.5957 65H14.8232V64.0703L19.6836 57.6035H20.4902V58.499ZM19.9297 57.6035V58.6494H14.8779V57.6035H19.9297ZM26.6494 63.291V57.6035H27.9209V65H26.7109L26.6494 63.291ZM26.8887 61.7324L27.415 61.7188C27.415 62.2109 27.3626 62.6667 27.2578 63.0859C27.1576 63.5007 26.9935 63.8607 26.7656 64.166C26.5378 64.4714 26.2393 64.7106 25.8701 64.8838C25.501 65.0524 25.0521 65.1367 24.5234 65.1367C24.1634 65.1367 23.833 65.0843 23.5322 64.9795C23.236 64.8747 22.9808 64.7129 22.7666 64.4941C22.5524 64.2754 22.3861 63.9906 22.2676 63.6396C22.1536 63.2887 22.0967 62.8672 22.0967 62.375V57.6035H23.3613V62.3887C23.3613 62.7214 23.3978 62.9971 23.4707 63.2158C23.5482 63.43 23.6507 63.6009 23.7783 63.7285C23.9105 63.8516 24.0563 63.9382 24.2158 63.9883C24.3799 64.0384 24.5485 64.0635 24.7217 64.0635C25.2594 64.0635 25.6855 63.9609 26 63.7559C26.3145 63.5462 26.54 63.266 26.6768 62.915C26.818 62.5596 26.8887 62.1654 26.8887 61.7324ZM31.1133 58.7656V65H29.8486V57.6035H31.0791L31.1133 58.7656ZM33.4238 57.5625L33.417 58.7383C33.3122 58.7155 33.2119 58.7018 33.1162 58.6973C33.0251 58.6882 32.9202 58.6836 32.8018 58.6836C32.5101 58.6836 32.2526 58.7292 32.0293 58.8203C31.806 58.9115 31.6169 59.0391 31.4619 59.2031C31.307 59.3672 31.1839 59.5632 31.0928 59.791C31.0062 60.0143 30.9492 60.2604 30.9219 60.5293L30.5664 60.7344C30.5664 60.2878 30.6097 59.8685 30.6963 59.4766C30.7874 59.0846 30.9264 58.7383 31.1133 58.4375C31.3001 58.1322 31.5371 57.8952 31.8242 57.7266C32.1159 57.5534 32.4622 57.4668 32.8633 57.4668C32.9544 57.4668 33.0592 57.4782 33.1777 57.501C33.2962 57.5192 33.3783 57.5397 33.4238 57.5625ZM37.5254 65.1367C37.0104 65.1367 36.5433 65.0501 36.124 64.877C35.7093 64.6992 35.3516 64.4508 35.0508 64.1318C34.7546 63.8128 34.5267 63.4346 34.3672 62.9971C34.2077 62.5596 34.1279 62.0811 34.1279 61.5615V61.2744C34.1279 60.6729 34.2168 60.1374 34.3945 59.668C34.5723 59.194 34.8138 58.793 35.1191 58.4648C35.4245 58.1367 35.7708 57.8883 36.1582 57.7197C36.5456 57.5511 36.9466 57.4668 37.3613 57.4668C37.89 57.4668 38.3457 57.5579 38.7285 57.7402C39.1159 57.9225 39.4326 58.1777 39.6787 58.5059C39.9248 58.8294 40.1071 59.2122 40.2256 59.6543C40.3441 60.0918 40.4033 60.5703 40.4033 61.0898V61.6572H34.8799V60.625H39.1387V60.5293C39.1204 60.2012 39.0521 59.8822 38.9336 59.5723C38.8197 59.2624 38.6374 59.0072 38.3867 58.8066C38.1361 58.6061 37.7943 58.5059 37.3613 58.5059C37.0742 58.5059 36.8099 58.5674 36.5684 58.6904C36.3268 58.8089 36.1195 58.9867 35.9463 59.2236C35.7731 59.4606 35.6387 59.75 35.543 60.0918C35.4473 60.4336 35.3994 60.8278 35.3994 61.2744V61.5615C35.3994 61.9124 35.4473 62.2428 35.543 62.5527C35.6432 62.8581 35.7868 63.127 35.9736 63.3594C36.165 63.5918 36.3952 63.7741 36.6641 63.9062C36.9375 64.0384 37.2474 64.1045 37.5938 64.1045C38.0404 64.1045 38.4186 64.0133 38.7285 63.8311C39.0384 63.6488 39.3096 63.4049 39.542 63.0996L40.3076 63.708C40.1481 63.9495 39.9453 64.1797 39.6992 64.3984C39.4531 64.6172 39.1501 64.7949 38.79 64.9316C38.4346 65.0684 38.013 65.1367 37.5254 65.1367Z" fill="white"/>
<defs>
<linearGradient id="paint0_linear_313_18" x1="1781.27" y1="354.599" x2="243.413" y2="4649.36" gradientUnits="userSpaceOnUse">
<stop stop-color="#114A8B"/>
<stop offset="1" stop-color="#0669BC"/>
</linearGradient>
<linearGradient id="paint1_linear_313_18" x1="2515.92" y1="2502.86" x2="2211.91" y2="2600.03" gradientUnits="userSpaceOnUse">
<stop stop-opacity="0.3"/>
<stop offset="0.071" stop-opacity="0.2"/>
<stop offset="0.321" stop-opacity="0.1"/>
<stop offset="0.623" stop-opacity="0.05"/>
<stop offset="1" stop-opacity="0"/>
</linearGradient>
<linearGradient id="paint2_linear_313_18" x1="1202.72" y1="220.089" x2="2877.13" y2="4437.05" gradientUnits="userSpaceOnUse">
<stop stop-color="#3CCBF4"/>
<stop offset="1" stop-color="#2892DF"/>
</linearGradient>
<clipPath id="clip0_313_18">
<rect width="48" height="48" fill="white"/>
</clipPath>
</defs>
</svg>
