<svg width="48" height="68" viewBox="0 0 48 68" fill="none" xmlns="http://www.w3.org/2000/svg">
<g clip-path="url(#clip0_313_8)">
<path d="M24 48C37.2548 48 48 37.2548 48 24C48 10.7452 37.2548 0 24 0C10.7452 0 0 10.7452 0 24C0 37.2548 10.7452 48 24 48Z" fill="#05930C"/>
<path d="M7.29424 6.76855L41.2005 40.7373C36.8405 45.2173 30.7452 47.9999 24 47.9999C10.7452 47.9999 0 37.2547 0 23.9999C0 17.2388 2.79574 11.1307 7.29424 6.76855Z" fill="white" fill-opacity="0.1"/>
<path d="M22.8225 32.6623C21.1898 33.4567 19.387 33.8378 17.5725 33.7723C15.1466 33.8786 12.7928 32.9327 11.115 31.1773C9.44788 29.3085 8.57837 26.8615 8.69249 24.3598C8.57515 21.6488 9.55989 19.0056 11.4225 17.0323C13.2433 15.1695 15.7642 14.1595 18.3675 14.2498C19.8882 14.1917 21.4046 14.447 22.8225 14.9998V17.3623C21.4473 16.5979 19.8957 16.2074 18.3225 16.2298C16.3408 16.1641 14.4271 16.9569 13.0725 18.4048C11.6681 20.0057 10.9419 22.0903 11.0475 24.2173C10.9436 26.2274 11.6208 28.1999 12.9375 29.7223C14.215 31.0958 16.0282 31.8435 17.9025 31.7698C19.6308 31.8127 21.3369 31.3738 22.83 30.5023L22.8225 32.6623ZM39.57 19.8448L39.27 21.2398H35.82L34.995 25.1998H38.7L38.3475 26.5948H34.7175L33.555 31.8448H31.8975L33.03 26.5948H29.73L28.62 31.8448H27L28.11 26.5948H24.63L24.8925 25.1998H28.3875L29.19 21.2473H25.5375L25.815 19.8523H29.4675L30.5775 14.5498H32.25L31.14 19.8523H34.4625L35.595 14.5498H37.215L36.105 19.8523L39.57 19.8448ZM34.1925 21.2398H30.8625L30 25.1998H33.345L34.1925 21.2398Z" fill="white"/>
</g>
<path d="M22.1406 62.2871H23.2656C23.207 62.8262 23.0527 63.3086 22.8027 63.7344C22.5527 64.1602 22.1992 64.498 21.7422 64.748C21.2852 64.9941 20.7148 65.1172 20.0312 65.1172C19.5312 65.1172 19.0762 65.0234 18.666 64.8359C18.2598 64.6484 17.9102 64.3828 17.6172 64.0391C17.3242 63.6914 17.0977 63.2754 16.9375 62.791C16.7812 62.3027 16.7031 61.7598 16.7031 61.1621V60.3125C16.7031 59.7148 16.7812 59.1738 16.9375 58.6895C17.0977 58.2012 17.3262 57.7832 17.623 57.4355C17.9238 57.0879 18.2852 56.8203 18.707 56.6328C19.1289 56.4453 19.6035 56.3516 20.1309 56.3516C20.7754 56.3516 21.3203 56.4727 21.7656 56.7148C22.2109 56.957 22.5566 57.293 22.8027 57.7227C23.0527 58.1484 23.207 58.6426 23.2656 59.2051H22.1406C22.0859 58.8066 21.9844 58.4648 21.8359 58.1797C21.6875 57.8906 21.4766 57.668 21.2031 57.5117C20.9297 57.3555 20.5723 57.2773 20.1309 57.2773C19.752 57.2773 19.418 57.3496 19.1289 57.4941C18.8438 57.6387 18.6035 57.8438 18.4082 58.1094C18.2168 58.375 18.0723 58.6934 17.9746 59.0645C17.877 59.4355 17.8281 59.8477 17.8281 60.3008V61.1621C17.8281 61.5801 17.8711 61.9727 17.957 62.3398C18.0469 62.707 18.1816 63.0293 18.3613 63.3066C18.541 63.584 18.7695 63.8027 19.0469 63.9629C19.3242 64.1191 19.6523 64.1973 20.0312 64.1973C20.5117 64.1973 20.8945 64.1211 21.1797 63.9688C21.4648 63.8164 21.6797 63.5977 21.8242 63.3125C21.9727 63.0273 22.0781 62.6855 22.1406 62.2871ZM25.4512 65L27.1094 56.4688H27.9531L26.2891 65H25.4512ZM27.8359 65L29.5 56.4688H30.3379L28.6738 65H27.8359ZM31.0527 59.7207H24.959V58.9062H31.0527V59.7207ZM30.6133 62.5977H24.5137V61.7891H30.6133V62.5977Z" fill="white"/>
<defs>
<clipPath id="clip0_313_8">
<rect width="48" height="48" fill="white"/>
</clipPath>
</defs>
</svg>
