<svg width="48" height="68" viewBox="0 0 48 68" fill="none" xmlns="http://www.w3.org/2000/svg">
<path d="M30.9284 3.9375C28.38 3.95343 26.0779 4.63457 24.0251 5.98347L24 6L23.9024 5.93614C21.8437 4.60295 19.5358 3.9375 16.9815 3.9375C7.58824 3.9375 0 11.2303 0 20.3991C0 24.8151 1.4471 28.3593 4.95974 32.4124C7.33245 35.1501 6.72232 38.656 3.46201 41.5178L0.48499 44.1309L4.3911 43.4726C8.52589 42.7758 11.9837 41.2106 14.7519 38.7731C14.8932 38.6487 15.0984 38.6294 15.2604 38.7252L22.5128 43.0136C23.4457 43.5653 24.5942 43.608 25.5656 43.1271C40.4325 35.7674 48 28.2008 48 20.3991C48 11.2303 40.4117 3.9375 31.0185 3.9375H30.9284ZM31.0185 6.1875C39.1886 6.1875 45.75 12.4934 45.75 20.3991C45.75 27.0856 38.74 34.0946 24.5673 41.1107C24.278 41.2539 23.9359 41.2412 23.658 41.0769L16.4056 36.7884C15.417 36.2038 14.1676 36.3135 13.2963 37.0573L13.1916 37.1487C11.5472 38.579 9.62034 39.6682 7.4002 40.416L7.32122 40.4422L7.33696 40.4172C9.23949 37.3082 9.13682 33.7966 6.66004 30.9388C3.48735 27.278 2.25 24.2475 2.25 20.3991C2.25 12.4933 8.81133 6.1875 16.9815 6.1875C19.1566 6.1875 21.0779 6.75596 22.7992 7.90347L24 8.704L25.2008 7.90347C26.9221 6.75596 28.8435 6.1875 31.0185 6.1875Z" fill="black"/>
<path d="M13.5938 26.0625C15.1471 26.0625 16.4062 24.8033 16.4062 23.25C16.4062 21.6967 15.1471 20.4375 13.5938 20.4375C12.0404 20.4375 10.7812 21.6967 10.7812 23.25C10.7812 24.8033 12.0404 26.0625 13.5938 26.0625Z" fill="#FF3EF4"/>
<path d="M24 26.0625C25.5533 26.0625 26.8125 24.8033 26.8125 23.25C26.8125 21.6967 25.5533 20.4375 24 20.4375C22.4467 20.4375 21.1875 21.6967 21.1875 23.25C21.1875 24.8033 22.4467 26.0625 24 26.0625Z" fill="#011CEA"/>
<path d="M34.4062 26.0625C35.9596 26.0625 37.2188 24.8033 37.2188 23.25C37.2188 21.6967 35.9596 20.4375 34.4062 20.4375C32.8529 20.4375 31.5938 21.6967 31.5938 23.25C31.5938 24.8033 32.8529 26.0625 34.4062 26.0625Z" fill="#13EBFF"/>
<path d="M10.1641 61.835H11.4766C11.4082 62.4639 11.2282 63.0267 10.9365 63.5234C10.6449 64.0202 10.2324 64.4144 9.69922 64.7061C9.16602 64.9932 8.50065 65.1367 7.70312 65.1367C7.11979 65.1367 6.58887 65.0273 6.11035 64.8086C5.63639 64.5898 5.22852 64.2799 4.88672 63.8789C4.54492 63.4733 4.2806 62.988 4.09375 62.4229C3.91146 61.8532 3.82031 61.2197 3.82031 60.5225V59.5312C3.82031 58.834 3.91146 58.2028 4.09375 57.6377C4.2806 57.068 4.5472 56.5804 4.89355 56.1748C5.24447 55.7692 5.66602 55.457 6.1582 55.2383C6.65039 55.0195 7.2041 54.9102 7.81934 54.9102C8.57129 54.9102 9.20703 55.0514 9.72656 55.334C10.2461 55.6165 10.6494 56.0085 10.9365 56.5098C11.2282 57.0065 11.4082 57.583 11.4766 58.2393H10.1641C10.1003 57.7744 9.98177 57.3757 9.80859 57.043C9.63542 56.7057 9.38932 56.446 9.07031 56.2637C8.7513 56.0814 8.33431 55.9902 7.81934 55.9902C7.37728 55.9902 6.98763 56.0745 6.65039 56.2432C6.31771 56.4118 6.03743 56.651 5.80957 56.9609C5.58626 57.2708 5.41764 57.6423 5.30371 58.0752C5.18978 58.5081 5.13281 58.9889 5.13281 59.5176V60.5225C5.13281 61.0101 5.18294 61.4681 5.2832 61.8965C5.38802 62.3249 5.54525 62.7008 5.75488 63.0244C5.96452 63.348 6.23112 63.6032 6.55469 63.79C6.87826 63.9723 7.26107 64.0635 7.70312 64.0635C8.26367 64.0635 8.71029 63.9746 9.04297 63.7969C9.37565 63.6191 9.6263 63.3639 9.79492 63.0312C9.9681 62.6986 10.0911 62.2998 10.1641 61.835ZM14.3477 54.5V65H13.083V54.5H14.3477ZM14.0469 61.0215L13.5205 61.001C13.5251 60.4951 13.6003 60.028 13.7461 59.5996C13.8919 59.1667 14.097 58.7907 14.3613 58.4717C14.6257 58.1527 14.9401 57.9066 15.3047 57.7334C15.6738 57.5557 16.0817 57.4668 16.5283 57.4668C16.8929 57.4668 17.221 57.5169 17.5127 57.6172C17.8044 57.7129 18.0527 57.8678 18.2578 58.082C18.4674 58.2962 18.627 58.5742 18.7363 58.916C18.8457 59.2533 18.9004 59.6657 18.9004 60.1533V65H17.6289V60.1396C17.6289 59.7523 17.5719 59.4424 17.458 59.21C17.3441 58.973 17.1777 58.8021 16.959 58.6973C16.7402 58.5879 16.4714 58.5332 16.1523 58.5332C15.8379 58.5332 15.5508 58.5993 15.291 58.7314C15.0358 58.8636 14.8148 59.0459 14.6279 59.2783C14.4456 59.5107 14.3021 59.7773 14.1973 60.0781C14.097 60.3743 14.0469 60.6888 14.0469 61.0215ZM25.1553 63.7354V59.9277C25.1553 59.6361 25.096 59.3831 24.9775 59.1689C24.8636 58.9502 24.6904 58.7816 24.458 58.6631C24.2256 58.5446 23.9385 58.4854 23.5967 58.4854C23.2777 58.4854 22.9974 58.54 22.7559 58.6494C22.5189 58.7588 22.332 58.9023 22.1953 59.0801C22.0632 59.2578 21.9971 59.4492 21.9971 59.6543H20.7324C20.7324 59.39 20.8008 59.1279 20.9375 58.8682C21.0742 58.6084 21.2702 58.3737 21.5254 58.1641C21.7852 57.9499 22.0951 57.7812 22.4551 57.6582C22.8197 57.5306 23.2253 57.4668 23.6719 57.4668C24.2096 57.4668 24.6836 57.5579 25.0938 57.7402C25.5085 57.9225 25.832 58.1982 26.0645 58.5674C26.3014 58.932 26.4199 59.39 26.4199 59.9414V63.3867C26.4199 63.6328 26.4404 63.8949 26.4814 64.1729C26.527 64.4508 26.5931 64.6901 26.6797 64.8906V65H25.3604C25.2965 64.8542 25.2464 64.6605 25.21 64.4189C25.1735 64.1729 25.1553 63.945 25.1553 63.7354ZM25.374 60.5156L25.3877 61.4043H24.1094C23.7493 61.4043 23.4281 61.4339 23.1455 61.4932C22.863 61.5479 22.626 61.6322 22.4346 61.7461C22.2432 61.86 22.0973 62.0036 21.9971 62.1768C21.8968 62.3454 21.8467 62.5436 21.8467 62.7715C21.8467 63.0039 21.8991 63.2158 22.0039 63.4072C22.1087 63.5986 22.266 63.7513 22.4756 63.8652C22.6898 63.9746 22.9518 64.0293 23.2617 64.0293C23.6491 64.0293 23.9909 63.9473 24.2871 63.7832C24.5833 63.6191 24.818 63.4186 24.9912 63.1816C25.1689 62.9447 25.2646 62.7145 25.2783 62.4912L25.8184 63.0996C25.7865 63.291 25.6999 63.5029 25.5586 63.7354C25.4173 63.9678 25.2282 64.1911 24.9912 64.4053C24.7588 64.6149 24.4808 64.7904 24.1572 64.9316C23.8382 65.0684 23.4782 65.1367 23.0771 65.1367C22.5758 65.1367 22.1361 65.0387 21.7578 64.8428C21.3841 64.6468 21.0924 64.3848 20.8828 64.0566C20.6777 63.724 20.5752 63.3525 20.5752 62.9424C20.5752 62.5459 20.6527 62.1973 20.8076 61.8965C20.9626 61.5911 21.1859 61.3382 21.4775 61.1377C21.7692 60.9326 22.1201 60.7777 22.5303 60.6729C22.9404 60.568 23.3984 60.5156 23.9043 60.5156H25.374ZM31.5059 57.6035V58.5742H27.5068V57.6035H31.5059ZM28.8604 55.8057H30.125V63.168C30.125 63.4186 30.1637 63.6077 30.2412 63.7354C30.3187 63.863 30.4189 63.9473 30.542 63.9883C30.665 64.0293 30.7972 64.0498 30.9385 64.0498C31.0433 64.0498 31.1527 64.0407 31.2666 64.0225C31.3851 63.9997 31.474 63.9814 31.5332 63.9678L31.54 65C31.4398 65.0319 31.3076 65.0615 31.1436 65.0889C30.984 65.1208 30.7904 65.1367 30.5625 65.1367C30.2526 65.1367 29.9678 65.0752 29.708 64.9521C29.4482 64.8291 29.2409 64.624 29.0859 64.3369C28.9355 64.0452 28.8604 63.6533 28.8604 63.1611V55.8057ZM34.2539 58.7656V65H32.9893V57.6035H34.2197L34.2539 58.7656ZM36.5645 57.5625L36.5576 58.7383C36.4528 58.7155 36.3525 58.7018 36.2568 58.6973C36.1657 58.6882 36.0609 58.6836 35.9424 58.6836C35.6507 58.6836 35.3932 58.7292 35.1699 58.8203C34.9466 58.9115 34.7575 59.0391 34.6025 59.2031C34.4476 59.3672 34.3245 59.5632 34.2334 59.791C34.1468 60.0143 34.0898 60.2604 34.0625 60.5293L33.707 60.7344C33.707 60.2878 33.7503 59.8685 33.8369 59.4766C33.9281 59.0846 34.0671 58.7383 34.2539 58.4375C34.4408 58.1322 34.6777 57.8952 34.9648 57.7266C35.2565 57.5534 35.6029 57.4668 36.0039 57.4668C36.0951 57.4668 36.1999 57.4782 36.3184 57.501C36.4368 57.5192 36.5189 57.5397 36.5645 57.5625ZM41.8213 63.7354V59.9277C41.8213 59.6361 41.762 59.3831 41.6436 59.1689C41.5296 58.9502 41.3564 58.7816 41.124 58.6631C40.8916 58.5446 40.6045 58.4854 40.2627 58.4854C39.9437 58.4854 39.6634 58.54 39.4219 58.6494C39.1849 58.7588 38.998 58.9023 38.8613 59.0801C38.7292 59.2578 38.6631 59.4492 38.6631 59.6543H37.3984C37.3984 59.39 37.4668 59.1279 37.6035 58.8682C37.7402 58.6084 37.9362 58.3737 38.1914 58.1641C38.4512 57.9499 38.7611 57.7812 39.1211 57.6582C39.4857 57.5306 39.8913 57.4668 40.3379 57.4668C40.8757 57.4668 41.3496 57.5579 41.7598 57.7402C42.1745 57.9225 42.498 58.1982 42.7305 58.5674C42.9674 58.932 43.0859 59.39 43.0859 59.9414V63.3867C43.0859 63.6328 43.1064 63.8949 43.1475 64.1729C43.193 64.4508 43.2591 64.6901 43.3457 64.8906V65H42.0264C41.9626 64.8542 41.9124 64.6605 41.876 64.4189C41.8395 64.1729 41.8213 63.945 41.8213 63.7354ZM42.04 60.5156L42.0537 61.4043H40.7754C40.4154 61.4043 40.0941 61.4339 39.8115 61.4932C39.529 61.5479 39.292 61.6322 39.1006 61.7461C38.9092 61.86 38.7633 62.0036 38.6631 62.1768C38.5628 62.3454 38.5127 62.5436 38.5127 62.7715C38.5127 63.0039 38.5651 63.2158 38.6699 63.4072C38.7747 63.5986 38.932 63.7513 39.1416 63.8652C39.3558 63.9746 39.6178 64.0293 39.9277 64.0293C40.3151 64.0293 40.6569 63.9473 40.9531 63.7832C41.2493 63.6191 41.484 63.4186 41.6572 63.1816C41.835 62.9447 41.9307 62.7145 41.9443 62.4912L42.4844 63.0996C42.4525 63.291 42.3659 63.5029 42.2246 63.7354C42.0833 63.9678 41.8942 64.1911 41.6572 64.4053C41.4248 64.6149 41.1468 64.7904 40.8232 64.9316C40.5042 65.0684 40.1442 65.1367 39.7432 65.1367C39.2419 65.1367 38.8021 65.0387 38.4238 64.8428C38.0501 64.6468 37.7585 64.3848 37.5488 64.0566C37.3438 63.724 37.2412 63.3525 37.2412 62.9424C37.2412 62.5459 37.3187 62.1973 37.4736 61.8965C37.6286 61.5911 37.8519 61.3382 38.1436 61.1377C38.4352 60.9326 38.7861 60.7777 39.1963 60.6729C39.6064 60.568 40.0645 60.5156 40.5703 60.5156H42.04Z" fill="white"/>
</svg>
