<svg width="50" height="68" viewBox="0 0 50 68" fill="none" xmlns="http://www.w3.org/2000/svg">
<g clip-path="url(#clip0_313_6)">
<path d="M27.5596 41.9895L26.7468 43.9631C26.5853 44.3537 26.216 44.6183 25.8005 44.6363C25.5262 44.6466 25.2493 44.6543 24.9698 44.6543C15.4027 44.6492 6.93819 37.8831 4.84066 28.5601L1.58408 29.2976C2.76106 34.527 5.71506 39.2733 9.90243 42.6654C14.1385 46.0959 19.4747 47.9898 24.9339 48.0001C24.9416 48.0001 24.9826 48.0001 24.9826 48.0001C25.3031 48.0001 25.6211 47.9924 25.939 47.9796C27.6519 47.9076 29.1828 46.8309 29.8367 45.2351L30.8983 42.6551L27.5596 41.9895Z" fill="url(#paint0_linear_313_6)"/>
<path d="M1.85134 30.3589C1.28721 28.298 1 26.1574 1 24.0014C1 14.1593 7.16183 5.16012 16.3341 1.61133L17.5367 4.73355C9.64142 7.78896 4.33862 15.5315 4.33862 24.0014C4.33862 25.8593 4.58478 27.6992 5.06942 29.4723L1.85134 30.3589Z" fill="url(#paint1_linear_313_6)"/>
<path d="M43.3174 14.4933C39.748 7.61925 32.722 3.34836 24.9858 3.34836C22.2447 3.34836 19.5805 3.87772 17.0726 4.91846L15.7931 1.82707C18.7086 0.616732 21.8011 0 24.9858 0C33.9734 0 42.1327 4.95958 46.2791 12.9463L43.3174 14.4933Z" fill="url(#paint2_linear_313_6)"/>
<path d="M17.8239 19.0495C19.7599 19.0495 21.3369 20.0851 22.1472 21.8916L22.2113 22.033L25.4627 20.9254L25.3934 20.7584C24.1344 17.6824 21.2343 15.7705 17.8239 15.7705C15.4264 15.7705 13.4775 16.5415 11.8672 18.1244C10.2671 19.6971 9.45686 21.6758 9.45686 24.0065C9.45686 26.3167 10.2671 28.2851 11.8672 29.8578C13.4775 31.4408 15.4264 32.2117 17.8239 32.2117C21.2343 32.2117 24.1344 30.2998 25.3934 27.2264L25.4627 27.0594L22.2062 25.9492L22.1446 26.0957C21.419 27.8714 19.8035 28.9327 17.8239 28.9327C16.4751 28.9327 15.3366 28.4599 14.434 27.5296C13.5212 26.5865 13.0596 25.4019 13.0596 24.0091C13.0596 22.606 13.5109 21.4445 14.434 20.4577C15.334 19.5224 16.4751 19.0495 17.8239 19.0495Z" fill="#09293F"/>
<path d="M38.1889 16.0737L33.5554 27.8353L28.891 16.0737H25.0754L31.6168 32.1268L26.9627 43.449L30.2988 44.1146L41.7942 16.0737H38.1889Z" fill="#09293F"/>
<path d="M46.2791 12.9463C47.9671 16.2348 49 20.0972 49 24.0508C49 33.2758 43.8117 41.2851 36.2025 45.3026L34.5585 42.3874C41.1569 38.9464 45.6637 32.0265 45.6637 24.0508C45.6637 20.5897 44.8174 17.3587 43.3174 14.4933L46.2791 12.9463Z" fill="url(#paint3_linear_313_6)"/>
</g>
<path d="M6.65234 62.061H7.87109C7.80762 62.645 7.64046 63.1676 7.36963 63.6289C7.0988 64.0902 6.71582 64.4562 6.2207 64.7271C5.72559 64.9937 5.10775 65.127 4.36719 65.127C3.82552 65.127 3.33252 65.0254 2.88818 64.8223C2.44808 64.6191 2.06934 64.3314 1.75195 63.959C1.43457 63.5824 1.18913 63.1317 1.01562 62.6069C0.846354 62.078 0.761719 61.4897 0.761719 60.8423V59.9219C0.761719 59.2744 0.846354 58.6883 1.01562 58.1636C1.18913 57.6346 1.43669 57.1818 1.7583 56.8052C2.08415 56.4285 2.47559 56.1387 2.93262 55.9355C3.38965 55.7324 3.90381 55.6309 4.4751 55.6309C5.17334 55.6309 5.76367 55.762 6.24609 56.0244C6.72852 56.2868 7.10303 56.6507 7.36963 57.1162C7.64046 57.5775 7.80762 58.1128 7.87109 58.7222H6.65234C6.5931 58.2905 6.48307 57.9202 6.32227 57.6113C6.16146 57.2982 5.93294 57.057 5.63672 56.8877C5.34049 56.7184 4.95329 56.6338 4.4751 56.6338C4.06462 56.6338 3.7028 56.7121 3.38965 56.8687C3.08073 57.0252 2.82048 57.2474 2.60889 57.5352C2.40153 57.8229 2.24495 58.1678 2.13916 58.5698C2.03337 58.9718 1.98047 59.4183 1.98047 59.9092V60.8423C1.98047 61.2951 2.02702 61.7204 2.12012 62.1182C2.21745 62.516 2.36344 62.8651 2.55811 63.1655C2.75277 63.466 3.00033 63.703 3.30078 63.8765C3.60124 64.0457 3.95671 64.1304 4.36719 64.1304C4.8877 64.1304 5.30241 64.0479 5.61133 63.8828C5.92025 63.7178 6.15299 63.4808 6.30957 63.1719C6.47038 62.863 6.58464 62.4927 6.65234 62.061ZM11.2925 64.2891L13.2031 58.1318H14.46L11.7051 66.0601C11.6416 66.2293 11.557 66.4113 11.4512 66.606C11.3496 66.8049 11.2184 66.9932 11.0576 67.1709C10.8968 67.3486 10.7021 67.4925 10.4736 67.6025C10.2493 67.7168 9.98063 67.7739 9.66748 67.7739C9.57438 67.7739 9.45589 67.7612 9.31201 67.7358C9.16813 67.7104 9.06657 67.6893 9.00732 67.6724L9.00098 66.7202C9.03483 66.7244 9.08773 66.7287 9.15967 66.7329C9.23584 66.7414 9.28874 66.7456 9.31836 66.7456C9.58496 66.7456 9.81136 66.7096 9.99756 66.6377C10.1838 66.57 10.3403 66.4536 10.4673 66.2886C10.5985 66.1278 10.7106 65.9056 10.8037 65.6221L11.2925 64.2891ZM9.88965 58.1318L11.6733 63.4639L11.978 64.7017L11.1338 65.1333L8.60742 58.1318H9.88965ZM16.6943 59.4521V67.6406H15.5137V58.1318H16.5928L16.6943 59.4521ZM21.3218 61.5088V61.6421C21.3218 62.1414 21.2625 62.6048 21.144 63.0322C21.0256 63.4554 20.8521 63.8236 20.6235 64.1367C20.3993 64.4499 20.1221 64.6932 19.792 64.8667C19.4619 65.0402 19.0832 65.127 18.6558 65.127C18.2199 65.127 17.8348 65.055 17.5005 64.9111C17.1662 64.7673 16.8826 64.5578 16.6499 64.2827C16.4172 64.0076 16.231 63.6776 16.0913 63.2925C15.9559 62.9074 15.8628 62.4736 15.812 61.9912V61.2803C15.8628 60.7725 15.958 60.3175 16.0977 59.9155C16.2373 59.5135 16.4214 59.1707 16.6499 58.8872C16.8826 58.5994 17.1641 58.3815 17.4941 58.2334C17.8242 58.0811 18.2051 58.0049 18.6367 58.0049C19.0684 58.0049 19.4513 58.0895 19.7856 58.2588C20.12 58.4238 20.4014 58.6608 20.6299 58.9697C20.8584 59.2786 21.0298 59.6489 21.144 60.0806C21.2625 60.508 21.3218 60.984 21.3218 61.5088ZM20.1411 61.6421V61.5088C20.1411 61.166 20.1051 60.8444 20.0332 60.5439C19.9613 60.2393 19.8491 59.9727 19.6968 59.7441C19.5487 59.5114 19.3582 59.3294 19.1255 59.1982C18.8927 59.0628 18.6156 58.9951 18.2939 58.9951C17.9977 58.9951 17.7396 59.0459 17.5195 59.1475C17.3037 59.249 17.1196 59.3866 16.9673 59.5601C16.8149 59.7293 16.6901 59.924 16.5928 60.144C16.4997 60.3599 16.4299 60.5841 16.3833 60.8169V62.4609C16.4679 62.7572 16.5864 63.0365 16.7388 63.2988C16.8911 63.557 17.0942 63.7664 17.3481 63.9272C17.6021 64.0838 17.9215 64.1621 18.3066 64.1621C18.624 64.1621 18.897 64.0965 19.1255 63.9653C19.3582 63.8299 19.5487 63.6458 19.6968 63.4131C19.8491 63.1803 19.9613 62.9137 20.0332 62.6133C20.1051 62.3086 20.1411 61.9849 20.1411 61.6421ZM23.9941 59.2109V65H22.8198V58.1318H23.9624L23.9941 59.2109ZM26.1396 58.0938L26.1333 59.1855C26.036 59.1644 25.9429 59.1517 25.854 59.1475C25.7694 59.139 25.672 59.1348 25.562 59.1348C25.2912 59.1348 25.0521 59.1771 24.8447 59.2617C24.6374 59.3464 24.4618 59.4648 24.3179 59.6172C24.174 59.7695 24.0597 59.9515 23.9751 60.1631C23.8947 60.3704 23.8418 60.599 23.8164 60.8486L23.4863 61.0391C23.4863 60.6243 23.5265 60.235 23.6069 59.8711C23.6916 59.5072 23.8206 59.1855 23.9941 58.9062C24.1676 58.6227 24.3877 58.4027 24.6543 58.2461C24.9251 58.0853 25.2467 58.0049 25.6191 58.0049C25.7038 58.0049 25.8011 58.0155 25.9111 58.0366C26.0212 58.0535 26.0973 58.0726 26.1396 58.0938ZM29.9482 65.127C29.4701 65.127 29.0363 65.0465 28.647 64.8857C28.2619 64.7207 27.9297 64.4901 27.6504 64.1938C27.3753 63.8976 27.1637 63.5464 27.0156 63.1401C26.8675 62.7339 26.7935 62.2896 26.7935 61.8071V61.5405C26.7935 60.9819 26.876 60.4847 27.041 60.0488C27.2061 59.6087 27.4303 59.2363 27.7139 58.9316C27.9974 58.627 28.319 58.3963 28.6787 58.2397C29.0384 58.0832 29.4108 58.0049 29.7959 58.0049C30.2868 58.0049 30.71 58.0895 31.0654 58.2588C31.4251 58.4281 31.7192 58.665 31.9478 58.9697C32.1763 59.2702 32.3455 59.6257 32.4556 60.0361C32.5656 60.4424 32.6206 60.8867 32.6206 61.3691V61.896H27.4917V60.9375H31.4463V60.8486C31.4294 60.5439 31.3659 60.2477 31.2559 59.96C31.1501 59.6722 30.9808 59.4352 30.748 59.249C30.5153 59.0628 30.1979 58.9697 29.7959 58.9697C29.5293 58.9697 29.2839 59.0269 29.0596 59.1411C28.8353 59.2511 28.6427 59.4162 28.4819 59.6362C28.3211 59.8563 28.1963 60.125 28.1074 60.4424C28.0186 60.7598 27.9741 61.1258 27.9741 61.5405V61.8071C27.9741 62.133 28.0186 62.4398 28.1074 62.7275C28.2005 63.0111 28.3338 63.2607 28.5073 63.4766C28.6851 63.6924 28.8988 63.8617 29.1484 63.9844C29.4023 64.1071 29.6901 64.1685 30.0117 64.1685C30.4264 64.1685 30.7777 64.0838 31.0654 63.9146C31.3532 63.7453 31.605 63.5189 31.8208 63.2354L32.5317 63.8003C32.3836 64.0246 32.1953 64.2383 31.9668 64.4414C31.7383 64.6445 31.4569 64.8096 31.1226 64.9365C30.7925 65.0635 30.401 65.127 29.9482 65.127ZM37.9907 63.1782C37.9907 63.009 37.9526 62.8524 37.8765 62.7085C37.8045 62.5604 37.6543 62.4271 37.4258 62.3086C37.2015 62.1859 36.863 62.0801 36.4102 61.9912C36.0293 61.9108 35.6844 61.8156 35.3755 61.7056C35.0708 61.5955 34.8105 61.4622 34.5947 61.3057C34.3831 61.1491 34.2202 60.965 34.106 60.7534C33.9917 60.5418 33.9346 60.2943 33.9346 60.0107C33.9346 59.7399 33.9938 59.4839 34.1123 59.2427C34.235 59.0015 34.4064 58.7878 34.6265 58.6016C34.8507 58.4154 35.1195 58.2694 35.4326 58.1636C35.7458 58.0578 36.0949 58.0049 36.48 58.0049C37.0301 58.0049 37.4998 58.1022 37.8892 58.2969C38.2785 58.4915 38.5768 58.7518 38.7842 59.0776C38.9915 59.3993 39.0952 59.7568 39.0952 60.1504H37.9209C37.9209 59.96 37.8638 59.7759 37.7495 59.5981C37.6395 59.4162 37.4766 59.266 37.2607 59.1475C37.0492 59.029 36.7889 58.9697 36.48 58.9697C36.1541 58.9697 35.8896 59.0205 35.6865 59.1221C35.4876 59.2194 35.3416 59.3442 35.2485 59.4966C35.1597 59.6489 35.1152 59.8097 35.1152 59.979C35.1152 60.106 35.1364 60.2202 35.1787 60.3218C35.2253 60.4191 35.3057 60.5101 35.4199 60.5947C35.5342 60.6751 35.695 60.7513 35.9023 60.8232C36.1097 60.8952 36.3742 60.9671 36.6958 61.0391C37.2586 61.166 37.722 61.3184 38.0859 61.4961C38.4499 61.6738 38.7207 61.8918 38.8984 62.1499C39.0762 62.408 39.165 62.7212 39.165 63.0894C39.165 63.3898 39.1016 63.6649 38.9746 63.9146C38.8519 64.1642 38.672 64.38 38.4351 64.562C38.2023 64.7397 37.923 64.8794 37.5972 64.981C37.2756 65.0783 36.9137 65.127 36.5117 65.127C35.9066 65.127 35.3945 65.019 34.9756 64.8032C34.5566 64.5874 34.2393 64.3081 34.0234 63.9653C33.8076 63.6226 33.6997 63.2607 33.6997 62.8799H34.8804C34.8973 63.2015 34.9904 63.4575 35.1597 63.6479C35.3289 63.8341 35.5363 63.9674 35.7817 64.0479C36.0272 64.124 36.2705 64.1621 36.5117 64.1621C36.8333 64.1621 37.1021 64.1198 37.3179 64.0352C37.5379 63.9505 37.7051 63.8341 37.8193 63.686C37.9336 63.5379 37.9907 63.3687 37.9907 63.1782ZM44.7065 63.1782C44.7065 63.009 44.6685 62.8524 44.5923 62.7085C44.5203 62.5604 44.3701 62.4271 44.1416 62.3086C43.9173 62.1859 43.5788 62.0801 43.126 61.9912C42.7451 61.9108 42.4002 61.8156 42.0913 61.7056C41.7866 61.5955 41.5264 61.4622 41.3105 61.3057C41.099 61.1491 40.936 60.965 40.8218 60.7534C40.7075 60.5418 40.6504 60.2943 40.6504 60.0107C40.6504 59.7399 40.7096 59.4839 40.8281 59.2427C40.9508 59.0015 41.1222 58.7878 41.3423 58.6016C41.5666 58.4154 41.8353 58.2694 42.1484 58.1636C42.4616 58.0578 42.8107 58.0049 43.1958 58.0049C43.7459 58.0049 44.2157 58.1022 44.605 58.2969C44.9943 58.4915 45.2926 58.7518 45.5 59.0776C45.7074 59.3993 45.811 59.7568 45.811 60.1504H44.6367C44.6367 59.96 44.5796 59.7759 44.4653 59.5981C44.3553 59.4162 44.1924 59.266 43.9766 59.1475C43.765 59.029 43.5047 58.9697 43.1958 58.9697C42.87 58.9697 42.6055 59.0205 42.4023 59.1221C42.2035 59.2194 42.0575 59.3442 41.9644 59.4966C41.8755 59.6489 41.8311 59.8097 41.8311 59.979C41.8311 60.106 41.8522 60.2202 41.8945 60.3218C41.9411 60.4191 42.0215 60.5101 42.1357 60.5947C42.25 60.6751 42.4108 60.7513 42.6182 60.8232C42.8255 60.8952 43.09 60.9671 43.4116 61.0391C43.9744 61.166 44.4378 61.3184 44.8018 61.4961C45.1657 61.6738 45.4365 61.8918 45.6143 62.1499C45.792 62.408 45.8809 62.7212 45.8809 63.0894C45.8809 63.3898 45.8174 63.6649 45.6904 63.9146C45.5677 64.1642 45.3879 64.38 45.1509 64.562C44.9181 64.7397 44.6388 64.8794 44.313 64.981C43.9914 65.0783 43.6296 65.127 43.2275 65.127C42.6224 65.127 42.1104 65.019 41.6914 64.8032C41.2725 64.5874 40.9551 64.3081 40.7393 63.9653C40.5234 63.6226 40.4155 63.2607 40.4155 62.8799H41.5962C41.6131 63.2015 41.7062 63.4575 41.8755 63.6479C42.0448 63.8341 42.2521 63.9674 42.4976 64.0479C42.743 64.124 42.9863 64.1621 43.2275 64.1621C43.5492 64.1621 43.8179 64.1198 44.0337 64.0352C44.2537 63.9505 44.4209 63.8341 44.5352 63.686C44.6494 63.5379 44.7065 63.3687 44.7065 63.1782Z" fill="white"/>
<defs>
<linearGradient id="paint0_linear_313_6" x1="186.847" y1="884.474" x2="2478.42" y2="1496.34" gradientUnits="userSpaceOnUse">
<stop stop-color="#315C55"/>
<stop offset="1" stop-color="#09293F"/>
</linearGradient>
<linearGradient id="paint1_linear_313_6" x1="898.902" y1="785.331" x2="685.632" y2="2861.76" gradientUnits="userSpaceOnUse">
<stop stop-color="#4FB38D"/>
<stop offset="1" stop-color="#315C55"/>
</linearGradient>
<linearGradient id="paint2_linear_313_6" x1="439.822" y1="724.665" x2="2131.14" y2="1034.7" gradientUnits="userSpaceOnUse">
<stop stop-color="#4FB38D"/>
<stop offset="1" stop-color="#97DEC0"/>
</linearGradient>
<linearGradient id="paint3_linear_313_6" x1="812.37" y1="1012.51" x2="-109.867" y2="2739.24" gradientUnits="userSpaceOnUse">
<stop stop-color="#97DEC0"/>
<stop offset="1" stop-color="#FFFFF0" stop-opacity="0"/>
</linearGradient>
<clipPath id="clip0_313_6">
<rect width="48" height="48" fill="white" transform="translate(1)"/>
</clipPath>
</defs>
</svg>
