<svg width="39" height="38" viewBox="0 0 39 38" fill="none" xmlns="http://www.w3.org/2000/svg">
<g clip-path="url(#clip0_5_1919)">
<path fill-rule="evenodd" clip-rule="evenodd" d="M19.3411 37.5093C29.699 37.5093 38.0957 29.1125 38.0957 18.7546C38.0957 8.39674 29.699 0 19.3411 0C8.98317 0 0.586426 8.39674 0.586426 18.7546C0.586426 29.1125 8.98317 37.5093 19.3411 37.5093Z" fill="white" fill-opacity="0.06"/>
<path d="M21.0492 13.9547H22.7729C22.9314 13.9547 23.0601 13.8335 23.0601 13.684V12.0598C23.0601 11.9104 22.9314 11.7891 22.7729 11.7891H21.0492C19.3071 11.7891 17.8891 13.1247 17.8891 14.7669V16.6618H15.8781C15.7195 16.6618 15.5908 16.7831 15.5908 16.9325V18.5568C15.5908 18.7062 15.7195 18.8275 15.8781 18.8275H17.8891V24.5123C17.8891 24.6618 18.0178 24.783 18.1764 24.783H19.9C20.0586 24.783 20.1873 24.6618 20.1873 24.5123V18.8275H22.1983C22.3218 18.8275 22.4316 18.7528 22.4712 18.6423L23.0458 17.0181C23.0751 16.9358 23.0601 16.8448 23.0061 16.7739C22.9515 16.7035 22.8654 16.6618 22.7729 16.6618H20.1873V14.7669C20.1873 14.3191 20.574 13.9547 21.0492 13.9547Z" fill="#D9D9D9"/>
</g>
<defs>
<clipPath id="clip0_5_1919">
<rect width="39" height="38" fill="white"/>
</clipPath>
</defs>
</svg>
