<svg width="84" height="84" viewBox="0 0 84 84" fill="none" xmlns="http://www.w3.org/2000/svg">
<rect width="84" height="84" rx="7" fill="url(#paint0_linear_280_5)"/>
<g clip-path="url(#clip0_280_5)">
<path fill-rule="evenodd" clip-rule="evenodd" d="M35.6599 47.4199H32.3178C32.0691 47.4199 31.8662 47.217 31.8662 46.9683V43.6262C31.8662 43.3774 32.0691 43.1746 32.3178 43.1746H35.6599C35.9087 43.1746 36.1115 43.3775 36.1115 43.6262V46.9683C36.1115 47.217 35.9087 47.4199 35.6599 47.4199ZM56.4673 49.647C56.1326 49.0672 55.5366 48.7231 54.8671 48.7231C54.1975 48.7231 53.6016 49.0672 53.2668 49.647L46.003 62.2283C45.6683 62.8081 45.6683 63.4963 46.003 64.0761C46.3378 64.6559 46.9337 65 47.6033 65H62.1308C62.8004 65 63.3964 64.6559 63.7311 64.0761C64.0658 63.4963 64.0659 62.8081 63.7311 62.2283L56.4673 49.647ZM54.8672 59.5492C54.4785 59.5493 54.1595 59.2416 54.1455 58.8532L53.963 53.7987C53.9557 53.5954 54.0237 53.4178 54.165 53.2714C54.3062 53.125 54.4812 53.0506 54.6846 53.0506H55.0497C55.2531 53.0506 55.4282 53.1251 55.5693 53.2714C55.7106 53.4179 55.7786 53.5955 55.7712 53.7987L55.5887 58.8532C55.5747 59.2415 55.2557 59.5492 54.8672 59.5492ZM54.8671 60.9509C55.378 60.9509 55.7921 61.365 55.7921 61.8759C55.7921 62.3868 55.378 62.8009 54.8671 62.8009C54.3562 62.8009 53.942 62.3868 53.942 61.8759C53.942 61.365 54.3562 60.9509 54.8671 60.9509ZM35.198 28.0452H48.2704C48.5011 28.0452 48.6892 27.8571 48.6892 27.6265V23.7672C48.6892 23.5365 48.501 23.3484 48.2704 23.3484H44.7196C44.3946 22.001 43.1814 21 41.7342 21C40.287 21 39.0739 22.001 38.7489 23.3484H35.198C34.9674 23.3484 34.7793 23.5365 34.7793 23.7672V27.6265C34.7793 27.8571 34.9674 28.0452 35.198 28.0452ZM48.2703 29.3855H35.198C34.2276 29.3855 33.4389 28.5969 33.4389 27.6264V25.6968H27.8243C26.8293 25.6968 26.0178 26.5083 26.0178 27.5033V60.7428C26.0178 61.7378 26.8293 62.5493 27.8243 62.5493H44.3388C44.407 62.1847 44.5376 61.828 44.7306 61.4937L51.9943 48.9124C52.5915 47.8781 53.6726 47.2539 54.867 47.2539C55.8883 47.2539 56.8266 47.7103 57.4505 48.4893V27.5033C57.4505 26.5083 56.639 25.6968 55.644 25.6968H50.0293V27.6265C50.0295 28.5969 49.2408 29.3855 48.2703 29.3855ZM31.8662 56.633V53.2909C31.8662 53.0422 32.0691 52.8393 32.3178 52.8393H35.6599C35.9087 52.8393 36.1115 53.0422 36.1115 53.2909V56.633C36.1115 56.8817 35.9087 57.0846 35.6599 57.0846H32.3178C32.0691 57.0846 31.8662 56.8817 31.8662 56.633ZM40.8084 54.2845C40.4094 54.2845 40.0858 53.961 40.0858 53.5619C40.0858 53.1629 40.4094 52.8393 40.8084 52.8393H46.4274C46.8265 52.8393 47.1501 53.1629 47.1501 53.5619C47.1501 53.961 46.8265 54.2845 46.4274 54.2845H40.8084ZM35.6599 37.7551H32.3178C32.0691 37.7551 31.8662 37.5523 31.8662 37.3035V33.9615C31.8662 33.7128 32.0691 33.5099 32.3178 33.5099H35.6599C35.9087 33.5099 36.1115 33.7128 36.1115 33.9615V37.3035C36.1115 37.5523 35.9087 37.7551 35.6599 37.7551ZM40.8084 47.4199C40.4094 47.4199 40.0858 47.0963 40.0858 46.6973C40.0858 46.2982 40.4094 45.9747 40.8084 45.9747H46.342C46.7411 45.9747 47.0645 46.2982 47.0645 46.6973C47.0645 47.0963 46.741 47.4199 46.342 47.4199H40.8084ZM40.8084 44.6197C40.4094 44.6197 40.0858 44.2962 40.0858 43.8972C40.0858 43.4981 40.4094 43.1745 40.8084 43.1745H51.6021C52.0011 43.1745 52.3247 43.4981 52.3247 43.8972C52.3247 44.2962 52.0011 44.6197 51.6021 44.6197H40.8084ZM40.8084 37.7551C40.4094 37.7551 40.0858 37.4316 40.0858 37.0326C40.0858 36.6335 40.4094 36.31 40.8084 36.31H51.6021C52.0011 36.31 52.3247 36.6336 52.3247 37.0326C52.3247 37.4316 52.0011 37.7551 51.6021 37.7551H40.8084ZM40.8084 34.9551C40.4094 34.9551 40.0858 34.6316 40.0858 34.2326C40.0858 33.8336 40.4094 33.51 40.8084 33.51H51.6021C52.0011 33.51 52.3247 33.8336 52.3247 34.2326C52.3247 34.6317 52.0011 34.9551 51.6021 34.9551H40.8084ZM40.8084 57.0846C40.4094 57.0846 40.0858 56.761 40.0858 56.362C40.0858 55.963 40.4094 55.6394 40.8084 55.6394H43.6811C44.0802 55.6394 44.4037 55.963 44.4037 56.362C44.4037 56.7611 44.0801 57.0846 43.6811 57.0846H40.8084Z" fill="white"/>
</g>
<defs>
<linearGradient id="paint0_linear_280_5" x1="42" y1="1.2517e-06" x2="84" y2="84" gradientUnits="userSpaceOnUse">
<stop stop-color="#F18632"/>
<stop offset="1" stop-color="#F9B740"/>
</linearGradient>
<clipPath id="clip0_280_5">
<rect width="44" height="44" fill="white" transform="translate(23 21)"/>
</clipPath>
</defs>
</svg>
