<svg width="84" height="84" viewBox="0 0 84 84" fill="none" xmlns="http://www.w3.org/2000/svg">
<rect width="84" height="84" rx="7" fill="url(#paint0_linear_280_6)"/>
<g clip-path="url(#clip0_280_6)">
<path d="M62.0001 30.0312V29.0315C61.9968 26.2714 59.76 24.0345 56.9999 24.0312H26.9999C24.2397 24.0345 22.0033 26.2714 22 29.0315V30.0312H62.0001Z" fill="white"/>
<path d="M22 32.0315V55.0314C22.0033 57.7915 24.2397 60.0283 26.9999 60.0312H56.9999C59.76 60.0283 61.9968 57.7915 62.0001 55.0314V32.0315H22ZM28 39.0312C28 38.7661 28.1051 38.5116 28.2926 38.3241C28.4805 38.1366 28.7346 38.0311 29.0001 38.0315H37C37.2651 38.0311 37.5197 38.1366 37.7072 38.3241C37.895 38.5116 38.0001 38.7661 38.0001 39.0312V45.0312C38.0001 45.2968 37.895 45.5509 37.7072 45.7388C37.5197 45.9263 37.2651 46.0314 37 46.0314H29.0001C28.7346 46.0314 28.4805 45.9263 28.2926 45.7388C28.1051 45.5509 28 45.2968 28 45.0312V39.0312ZM55 52.0314H29.0001C28.4479 52.0314 28 51.5835 28 51.0312C28 50.479 28.4479 50.0315 29.0001 50.0315H55C55.5522 50.0315 56.0001 50.479 56.0001 51.0312C56.0001 51.5835 55.5522 52.0314 55 52.0314ZM55 46.0314H43C42.4478 46.0314 41.9999 45.5835 41.9999 45.0312C41.9999 44.479 42.4478 44.0315 43 44.0315H55C55.5522 44.0315 56.0001 44.479 56.0001 45.0312C56.0001 45.5835 55.5522 46.0314 55 46.0314ZM55 40.0314H43C42.4478 40.0314 41.9999 39.5835 41.9999 39.0312C41.9999 38.479 42.4478 38.0315 43 38.0315H55C55.5522 38.0315 56.0001 38.479 56.0001 39.0312C56.0001 39.5835 55.5522 40.0314 55 40.0314Z" fill="white"/>
<path d="M29.9999 40.0312H35.9999V44.0314H29.9999V40.0312Z" fill="white"/>
</g>
<defs>
<linearGradient id="paint0_linear_280_6" x1="42" y1="1.2517e-06" x2="84" y2="84" gradientUnits="userSpaceOnUse">
<stop stop-color="#F18632"/>
<stop offset="1" stop-color="#F9B740"/>
</linearGradient>
<clipPath id="clip0_280_6">
<rect width="40" height="40" fill="white" transform="translate(22 22)"/>
</clipPath>
</defs>
</svg>
