<svg width="84" height="84" viewBox="0 0 84 84" fill="none" xmlns="http://www.w3.org/2000/svg">
<rect width="84" height="84" rx="7" fill="url(#paint0_linear_280_8)"/>
<path d="M61.25 33.0625C60.1906 33.0625 59.2737 33.645 58.775 34.5H48.3125V37.375H58.775C59.2737 38.23 60.1906 38.8125 61.25 38.8125C62.8356 38.8125 64.125 37.5224 64.125 35.9375C64.125 34.3526 62.8356 33.0625 61.25 33.0625Z" fill="white"/>
<path d="M55.0789 32.6414L57.5327 30.1875H58.775C59.2737 31.0425 60.1906 31.625 61.25 31.625C62.8356 31.625 64.125 30.3349 64.125 28.75C64.125 27.1651 62.8356 25.875 61.25 25.875C60.1906 25.875 59.2737 26.4575 58.775 27.3125H56.9375C56.5564 27.3125 56.1907 27.4641 55.9211 27.7336L53.4673 30.1875H48.3125V33.0625H54.0625C54.4436 33.0625 54.8093 32.9109 55.0789 32.6414Z" fill="white"/>
<path d="M61.25 40.25C60.1906 40.25 59.2737 40.8325 58.775 41.6875H57.5327L55.0788 39.2336C54.8093 38.9641 54.4436 38.8125 54.0625 38.8125H49.2388C50.2544 39.633 51.1458 40.6005 51.8749 41.6875H53.4673L55.9211 44.1414C56.1907 44.4109 56.5564 44.5625 56.9375 44.5625H58.775C59.2737 45.4175 60.1906 46 61.25 46C62.8356 46 64.125 44.7099 64.125 43.125C64.125 41.5401 62.8356 40.25 61.25 40.25Z" fill="white"/>
<path d="M53.6414 56.4836C53.1854 56.0277 52.5085 55.9615 51.9663 56.246L50.7952 55.075C51.9478 53.2837 52.625 51.1587 52.625 48.875C52.625 42.534 47.466 37.375 41.125 37.375C34.784 37.375 29.625 42.534 29.625 48.875C29.625 55.216 34.784 60.375 41.125 60.375C43.4087 60.375 45.5337 59.6978 47.325 58.5452L48.496 59.7163C48.2115 60.2585 48.2777 60.9354 48.7336 61.3914L52.4509 65.1086C53.1065 65.7642 53.9783 66.125 54.9048 66.125C55.8313 66.125 56.7031 65.7642 57.3593 65.1086C58.0142 64.4531 58.375 63.5813 58.375 62.6548C58.375 61.7269 58.0142 60.8551 57.3586 60.2009L53.6414 56.4836ZM32.5 48.875C32.5 44.1189 36.3689 40.25 41.125 40.25C45.8811 40.25 49.75 44.1189 49.75 48.875C49.75 53.6311 45.8811 57.5 41.125 57.5C36.3689 57.5 32.5 53.6311 32.5 48.875Z" fill="white"/>
<path d="M41.125 41.6875C37.1555 41.6875 33.9375 44.9055 33.9375 48.875C33.9375 52.8445 37.1555 56.0625 41.125 56.0625C45.0945 56.0625 48.3125 52.8445 48.3125 48.875C48.3125 44.9055 45.0945 41.6875 41.125 41.6875ZM41.125 54.625C39.4274 54.625 37.9154 53.8717 36.8619 52.6979C37.0953 51.3445 38.2674 50.3125 39.6875 50.3125H41.125C39.5372 50.3125 38.25 49.0253 38.25 47.4375C38.25 45.8496 39.5372 44.5625 41.125 44.5625C42.7128 44.5625 44 45.8496 44 47.4375C44 49.0253 42.7128 50.3125 41.125 50.3125H42.5625C43.9826 50.3125 45.1547 51.3445 45.3881 52.6979C44.3346 53.8717 42.8226 54.625 41.125 54.625Z" fill="white"/>
<path d="M29.625 25.875L23.875 31.625H29.625V25.875Z" fill="white"/>
<path d="M27.4688 54.625C27.0715 54.625 26.75 54.3035 26.75 53.9062C26.75 53.509 27.0715 53.1875 27.4688 53.1875H28.9423C28.6165 52.2704 28.3832 51.3109 28.2723 50.3125H27.4688C27.0715 50.3125 26.75 49.991 26.75 49.5938C26.75 49.1965 27.0715 48.875 27.4688 48.875H28.1875C28.1875 47.8858 28.3094 46.9262 28.5206 46H27.4688C27.0715 46 26.75 45.6785 26.75 45.2812C26.75 44.884 27.0715 44.5625 27.4688 44.5625H28.9423C29.305 43.5411 29.781 42.5731 30.3751 41.6875H27.4688C27.0715 41.6875 26.75 41.366 26.75 40.9688C26.75 40.5715 27.0715 40.25 27.4688 40.25H31.5093C32.5599 39.08 33.8148 38.1015 35.225 37.375H27.4688C27.0715 37.375 26.75 37.0535 26.75 36.6562C26.75 36.259 27.0715 35.9375 27.4688 35.9375H41.125C43.1919 35.9375 45.1402 36.437 46.875 37.3026V27.3125C46.875 26.5186 46.2314 25.875 45.4375 25.875H31.0625V31.625C31.0625 32.4189 30.4189 33.0625 29.625 33.0625H23.875V56.0625C23.875 56.8564 24.5186 57.5 25.3125 57.5H31.5093C30.7345 56.6371 30.0754 55.6727 29.5526 54.625H27.4688Z" fill="white"/>
<defs>
<linearGradient id="paint0_linear_280_8" x1="42" y1="1.2517e-06" x2="84" y2="84" gradientUnits="userSpaceOnUse">
<stop stop-color="#F18632"/>
<stop offset="1" stop-color="#F9B740"/>
</linearGradient>
</defs>
</svg>
