<svg width="84" height="84" viewBox="0 0 84 84" fill="none" xmlns="http://www.w3.org/2000/svg">
<rect width="84" height="84" rx="7" fill="url(#paint0_linear_280_2)"/>
<g clip-path="url(#clip0_280_2)">
<path d="M30.439 34.2756C30.613 36.3564 31.0124 39.2067 31.9162 42.1995C33.8357 48.5551 37.2266 53.0743 42 55.6424C46.7734 53.0743 50.1643 48.5551 52.0838 42.1995C52.9876 39.207 53.3869 36.3566 53.561 34.2756L42 28.4951L30.439 34.2756Z" fill="white"/>
<path d="M61.4094 30.283C61.3853 29.8195 61.1137 29.4047 60.6986 29.1971L42.5765 20.1361C42.2136 19.9546 41.7865 19.9546 41.4236 20.1361L23.3015 29.1971C22.8863 29.4047 22.6148 29.8195 22.5907 30.283C22.5769 30.5469 22.2789 36.8287 24.4188 44.122C25.685 48.4373 27.5475 52.2062 29.9544 55.3243C32.9876 59.2535 36.8861 62.144 41.5415 63.9157C41.6893 63.9718 41.8446 63.9999 42 63.9999C42.1555 63.9999 42.3108 63.9718 42.4585 63.9157C47.114 62.1441 51.0125 59.2535 54.0456 55.3243C56.4526 52.2062 58.315 48.4372 59.5812 44.122C61.7211 36.8287 61.4231 30.5469 61.4094 30.283ZM42.5713 58.2483C42.3913 58.3373 42.1956 58.3819 42 58.3819C41.8044 58.3819 41.6087 58.3373 41.4287 58.2483C35.6888 55.4103 31.658 50.2614 29.4483 42.9449C28.3432 39.2854 27.9442 35.8371 27.8041 33.5888C27.7719 33.0725 28.0515 32.587 28.5142 32.3557L41.4236 25.901C41.7866 25.7197 42.2137 25.7196 42.5766 25.901L55.4861 32.3557C55.9488 32.5869 56.2284 33.0726 56.1962 33.5889C56.056 35.8374 55.657 39.2858 54.5519 42.9449C52.3421 50.2614 48.3113 55.4102 42.5713 58.2483Z" fill="white"/>
</g>
<defs>
<linearGradient id="paint0_linear_280_2" x1="42" y1="1.2517e-06" x2="84" y2="84" gradientUnits="userSpaceOnUse">
<stop stop-color="#F18632"/>
<stop offset="1" stop-color="#F9B740"/>
</linearGradient>
<clipPath id="clip0_280_2">
<rect width="44" height="44" fill="white" transform="translate(20 20)"/>
</clipPath>
</defs>
</svg>
