<svg width="84" height="84" viewBox="0 0 84 84" fill="none" xmlns="http://www.w3.org/2000/svg">
<rect width="84" height="84" rx="7" fill="url(#paint0_linear_280_7)"/>
<path d="M39.451 40.7351H45.5489C46.2446 40.7351 46.8086 40.1711 46.8086 39.4753C46.8086 38.7796 46.2446 38.2156 45.5489 38.2156H39.451C38.7553 38.2156 38.1913 38.7796 38.1913 39.4753C38.1913 40.1711 38.7553 40.7351 39.451 40.7351Z" fill="white"/>
<path d="M49.3283 44.5144C49.3283 43.8187 48.7642 43.2546 48.0685 43.2546H36.9315C36.2358 43.2546 35.6717 43.8187 35.6717 44.5144C35.6717 45.2101 36.2358 45.7742 36.9315 45.7742H48.0684C48.7642 45.7742 49.3283 45.2101 49.3283 44.5144Z" fill="white"/>
<path d="M46.8087 49.5535C46.8087 48.8577 46.2447 48.2937 45.549 48.2937H39.4511C38.7554 48.2937 38.1913 48.8577 38.1913 49.5535C38.1913 50.2492 38.7554 50.8132 39.4511 50.8132H45.549C46.2447 50.8132 46.8087 50.2492 46.8087 49.5535Z" fill="white"/>
<path d="M41.3183 32.5412L41.3183 25.582C37.1044 25.8544 33.1549 27.4904 29.9826 30.2774L34.907 35.2018C36.7477 33.7011 38.9605 32.7829 41.3183 32.5412Z" fill="white"/>
<path d="M54.691 45.9139C54.4069 48.6866 53.1874 51.2592 51.1853 53.2614C48.883 55.5637 45.826 56.8319 42.5781 56.8319C42.5779 56.8319 42.5781 56.8319 42.5779 56.8319C39.6733 56.8319 37.0035 55.809 34.9082 54.1055L29.9827 59.031C33.4693 62.0942 37.8947 63.7682 42.578 63.7682C47.6836 63.7682 52.4836 61.78 56.0938 58.1698C59.4054 54.8582 61.3509 50.5452 61.6503 45.9138H54.691V45.9139Z" fill="white"/>
<path d="M57.8359 29.3962C54.4548 26.015 49.992 23.8295 45.2696 23.2423C44.9005 23.1959 44.5437 23.3063 44.2656 23.5521C43.9897 23.7958 43.8377 24.1328 43.8377 24.5009V32.5412C49.5483 33.1309 54.1012 37.6837 54.6909 43.3943L62.7312 43.3945C63.0993 43.3945 63.4363 43.2424 63.68 42.9666C63.9257 42.6884 64.0356 42.3319 63.9897 41.9625C63.9897 41.9625 63.9897 41.9625 63.9897 41.9624C63.4026 37.2402 61.2171 32.7773 57.8359 29.3962Z" fill="white"/>
<path d="M33.1215 52.3291C31.3585 50.1653 30.4003 47.4835 30.4003 44.6543C30.4002 41.8289 31.3598 39.1481 33.125 36.9827L27.4375 31.2952C27.1951 31.0528 26.8791 30.9221 26.5401 30.9221C26.5128 30.9221 26.4855 30.923 26.4579 30.9246C26.0931 30.9472 25.7692 31.1174 25.546 31.4039C22.572 35.221 21 39.8028 21 44.6542C21 49.5055 22.572 54.0873 25.5461 57.9044C25.7693 58.1909 26.0932 58.3611 26.458 58.3837C26.8274 58.4064 27.1756 58.2749 27.4375 58.0131L33.1215 52.3291Z" fill="white"/>
<defs>
<linearGradient id="paint0_linear_280_7" x1="42" y1="1.2517e-06" x2="84" y2="84" gradientUnits="userSpaceOnUse">
<stop stop-color="#F18632"/>
<stop offset="1" stop-color="#F9B740"/>
</linearGradient>
</defs>
</svg>
