<svg width="84" height="84" viewBox="0 0 84 84" fill="none" xmlns="http://www.w3.org/2000/svg">
<rect width="84" height="84" rx="7" fill="url(#paint0_linear_280_3)"/>
<path d="M44.6207 55.187V52.3684H22V55.1984C22 57.7613 24.071 59.8792 26.6342 59.8792H46.9005C46.7062 59.7025 46.5187 59.5475 46.3417 59.3701C45.2347 58.2597 44.6155 56.7548 44.6207 55.187Z" fill="white"/>
<path d="M38.0163 38.1001L41.2988 40.3537L44.5941 38.1001C45.4953 37.4854 46.2112 36.0982 46.2112 35.0075V30.3505L41.3071 27.925L36.403 30.3443V35.0075C36.403 36.0978 37.1147 37.4854 38.0163 38.1001ZM38.7553 33.6986C38.9979 33.4584 39.3897 33.4601 39.6299 33.7031L40.6157 34.6985L42.9884 32.3262C43.23 32.0846 43.6218 32.0846 43.8634 32.3266C44.105 32.5682 44.1046 32.96 43.863 33.2016L41.051 36.015C40.935 36.1313 40.778 36.1976 40.6137 36.1983H40.6123C40.4473 36.1973 40.2895 36.1306 40.1743 36.0126L38.7508 34.5746C38.5106 34.3313 38.5126 33.9395 38.7553 33.6986Z" fill="white"/>
<path d="M59.7212 23.1206H59.7016C57.8843 23.1206 56.3728 24.639 56.3728 26.4573V32.1335H63V26.4463C63.0082 24.6245 61.543 23.1382 59.7212 23.1206Z" fill="white"/>
<path d="M31.4961 23.1206C29.7776 23.1206 28.379 24.5006 28.379 26.1933L28.1964 51.1314H45.2392C45.5861 51.1452 45.8598 51.4313 45.8577 51.7789V55.187C45.8515 57.7637 47.9287 59.8606 50.505 59.8792H50.5206C53.0875 59.8606 55.1533 57.7647 55.1357 55.1977V26.4583C55.1357 25.1581 55.7208 24.0042 56.5999 23.1206L31.4961 23.1206ZM35.1659 29.9583C35.158 29.7257 35.2854 29.5092 35.4928 29.4029L41.032 26.6806C41.2022 26.5964 41.4017 26.5964 41.5718 26.6806L47.121 29.4105C47.3285 29.5168 47.4558 29.7329 47.4482 29.9659V35.0074C47.4482 36.5078 46.5325 38.2768 45.2924 39.1221L41.6585 41.6138C41.5566 41.6839 41.4358 41.7215 41.3123 41.7215C41.189 41.7215 41.0689 41.6842 40.9678 41.6138L37.3232 39.1221C36.0837 38.2764 35.1659 36.5074 35.1659 35.0074V29.9583ZM50.0991 48.3038H33.1336C32.7919 48.3038 32.5151 48.027 32.5151 47.6852C32.5151 47.3435 32.7919 47.0667 33.1336 47.0667H50.0991C50.4408 47.0667 50.7176 47.3435 50.7176 47.6852C50.7176 48.027 50.4408 48.3038 50.0991 48.3038ZM50.0991 45.0344H33.1336C32.7919 45.0344 32.5151 44.7576 32.5151 44.4158C32.5151 44.0741 32.7919 43.7973 33.1336 43.7973H50.0991C50.4408 43.7973 50.7176 44.0741 50.7176 44.4158C50.7176 44.7576 50.4408 45.0344 50.0991 45.0344Z" fill="white"/>
<defs>
<linearGradient id="paint0_linear_280_3" x1="42" y1="1.2517e-06" x2="84" y2="84" gradientUnits="userSpaceOnUse">
<stop stop-color="#F18632"/>
<stop offset="1" stop-color="#F9B740"/>
</linearGradient>
</defs>
</svg>
