<svg width="84" height="84" viewBox="0 0 84 84" fill="none" xmlns="http://www.w3.org/2000/svg">
<rect width="84" height="84" rx="7" fill="url(#paint0_linear_280_4)"/>
<g clip-path="url(#clip0_280_4)">
<path d="M23 30.2122V55.6832C23 56.9262 24.0077 57.9339 25.2507 57.9339H50.3032V53.4662C49.8457 52.9374 49.4767 52.3445 49.2031 51.6979C48.8537 50.8718 48.6767 49.9952 48.6767 49.0922C48.6767 48.1892 48.8538 47.3127 49.2031 46.4865C49.5403 45.6894 50.0227 44.9739 50.637 44.3595C51.2512 43.7453 51.9668 43.2629 52.764 42.9257C53.5901 42.5763 54.4667 42.3992 55.3697 42.3992C56.2727 42.3992 57.1493 42.5763 57.9754 42.9257C58.7725 43.2629 59.4881 43.7452 60.1024 44.3595C60.7167 44.9738 61.199 45.6894 61.5363 46.4865C61.8857 47.3127 62.0628 48.1892 62.0628 49.0922C62.0628 49.9952 61.8856 50.8718 61.5363 51.6979C61.2627 52.3445 60.8937 52.9374 60.4362 53.4662V57.9339H61.7494C62.9923 57.9339 64.0001 56.9262 64.0001 55.6832V38.4131H56.2491C54.7598 38.4131 53.5482 37.2015 53.5482 35.7122V27.9614H25.2507C24.0077 27.9614 23 28.9691 23 30.2122ZM27.9978 35.0249H50.4773V37.5007H27.9978V35.0249ZM27.9978 43.8815H47.0561V45.232H27.9978V43.8815ZM27.9978 48.1129H39.2375V49.4634H27.9978V48.1129Z" fill="white"/>
<path d="M54.8987 28.1727V35.7121C54.8987 36.4579 55.5033 37.0625 56.2491 37.0625H63.7894H64L54.8987 27.9609V28.1727Z" fill="white"/>
<path d="M59.0856 57.9338V54.6599C58.7366 54.8932 58.3658 55.0934 57.9753 55.2586C57.1492 55.608 56.2726 55.7851 55.3696 55.7851C54.4667 55.7851 53.5901 55.608 52.764 55.2586C52.3735 55.0934 52.0027 54.8932 51.6536 54.6599V57.9338V61.0388L55.3695 59.5587L59.0856 61.0388V57.9338H59.0856Z" fill="white"/>
<path d="M59.7609 52.1353C60.0454 51.7255 60.2743 51.2739 60.4361 50.7915C60.6151 50.2577 60.7122 49.6862 60.7122 49.092C60.7122 46.1415 58.3202 43.7495 55.3696 43.7495C52.419 43.7495 50.0271 46.1415 50.0271 49.0921C50.0271 49.6862 50.1242 50.2577 50.3032 50.7915C50.465 51.2739 50.6938 51.7254 50.9784 52.1354C51.1775 52.422 51.4037 52.6882 51.6536 52.9303C52.6152 53.8614 53.9254 54.4347 55.3696 54.4347C56.8139 54.4347 58.124 53.8614 59.0856 52.9303C59.3355 52.6882 59.5618 52.422 59.7609 52.1353Z" fill="white"/>
</g>
<defs>
<linearGradient id="paint0_linear_280_4" x1="42" y1="1.2517e-06" x2="84" y2="84" gradientUnits="userSpaceOnUse">
<stop stop-color="#F18632"/>
<stop offset="1" stop-color="#F9B740"/>
</linearGradient>
<clipPath id="clip0_280_4">
<rect width="41" height="41" fill="white" transform="translate(23 24)"/>
</clipPath>
</defs>
</svg>
