<svg width="38" height="38" viewBox="0 0 38 38" fill="none" xmlns="http://www.w3.org/2000/svg">
<path fill-rule="evenodd" clip-rule="evenodd" d="M18.9231 37.5093C29.281 37.5093 37.6777 29.1125 37.6777 18.7546C37.6777 8.39674 29.281 0 18.9231 0C8.5652 0 0.168457 8.39674 0.168457 18.7546C0.168457 29.1125 8.5652 37.5093 18.9231 37.5093Z" fill="#F96B26"/>
<path d="M25.0529 15.2875C24.9658 15.1891 24.8255 15.1644 24.7104 15.225C24.6388 15.2627 24.5043 15.3122 24.3445 15.3611C24.5461 15.0854 24.7081 14.7768 24.7797 14.4994C24.8106 14.3798 24.7654 14.2538 24.6669 14.1825C24.5684 14.1118 24.4373 14.1118 24.3388 14.1825C24.1836 14.2938 23.4346 14.6284 22.961 14.7368C21.8907 13.7725 20.6452 13.6724 19.3504 14.4499C18.2979 15.0819 18.0688 16.3671 18.1135 17.1505C15.7044 16.912 14.2069 15.6032 13.3639 14.52C13.3049 14.444 13.2099 14.404 13.1206 14.4099C13.0266 14.4169 12.9419 14.4705 12.8938 14.5536C12.4952 15.2457 12.3847 16.0108 12.5754 16.7665C12.6796 17.1788 12.8617 17.5422 13.073 17.8367C12.9717 17.7855 12.8737 17.7213 12.7815 17.6447C12.6968 17.5728 12.5783 17.5593 12.478 17.607C12.3784 17.6559 12.3148 17.7596 12.3148 17.8732C12.3148 19.1708 13.1039 20.0367 13.8409 20.489C13.7218 20.4743 13.5976 20.4472 13.4722 20.4078C13.3645 20.3742 13.2477 20.4078 13.1732 20.4949C13.0988 20.5815 13.081 20.7052 13.1274 20.8106C13.5415 21.7525 14.326 22.4004 15.2966 22.6354C14.4491 23.1472 13.3147 23.3982 12.2759 23.2751C12.1413 23.2556 12.013 23.3434 11.9707 23.4765C11.9283 23.6096 11.9838 23.7557 12.1024 23.824C13.6783 24.734 15.1031 25.0592 16.3343 25.0592C18.1261 25.0592 19.509 24.3712 20.3508 23.7957C22.6202 22.2466 24.0347 19.4653 23.8377 16.9768C24.2013 16.7005 24.7453 16.1904 25.0826 15.6421C25.1525 15.5313 25.1399 15.3853 25.0529 15.2875Z" fill="#D9D9D9"/>
</svg>
