<svg width="38" height="38" viewBox="0 0 38 38" fill="none" xmlns="http://www.w3.org/2000/svg">
<path fill-rule="evenodd" clip-rule="evenodd" d="M18.7546 37.5093C29.1125 37.5093 37.5093 29.1125 37.5093 18.7546C37.5093 8.39674 29.1125 0 18.7546 0C8.39674 0 0 8.39674 0 18.7546C0 29.1125 8.39674 37.5093 18.7546 37.5093Z" fill="#F96B26"/>
<path d="M14.4488 14.9689C15.3269 14.9689 16.0387 14.2571 16.0387 13.379C16.0387 12.5009 15.3269 11.7891 14.4488 11.7891C13.5707 11.7891 12.8589 12.5009 12.8589 13.379C12.8589 14.2571 13.5707 14.9689 14.4488 14.9689Z" fill="#D9D9D9"/>
<path d="M15.7737 16.0308H13.1239C12.9776 16.0308 12.8589 16.1495 12.8589 16.2957V24.2453C12.8589 24.3916 12.9776 24.5103 13.1239 24.5103H15.7737C15.92 24.5103 16.0387 24.3916 16.0387 24.2453V16.2957C16.0387 16.1495 15.92 16.0308 15.7737 16.0308Z" fill="#D9D9D9"/>
<path d="M23.6701 15.5901C22.5376 15.2022 21.121 15.543 20.2714 16.154C20.2423 16.0401 20.1384 15.9553 20.0149 15.9553H17.3651C17.2188 15.9553 17.1001 16.074 17.1001 16.2203V24.1698C17.1001 24.3161 17.2188 24.4348 17.3651 24.4348H20.0149C20.1612 24.4348 20.2799 24.3161 20.2799 24.1698V18.4568C20.7081 18.0879 21.2598 17.9702 21.7114 18.1621C22.1491 18.3471 22.3998 18.7986 22.3998 19.4001V24.1698C22.3998 24.3161 22.5185 24.4348 22.6648 24.4348H25.3146C25.4609 24.4348 25.5796 24.3161 25.5796 24.1698V18.8664C25.5494 16.6888 24.525 15.8827 23.6701 15.5901Z" fill="#D9D9D9"/>
</svg>
