<svg width="39" height="38" viewBox="0 0 39 38" fill="none" xmlns="http://www.w3.org/2000/svg">
<path fill-rule="evenodd" clip-rule="evenodd" d="M19.3411 37.5093C29.699 37.5093 38.0957 29.1125 38.0957 18.7546C38.0957 8.39674 29.699 0 19.3411 0C8.98317 0 0.586426 8.39674 0.586426 18.7546C0.586426 29.1125 8.98317 37.5093 19.3411 37.5093Z" fill="#F96B26"/>
<path d="M21.0492 13.9542H22.7729C22.9314 13.9542 23.0601 13.833 23.0601 13.6835V12.0593C23.0601 11.9099 22.9314 11.7886 22.7729 11.7886H21.0492C19.3071 11.7886 17.8891 13.1242 17.8891 14.7664V16.6613H15.8781C15.7195 16.6613 15.5908 16.7826 15.5908 16.932V18.5563C15.5908 18.7057 15.7195 18.827 15.8781 18.827H17.8891V24.5118C17.8891 24.6613 18.0178 24.7825 18.1764 24.7825H19.9C20.0586 24.7825 20.1873 24.6613 20.1873 24.5118V18.827H22.1983C22.3218 18.827 22.4316 18.7523 22.4712 18.6418L23.0458 17.0176C23.0751 16.9353 23.0601 16.8443 23.0061 16.7734C22.9515 16.703 22.8654 16.6613 22.7729 16.6613H20.1873V14.7664C20.1873 14.3186 20.574 13.9542 21.0492 13.9542Z" fill="#D9D9D9"/>
</svg>
