<svg width="48" height="68" viewBox="0 0 48 68" fill="none" xmlns="http://www.w3.org/2000/svg">
<g clip-path="url(#clip0_313_16)">
<path d="M47.0948 21.8613L26.1373 0.905335C24.9312 -0.301778 22.9736 -0.301778 21.7659 0.905335L17.4141 5.25716L22.9346 10.7776C24.2176 10.3442 25.6885 10.6349 26.7113 11.6577C27.7388 12.6868 28.0275 14.1704 27.5835 15.4576L32.9038 20.7779C34.191 20.3345 35.6762 20.6215 36.7042 21.6511C38.141 23.0874 38.141 25.4152 36.7042 26.8525C35.267 28.2897 32.9391 28.2897 31.5013 26.8525C30.4206 25.7707 30.1536 24.1833 30.7008 22.8519L25.7391 17.8902L25.7386 30.9473C26.0888 31.1211 26.4195 31.3523 26.7113 31.643C28.1481 33.0792 28.1481 35.4071 26.7113 36.8454C25.2741 38.2821 22.9452 38.2821 21.51 36.8454C20.0733 35.4071 20.0733 33.0792 21.51 31.643C21.865 31.2886 22.2758 31.0205 22.7139 30.8404V17.6617C22.2758 17.4826 21.8655 17.2161 21.51 16.859C20.4214 15.772 20.1596 14.1746 20.7174 12.838L15.2759 7.39541L0.905852 21.7644C-0.301788 22.9725 -0.301788 24.9302 0.905852 26.1373L21.8634 47.0937C23.07 48.3009 25.0271 48.3009 26.2352 47.0937L47.0948 26.2347C48.3019 25.0271 48.3019 23.0684 47.0948 21.8613Z" fill="#DE4C36"/>
</g>
<path d="M24.1187 60.6899V64.5938C23.9868 64.7891 23.7769 65.0088 23.4888 65.2529C23.2007 65.4922 22.8027 65.7021 22.2949 65.8828C21.792 66.0586 21.1426 66.1465 20.3467 66.1465C19.6973 66.1465 19.0991 66.0342 18.5522 65.8096C18.0103 65.5801 17.5391 65.248 17.1387 64.8135C16.7432 64.374 16.4355 63.8418 16.2158 63.2168C16.001 62.5869 15.8936 61.874 15.8936 61.0781V60.2505C15.8936 59.4546 15.9863 58.7441 16.1719 58.1191C16.3623 57.4941 16.6406 56.9644 17.0068 56.5298C17.373 56.0903 17.8223 55.7583 18.3545 55.5337C18.8867 55.3042 19.4971 55.1895 20.1855 55.1895C21.001 55.1895 21.6821 55.3311 22.229 55.6143C22.7808 55.8926 23.2104 56.2783 23.5181 56.7715C23.8306 57.2646 24.0308 57.8262 24.1187 58.4561H22.7051C22.6416 58.0703 22.5146 57.7188 22.3242 57.4014C22.1387 57.084 21.8726 56.8301 21.5259 56.6396C21.1792 56.4443 20.7324 56.3467 20.1855 56.3467C19.6924 56.3467 19.2651 56.437 18.9038 56.6177C18.5425 56.7983 18.2446 57.0571 18.0103 57.394C17.7759 57.731 17.6001 58.1387 17.4829 58.6172C17.3706 59.0957 17.3145 59.6353 17.3145 60.2358V61.0781C17.3145 61.6934 17.3853 62.2427 17.5269 62.7261C17.6733 63.2095 17.8809 63.6221 18.1494 63.9639C18.418 64.3008 18.7378 64.5571 19.1089 64.7329C19.4849 64.9087 19.8999 64.9966 20.354 64.9966C20.8569 64.9966 21.2646 64.9551 21.5771 64.8721C21.8896 64.7842 22.1338 64.6816 22.3096 64.5645C22.4854 64.4424 22.6196 64.3276 22.7124 64.2202V61.8325H20.2441V60.6899H24.1187ZM27.7295 58.0752V66H26.3672V58.0752H27.7295ZM26.2646 55.9731C26.2646 55.7534 26.3306 55.5679 26.4624 55.4165C26.5991 55.2651 26.7993 55.1895 27.063 55.1895C27.3218 55.1895 27.5195 55.2651 27.6562 55.4165C27.7979 55.5679 27.8687 55.7534 27.8687 55.9731C27.8687 56.1831 27.7979 56.3638 27.6562 56.5151C27.5195 56.6616 27.3218 56.7349 27.063 56.7349C26.7993 56.7349 26.5991 56.6616 26.4624 56.5151C26.3306 56.3638 26.2646 56.1831 26.2646 55.9731ZM33.2227 58.0752V59.1152H28.938V58.0752H33.2227ZM30.3882 56.1489H31.7432V64.0371C31.7432 64.3057 31.7847 64.5083 31.8677 64.645C31.9507 64.7817 32.0581 64.8721 32.1899 64.916C32.3218 64.96 32.4634 64.9819 32.6147 64.9819C32.7271 64.9819 32.8442 64.9722 32.9663 64.9526C33.0933 64.9282 33.1885 64.9087 33.252 64.894L33.2593 66C33.1519 66.0342 33.0103 66.0659 32.8345 66.0952C32.6636 66.1294 32.4561 66.1465 32.2119 66.1465C31.8799 66.1465 31.5747 66.0806 31.2964 65.9487C31.0181 65.8169 30.7959 65.5972 30.6299 65.2896C30.4688 64.9771 30.3882 64.5571 30.3882 64.0298V56.1489Z" fill="white"/>
<defs>
<clipPath id="clip0_313_16">
<rect width="48" height="48" fill="white"/>
</clipPath>
</defs>
</svg>
