<svg width="48" height="68" viewBox="0 0 48 68" fill="none" xmlns="http://www.w3.org/2000/svg">
<g clip-path="url(#clip0_313_14)">
<path d="M45.8733 0H22.82C22.82 2.76002 23.9164 5.407 25.868 7.35862C27.8197 9.31025 30.4667 10.4067 33.2267 10.4067H37.4733V14.5067C37.477 20.2489 42.1311 24.903 47.8733 24.9067V2C47.8733 0.895431 46.9779 0 45.8733 0Z" fill="#2684FF"/>
<path d="M34.4667 11.4868H11.4133C11.417 17.2291 16.0711 21.8831 21.8133 21.8868H26.06V26.0002C26.0674 31.7424 30.7244 36.3935 36.4667 36.3935V13.4868C36.4667 12.3822 35.5712 11.4868 34.4667 11.4868Z" fill="url(#paint0_linear_313_14)"/>
<path d="M23.0533 22.9668H0C0 28.7142 4.65922 33.3735 10.4067 33.3735H14.6667V37.4735C14.6703 43.2105 19.3163 47.8624 25.0533 47.8735V24.9668C25.0533 23.8622 24.1579 22.9668 23.0533 22.9668Z" fill="url(#paint1_linear_313_14)"/>
</g>
<path d="M18.5703 62.5098V56.4688H19.6953V62.5098C19.6953 63.0723 19.5801 63.5469 19.3496 63.9336C19.1191 64.3203 18.8008 64.6152 18.3945 64.8184C17.9922 65.0176 17.5293 65.1172 17.0059 65.1172C16.4824 65.1172 16.0176 65.0273 15.6113 64.8477C15.2051 64.668 14.8867 64.3945 14.6562 64.0273C14.4258 63.6602 14.3105 63.1973 14.3105 62.6387H15.4414C15.4414 62.998 15.5078 63.293 15.6406 63.5234C15.7734 63.7539 15.957 63.9238 16.1914 64.0332C16.4297 64.1426 16.7012 64.1973 17.0059 64.1973C17.3027 64.1973 17.5684 64.1348 17.8027 64.0098C18.041 63.8809 18.2285 63.6914 18.3652 63.4414C18.502 63.1875 18.5703 62.877 18.5703 62.5098ZM22.625 58.6602V65H21.5352V58.6602H22.625ZM21.4531 56.9785C21.4531 56.8027 21.5059 56.6543 21.6113 56.5332C21.7207 56.4121 21.8809 56.3516 22.0918 56.3516C22.2988 56.3516 22.457 56.4121 22.5664 56.5332C22.6797 56.6543 22.7363 56.8027 22.7363 56.9785C22.7363 57.1465 22.6797 57.291 22.5664 57.4121C22.457 57.5293 22.2988 57.5879 22.0918 57.5879C21.8809 57.5879 21.7207 57.5293 21.6113 57.4121C21.5059 57.291 21.4531 57.1465 21.4531 56.9785ZM25.4492 59.6562V65H24.3652V58.6602H25.4199L25.4492 59.6562ZM27.4297 58.625L27.4238 59.6328C27.334 59.6133 27.248 59.6016 27.166 59.5977C27.0879 59.5898 26.998 59.5859 26.8965 59.5859C26.6465 59.5859 26.4258 59.625 26.2344 59.7031C26.043 59.7812 25.8809 59.8906 25.748 60.0312C25.6152 60.1719 25.5098 60.3398 25.4316 60.5352C25.3574 60.7266 25.3086 60.9375 25.2852 61.168L24.9805 61.3438C24.9805 60.9609 25.0176 60.6016 25.0918 60.2656C25.1699 59.9297 25.2891 59.6328 25.4492 59.375C25.6094 59.1133 25.8125 58.9102 26.0586 58.7656C26.3086 58.6172 26.6055 58.543 26.9492 58.543C27.0273 58.543 27.1172 58.5527 27.2188 58.5723C27.3203 58.5879 27.3906 58.6055 27.4297 58.625ZM31.9355 63.916V60.6523C31.9355 60.4023 31.8848 60.1855 31.7832 60.002C31.6855 59.8145 31.5371 59.6699 31.3379 59.5684C31.1387 59.4668 30.8926 59.416 30.5996 59.416C30.3262 59.416 30.0859 59.4629 29.8789 59.5566C29.6758 59.6504 29.5156 59.7734 29.3984 59.9258C29.2852 60.0781 29.2285 60.2422 29.2285 60.418H28.1445C28.1445 60.1914 28.2031 59.9668 28.3203 59.7441C28.4375 59.5215 28.6055 59.3203 28.8242 59.1406C29.0469 58.957 29.3125 58.8125 29.6211 58.707C29.9336 58.5977 30.2812 58.543 30.6641 58.543C31.125 58.543 31.5312 58.6211 31.8828 58.7773C32.2383 58.9336 32.5156 59.1699 32.7148 59.4863C32.918 59.7988 33.0195 60.1914 33.0195 60.6641V63.6172C33.0195 63.8281 33.0371 64.0527 33.0723 64.291C33.1113 64.5293 33.168 64.7344 33.2422 64.9062V65H32.1113C32.0566 64.875 32.0137 64.709 31.9824 64.502C31.9512 64.291 31.9355 64.0957 31.9355 63.916ZM32.123 61.1562L32.1348 61.918H31.0391C30.7305 61.918 30.4551 61.9434 30.2129 61.9941C29.9707 62.041 29.7676 62.1133 29.6035 62.2109C29.4395 62.3086 29.3145 62.4316 29.2285 62.5801C29.1426 62.7246 29.0996 62.8945 29.0996 63.0898C29.0996 63.2891 29.1445 63.4707 29.2344 63.6348C29.3242 63.7988 29.459 63.9297 29.6387 64.0273C29.8223 64.1211 30.0469 64.168 30.3125 64.168C30.6445 64.168 30.9375 64.0977 31.1914 63.957C31.4453 63.8164 31.6465 63.6445 31.7949 63.4414C31.9473 63.2383 32.0293 63.041 32.041 62.8496L32.5039 63.3711C32.4766 63.5352 32.4023 63.7168 32.2812 63.916C32.1602 64.1152 31.998 64.3066 31.7949 64.4902C31.5957 64.6699 31.3574 64.8203 31.0801 64.9414C30.8066 65.0586 30.498 65.1172 30.1543 65.1172C29.7246 65.1172 29.3477 65.0332 29.0234 64.8652C28.7031 64.6973 28.4531 64.4727 28.2734 64.1914C28.0977 63.9062 28.0098 63.5879 28.0098 63.2363C28.0098 62.8965 28.0762 62.5977 28.209 62.3398C28.3418 62.0781 28.5332 61.8613 28.7832 61.6895C29.0332 61.5137 29.334 61.3809 29.6855 61.291C30.0371 61.2012 30.4297 61.1562 30.8633 61.1562H32.123Z" fill="white"/>
<defs>
<linearGradient id="paint0_linear_313_14" x1="2467.41" y1="15.4869" x2="1492.71" y2="1032.54" gradientUnits="userSpaceOnUse">
<stop offset="0.18" stop-color="#0052CC"/>
<stop offset="1" stop-color="#2684FF"/>
</linearGradient>
<linearGradient id="paint1_linear_313_14" x1="2522" y1="34.2999" x2="1394.51" y2="1143.58" gradientUnits="userSpaceOnUse">
<stop offset="0.18" stop-color="#0052CC"/>
<stop offset="1" stop-color="#2684FF"/>
</linearGradient>
<clipPath id="clip0_313_14">
<rect width="48" height="48" fill="white"/>
</clipPath>
</defs>
</svg>
