<svg width="38" height="38" viewBox="0 0 38 38" fill="none" xmlns="http://www.w3.org/2000/svg">
<g clip-path="url(#clip0_5_1914)">
<path fill-rule="evenodd" clip-rule="evenodd" d="M18.7546 37.5093C29.1125 37.5093 37.5093 29.1125 37.5093 18.7546C37.5093 8.39674 29.1125 0 18.7546 0C8.39674 0 0 8.39674 0 18.7546C0 29.1125 8.39674 37.5093 18.7546 37.5093Z" fill="white" fill-opacity="0.06"/>
<path d="M14.4488 14.9689C15.3269 14.9689 16.0387 14.2571 16.0387 13.379C16.0387 12.5009 15.3269 11.7891 14.4488 11.7891C13.5707 11.7891 12.8589 12.5009 12.8589 13.379C12.8589 14.2571 13.5707 14.9689 14.4488 14.9689Z" fill="#D9D9D9"/>
<path d="M15.7737 16.0312H13.1239C12.9776 16.0312 12.8589 16.15 12.8589 16.2962V24.2458C12.8589 24.3921 12.9776 24.5107 13.1239 24.5107H15.7737C15.92 24.5107 16.0387 24.3921 16.0387 24.2458V16.2962C16.0387 16.15 15.92 16.0312 15.7737 16.0312Z" fill="#D9D9D9"/>
<path d="M23.6701 15.5896C22.5376 15.2017 21.121 15.5425 20.2714 16.1535C20.2423 16.0396 20.1384 15.9548 20.0149 15.9548H17.3651C17.2188 15.9548 17.1001 16.0735 17.1001 16.2198V24.1693C17.1001 24.3156 17.2188 24.4343 17.3651 24.4343H20.0149C20.1612 24.4343 20.2799 24.3156 20.2799 24.1693V18.4563C20.7081 18.0874 21.2598 17.9697 21.7114 18.1616C22.1491 18.3466 22.3998 18.7981 22.3998 19.3996V24.1693C22.3998 24.3156 22.5185 24.4343 22.6648 24.4343H25.3146C25.4609 24.4343 25.5796 24.3156 25.5796 24.1693V18.8659C25.5494 16.6883 24.525 15.8822 23.6701 15.5896Z" fill="#D9D9D9"/>
</g>
<defs>
<clipPath id="clip0_5_1914">
<rect width="38" height="38" fill="white"/>
</clipPath>
</defs>
</svg>
