<svg width="48" height="68" viewBox="0 0 48 68" fill="none" xmlns="http://www.w3.org/2000/svg">
<path fill-rule="evenodd" clip-rule="evenodd" d="M24.0462 0.527832L2.112 8.14157L5.25211 37.2413L24.0462 47.4789V0.527832Z" fill="#412846"/>
<path fill-rule="evenodd" clip-rule="evenodd" d="M23.952 0.527832L45.8862 8.14157L42.7461 37.2413L23.952 47.4789V0.527832Z" fill="#4B314F"/>
<path fill-rule="evenodd" clip-rule="evenodd" d="M34.9319 16.5942L34.928 16.5818C35.9295 17.6965 36.4439 19.0201 36.4713 20.5526C36.4986 22.0852 35.9842 23.7018 34.9161 25.3975C35.7144 24.777 36.6362 23.4375 37.6786 21.3947C38.1289 25.5348 36.4558 28.6795 32.6437 30.8333C33.8608 30.721 35.4767 29.9197 37.4809 28.4265C35.3422 33.5757 31.4097 36.2924 25.6834 36.5768C20.1494 36.5753 16.5644 33.2497 16.5672 33.2518C14.292 31.481 12.7265 29.2491 11.8762 26.5662C10.5154 25.0801 10.5019 24.9208 10.3615 24.3269C10.2211 23.7331 10.4502 23.5672 10.8488 22.9862C11.1145 22.5988 11.1772 22.0416 11.0406 21.3244C10.7018 20.8546 10.5068 20.1188 10.4554 19.117C10.4554 18.6329 10.7785 18.1221 11.4247 17.5846C12.0709 17.0471 12.4673 16.6338 12.6109 16.3492C12.7205 16.194 12.7628 15.5214 12.7379 14.3312C12.7312 13.1623 13.3803 12.5263 14.685 12.4233C16.6421 12.2688 17.7459 10.7969 18.3608 10.1275C18.7707 9.68126 19.3774 9.46436 20.1426 9.46018C21.2198 9.40969 22.2 9.82264 23.0444 10.6748C25.1475 10.566 27.3018 11.1332 29.4846 12.3619C32.5866 14.2046 34.2795 16.2001 34.5633 18.3383C34.2308 21.1523 30.4507 21.0788 23.2396 18.1169C19.466 19.1858 17.6107 21.5021 17.6724 25.0658C17.6698 28.336 19.2525 30.7123 22.4096 32.1923C20.8709 30.6815 20.2155 29.4118 20.4362 28.3602C23.6368 32.1506 27.2826 33.5673 31.3671 32.6106C29.5663 32.6735 28.1399 32.0941 27.0664 30.8636C29.8272 30.7965 32.4335 29.5149 34.8878 27.0057C33.471 28.1331 31.9885 28.56 30.4189 28.2915C34.6701 24.9492 36.1745 21.0501 34.9319 16.5942ZM27.216 16.0801C27.5606 16.0801 27.84 15.8007 27.84 15.4561C27.84 15.1114 27.5606 14.8321 27.216 14.8321C26.8714 14.8321 26.592 15.1114 26.592 15.4561C26.592 15.8007 26.8714 16.0801 27.216 16.0801Z" fill="#BA2BD2"/>
<path d="M14.1821 55.7578V65H12.9507L8.29785 57.8716V65H7.07275V55.7578H8.29785L12.9697 62.9053V55.7578H14.1821ZM23.1831 60.3979V63.7812C23.0688 63.9505 22.8869 64.141 22.6372 64.3525C22.3875 64.5599 22.0426 64.7419 21.6025 64.8984C21.1667 65.0508 20.6038 65.127 19.9141 65.127C19.3512 65.127 18.8328 65.0296 18.3589 64.835C17.8892 64.6361 17.4808 64.3483 17.1338 63.9717C16.791 63.5908 16.5244 63.1296 16.334 62.5879C16.1478 62.042 16.0547 61.4242 16.0547 60.7344V60.0171C16.0547 59.3273 16.1351 58.7116 16.2959 58.1699C16.4609 57.6283 16.7021 57.1691 17.0195 56.7925C17.3369 56.4116 17.7262 56.1239 18.1875 55.9292C18.6488 55.7303 19.1777 55.6309 19.7744 55.6309C20.4811 55.6309 21.0715 55.7536 21.5454 55.999C22.0236 56.2402 22.396 56.5745 22.6626 57.002C22.9334 57.4294 23.1069 57.916 23.1831 58.4619H21.958C21.903 58.1276 21.793 57.8229 21.6279 57.5479C21.4671 57.2728 21.2365 57.0527 20.936 56.8877C20.6356 56.7184 20.2484 56.6338 19.7744 56.6338C19.347 56.6338 18.9767 56.7121 18.6636 56.8687C18.3504 57.0252 18.0923 57.2495 17.8892 57.5415C17.686 57.8335 17.5337 58.1868 17.4321 58.6016C17.3348 59.0163 17.2861 59.4839 17.2861 60.0044V60.7344C17.2861 61.2676 17.3475 61.7437 17.4702 62.1626C17.5972 62.5815 17.777 62.9391 18.0098 63.2354C18.2425 63.5273 18.5197 63.7495 18.8413 63.9019C19.1672 64.0542 19.5269 64.1304 19.9204 64.1304C20.3563 64.1304 20.7096 64.0944 20.9805 64.0225C21.2513 63.9463 21.4629 63.8574 21.6152 63.7559C21.7676 63.6501 21.884 63.5506 21.9644 63.4575V61.3882H19.8252V60.3979H23.1831ZM25.2144 55.7578H28.2739C28.9679 55.7578 29.554 55.8636 30.0322 56.0752C30.5146 56.2868 30.8807 56.5999 31.1304 57.0146C31.3843 57.4251 31.5112 57.9308 31.5112 58.5317C31.5112 58.9549 31.4245 59.3421 31.251 59.6934C31.0817 60.0404 30.8363 60.3366 30.5146 60.582C30.1973 60.8232 29.8164 61.0031 29.3721 61.1216L29.0293 61.2549H26.1538L26.1411 60.2583H28.312C28.7521 60.2583 29.1182 60.1821 29.4102 60.0298C29.7021 59.8732 29.9222 59.6637 30.0703 59.4014C30.2184 59.139 30.2925 58.8491 30.2925 58.5317C30.2925 58.1763 30.2227 57.8652 30.083 57.5986C29.9434 57.332 29.7233 57.1268 29.4229 56.9829C29.1266 56.8348 28.7437 56.7607 28.2739 56.7607H26.4395V65H25.2144V55.7578ZM30.6162 65L28.3691 60.8105L29.645 60.8042L31.9238 64.9238V65H30.6162ZM34.0186 55.7578L36.2402 59.2998L38.4619 55.7578H39.8901L36.9702 60.3345L39.96 65H38.519L36.2402 61.3882L33.9614 65H32.5205L35.5103 60.3345L32.5903 55.7578H34.0186Z" fill="white"/>
</svg>
