<svg width="56" height="68" viewBox="0 0 56 68" fill="none" xmlns="http://www.w3.org/2000/svg">
<path d="M26.3308 0L4.0575 7.91159L7.45472 37.2464L26.3308 47.6601L45.2069 37.2464L48.6042 7.91159L26.3308 0Z" fill="#DD0031"/>
<mask id="mask0_313_7" style="mask-type:luminance" maskUnits="userSpaceOnUse" x="4" y="0" width="45" height="48">
<path d="M26.3308 0L4.0575 7.91159L7.45472 37.2464L26.3308 47.6601L45.2069 37.2464L48.6042 7.91159L26.3308 0Z" fill="#C3002F"/>
</mask>
<g mask="url(#mask0_313_7)">
<path fill-rule="evenodd" clip-rule="evenodd" d="M26.3308 0V5.29028V5.26645V29.4063V47.6601L45.2069 37.2464L48.6042 7.91159L26.3308 0Z" fill="#C3002F"/>
</g>
<path d="M32.8596 22.6038L30.7229 22.1292L32.3847 24.5024V31.8595L38.0826 27.113V19.0439L35.4711 19.9932L32.8596 22.6038Z" fill="white"/>
<path d="M19.5647 22.6038L21.7014 22.1292L20.0395 24.5024V31.8595L14.3417 27.113V19.0439L16.9532 19.9932L19.5647 22.6038Z" fill="white"/>
<path fill-rule="evenodd" clip-rule="evenodd" d="M20.7284 24.9479L22.6222 22.0942L23.8058 22.8076H28.5402L29.7239 22.0942L31.6176 24.9479V35.649L30.1973 37.7893L28.5402 39.4539H23.8058L22.1487 37.7893L20.7284 35.649V24.9479Z" fill="white"/>
<path d="M32.3848 36.3687L35.4711 33.2835V30.1982L32.3848 32.8088V36.3687Z" fill="white"/>
<path d="M20.0395 36.3687L16.9532 33.2835V30.1982L20.0395 32.8088V36.3687Z" fill="white"/>
<path fill-rule="evenodd" clip-rule="evenodd" d="M26.6869 21.8918V8.36426H29.2984L31.1888 12.855L39.9818 12.1615L38.5574 18.0946L28.3488 21.8918H26.6869ZM25.7373 8.36426V21.8918H24.3129L14.1043 18.0946L12.6798 12.1615L21.2339 12.8539L23.1258 8.36426H25.7373Z" fill="white"/>
<path d="M31.6725 12.1615L36.6581 11.6868L33.3344 8.36426H30.0107L31.6725 12.1615Z" fill="white"/>
<path d="M20.7517 12.1615L15.7661 11.6868L19.0899 8.36426H22.4136L20.7517 12.1615Z" fill="white"/>
<path d="M4.48145 61.3755H2.01221V60.3789H4.48145C4.95964 60.3789 5.34684 60.3027 5.64307 60.1504C5.93929 59.998 6.15511 59.7865 6.29053 59.5156C6.43018 59.2448 6.5 58.9359 6.5 58.5889C6.5 58.2715 6.43018 57.9731 6.29053 57.6938C6.15511 57.4146 5.93929 57.1903 5.64307 57.021C5.34684 56.8475 4.95964 56.7607 4.48145 56.7607H2.29785V65H1.07275V55.7578H4.48145C5.17969 55.7578 5.77002 55.8784 6.25244 56.1196C6.73486 56.3608 7.10091 56.6951 7.35059 57.1226C7.60026 57.5457 7.7251 58.0303 7.7251 58.5762C7.7251 59.1686 7.60026 59.6743 7.35059 60.0933C7.10091 60.5122 6.73486 60.8317 6.25244 61.0518C5.77002 61.2676 5.17969 61.3755 4.48145 61.3755ZM10.2705 59.2109V65H9.09619V58.1318H10.2388L10.2705 59.2109ZM12.416 58.0938L12.4097 59.1855C12.3123 59.1644 12.2192 59.1517 12.1304 59.1475C12.0457 59.139 11.9484 59.1348 11.8384 59.1348C11.5675 59.1348 11.3285 59.1771 11.1211 59.2617C10.9137 59.3464 10.7381 59.4648 10.5942 59.6172C10.4504 59.7695 10.3361 59.9515 10.2515 60.1631C10.1711 60.3704 10.1182 60.599 10.0928 60.8486L9.7627 61.0391C9.7627 60.6243 9.8029 60.235 9.8833 59.8711C9.96794 59.5072 10.097 59.1855 10.2705 58.9062C10.444 58.6227 10.6641 58.4027 10.9307 58.2461C11.2015 58.0853 11.5231 58.0049 11.8955 58.0049C11.9801 58.0049 12.0775 58.0155 12.1875 58.0366C12.2975 58.0535 12.3737 58.0726 12.416 58.0938ZM14.7773 58.1318V65H13.5967V58.1318H14.7773ZM13.5078 56.3101C13.5078 56.1196 13.5649 55.9588 13.6792 55.8276C13.7977 55.6965 13.9712 55.6309 14.1997 55.6309C14.424 55.6309 14.5954 55.6965 14.7139 55.8276C14.8366 55.9588 14.8979 56.1196 14.8979 56.3101C14.8979 56.492 14.8366 56.6486 14.7139 56.7798C14.5954 56.9067 14.424 56.9702 14.1997 56.9702C13.9712 56.9702 13.7977 56.9067 13.6792 56.7798C13.5649 56.6486 13.5078 56.492 13.5078 56.3101ZM17.8306 59.4966V65H16.6499V58.1318H17.7671L17.8306 59.4966ZM17.5894 61.3057L17.0435 61.2866C17.0477 60.8169 17.109 60.3831 17.2275 59.9854C17.346 59.5833 17.5216 59.2342 17.7544 58.938C17.9871 58.6418 18.277 58.4132 18.624 58.2524C18.971 58.0874 19.373 58.0049 19.8301 58.0049C20.1517 58.0049 20.4479 58.0514 20.7188 58.1445C20.9896 58.2334 21.2244 58.3752 21.4233 58.5698C21.6222 58.7645 21.7767 59.0142 21.8867 59.3188C21.9967 59.6235 22.0518 59.9917 22.0518 60.4233V65H20.8774V60.4805C20.8774 60.1208 20.8161 59.833 20.6934 59.6172C20.5749 59.4014 20.4056 59.2448 20.1855 59.1475C19.9655 59.0459 19.7074 58.9951 19.4111 58.9951C19.0641 58.9951 18.7743 59.0565 18.5415 59.1792C18.3088 59.3019 18.1226 59.4712 17.9829 59.687C17.8433 59.9028 17.7417 60.1504 17.6782 60.4297C17.619 60.7048 17.5894 60.9967 17.5894 61.3057ZM22.0391 60.6582L21.252 60.8994C21.2562 60.5228 21.3175 60.161 21.436 59.814C21.5588 59.467 21.7344 59.158 21.9629 58.8872C22.1956 58.6164 22.4813 58.4027 22.8198 58.2461C23.1584 58.0853 23.5456 58.0049 23.9814 58.0049C24.3496 58.0049 24.6755 58.0535 24.959 58.1509C25.2467 58.2482 25.488 58.3984 25.6826 58.6016C25.8815 58.8005 26.0317 59.0565 26.1333 59.3696C26.2349 59.6828 26.2856 60.0552 26.2856 60.4868V65H25.105V60.4741C25.105 60.089 25.0436 59.7907 24.9209 59.5791C24.8024 59.3633 24.6331 59.2131 24.4131 59.1284C24.1973 59.0396 23.9391 58.9951 23.6387 58.9951C23.3805 58.9951 23.152 59.0396 22.9531 59.1284C22.7542 59.2173 22.5871 59.34 22.4517 59.4966C22.3162 59.6489 22.2126 59.8245 22.1406 60.0234C22.0729 60.2223 22.0391 60.4339 22.0391 60.6582ZM30.9131 65.127C30.4349 65.127 30.0011 65.0465 29.6118 64.8857C29.2267 64.7207 28.8945 64.4901 28.6152 64.1938C28.3402 63.8976 28.1286 63.5464 27.9805 63.1401C27.8324 62.7339 27.7583 62.2896 27.7583 61.8071V61.5405C27.7583 60.9819 27.8408 60.4847 28.0059 60.0488C28.1709 59.6087 28.3952 59.2363 28.6787 58.9316C28.9622 58.627 29.2839 58.3963 29.6436 58.2397C30.0033 58.0832 30.3757 58.0049 30.7607 58.0049C31.2516 58.0049 31.6748 58.0895 32.0303 58.2588C32.39 58.4281 32.6841 58.665 32.9126 58.9697C33.1411 59.2702 33.3104 59.6257 33.4204 60.0361C33.5304 60.4424 33.5854 60.8867 33.5854 61.3691V61.896H28.4565V60.9375H32.4111V60.8486C32.3942 60.5439 32.3307 60.2477 32.2207 59.96C32.1149 59.6722 31.9456 59.4352 31.7129 59.249C31.4801 59.0628 31.1628 58.9697 30.7607 58.9697C30.4941 58.9697 30.2487 59.0269 30.0244 59.1411C29.8001 59.2511 29.6076 59.4162 29.4468 59.6362C29.286 59.8563 29.1611 60.125 29.0723 60.4424C28.9834 60.7598 28.939 61.1258 28.939 61.5405V61.8071C28.939 62.133 28.9834 62.4398 29.0723 62.7275C29.1654 63.0111 29.2987 63.2607 29.4722 63.4766C29.6499 63.6924 29.8636 63.8617 30.1133 63.9844C30.3672 64.1071 30.6549 64.1685 30.9766 64.1685C31.3913 64.1685 31.7425 64.0838 32.0303 63.9146C32.318 63.7453 32.5698 63.5189 32.7856 63.2354L33.4966 63.8003C33.3485 64.0246 33.1602 64.2383 32.9316 64.4414C32.7031 64.6445 32.4217 64.8096 32.0874 64.9365C31.7573 65.0635 31.3659 65.127 30.9131 65.127ZM42.2437 55.7578V65H41.0122L36.3594 57.8716V65H35.1343V55.7578H36.3594L41.0312 62.9053V55.7578H42.2437ZM51.2446 60.3979V63.7812C51.1304 63.9505 50.9484 64.141 50.6987 64.3525C50.4491 64.5599 50.1042 64.7419 49.6641 64.8984C49.2282 65.0508 48.6654 65.127 47.9756 65.127C47.4128 65.127 46.8944 65.0296 46.4204 64.835C45.9507 64.6361 45.5423 64.3483 45.1953 63.9717C44.8525 63.5908 44.5859 63.1296 44.3955 62.5879C44.2093 62.042 44.1162 61.4242 44.1162 60.7344V60.0171C44.1162 59.3273 44.1966 58.7116 44.3574 58.1699C44.5225 57.6283 44.7637 57.1691 45.0811 56.7925C45.3984 56.4116 45.7878 56.1239 46.249 55.9292C46.7103 55.7303 47.2393 55.6309 47.8359 55.6309C48.5426 55.6309 49.133 55.7536 49.6069 55.999C50.0851 56.2402 50.4575 56.5745 50.7241 57.002C50.995 57.4294 51.1685 57.916 51.2446 58.4619H50.0195C49.9645 58.1276 49.8545 57.8229 49.6895 57.5479C49.5286 57.2728 49.298 57.0527 48.9976 56.8877C48.6971 56.7184 48.3099 56.6338 47.8359 56.6338C47.4085 56.6338 47.0382 56.7121 46.7251 56.8687C46.4119 57.0252 46.1538 57.2495 45.9507 57.5415C45.7476 57.8335 45.5952 58.1868 45.4937 58.6016C45.3963 59.0163 45.3477 59.4839 45.3477 60.0044V60.7344C45.3477 61.2676 45.409 61.7437 45.5317 62.1626C45.6587 62.5815 45.8385 62.9391 46.0713 63.2354C46.304 63.5273 46.5812 63.7495 46.9028 63.9019C47.2287 64.0542 47.5884 64.1304 47.9819 64.1304C48.4178 64.1304 48.7712 64.0944 49.042 64.0225C49.3128 63.9463 49.5244 63.8574 49.6768 63.7559C49.8291 63.6501 49.9455 63.5506 50.0259 63.4575V61.3882H47.8867V60.3979H51.2446Z" fill="white"/>
</svg>
