<svg width="38" height="38" viewBox="0 0 38 38" fill="none" xmlns="http://www.w3.org/2000/svg">
<g clip-path="url(#clip0_5_1922)">
<path fill-rule="evenodd" clip-rule="evenodd" d="M18.9231 37.5093C29.281 37.5093 37.6777 29.1125 37.6777 18.7546C37.6777 8.39674 29.281 0 18.9231 0C8.5652 0 0.168457 8.39674 0.168457 18.7546C0.168457 29.1125 8.5652 37.5093 18.9231 37.5093Z" fill="white" fill-opacity="0.06"/>
<path d="M25.0529 15.287C24.9658 15.1886 24.8255 15.1639 24.7104 15.2245C24.6388 15.2622 24.5043 15.3117 24.3445 15.3606C24.5461 15.0849 24.7081 14.7763 24.7797 14.4989C24.8106 14.3793 24.7654 14.2533 24.6669 14.182C24.5684 14.1113 24.4373 14.1113 24.3388 14.182C24.1836 14.2933 23.4346 14.6279 22.961 14.7363C21.8907 13.772 20.6452 13.6719 19.3504 14.4494C18.2979 15.0814 18.0688 16.3666 18.1135 17.15C15.7044 16.9115 14.2069 15.6027 13.3639 14.5195C13.3049 14.4435 13.2099 14.4035 13.1206 14.4094C13.0266 14.4164 12.9419 14.47 12.8938 14.5531C12.4952 15.2452 12.3847 16.0103 12.5754 16.766C12.6796 17.1783 12.8617 17.5417 13.073 17.8362C12.9717 17.785 12.8737 17.7208 12.7815 17.6442C12.6968 17.5723 12.5783 17.5588 12.478 17.6065C12.3784 17.6554 12.3148 17.7591 12.3148 17.8727C12.3148 19.1703 13.1039 20.0362 13.8409 20.4885C13.7218 20.4738 13.5976 20.4467 13.4722 20.4073C13.3645 20.3737 13.2477 20.4073 13.1732 20.4944C13.0988 20.581 13.081 20.7047 13.1274 20.8101C13.5415 21.752 14.326 22.3999 15.2966 22.6349C14.4491 23.1467 13.3147 23.3977 12.2759 23.2746C12.1413 23.2551 12.013 23.3429 11.9707 23.476C11.9283 23.6091 11.9838 23.7552 12.1024 23.8235C13.6783 24.7335 15.1031 25.0587 16.3343 25.0587C18.1261 25.0587 19.509 24.3707 20.3508 23.7952C22.6202 22.2461 24.0347 19.4648 23.8377 16.9763C24.2013 16.7 24.7453 16.1899 25.0826 15.6416C25.1525 15.5308 25.1399 15.3848 25.0529 15.287Z" fill="#D9D9D9"/>
</g>
<defs>
<clipPath id="clip0_5_1922">
<rect width="38" height="38" fill="white"/>
</clipPath>
</defs>
</svg>
