<svg width="68" height="68" viewBox="0 0 68 68" fill="none" xmlns="http://www.w3.org/2000/svg">
<g clip-path="url(#clip0_313_3)">
<path d="M13.75 0H54.25C56.3211 0 58 1.67893 58 3.75V44.25C58 46.3211 56.3211 48 54.25 48H13.75C11.6789 48 10 46.3211 10 44.25V3.75C10 1.67893 11.6789 0 13.75 0Z" fill="#3178C6"/>
<path d="M38.2221 37.5891V42.7678C39.0644 43.1994 40.0606 43.5231 41.2105 43.7389C42.3604 43.9547 43.5724 44.0625 44.8467 44.0625C46.0883 44.0625 47.2681 43.9438 48.3856 43.7064C49.5031 43.4691 50.4831 43.0779 51.3252 42.5332C52.1674 41.9884 52.8342 41.2762 53.3256 40.3969C53.8169 39.5177 54.0625 38.4308 54.0625 37.1361C54.0625 36.1974 53.9221 35.3747 53.6414 34.668C53.3607 33.9613 52.9557 33.3328 52.4266 32.7827C51.8976 32.2324 51.2631 31.7389 50.5236 31.3018C49.7839 30.8649 48.9498 30.4523 48.0211 30.0639C47.3408 29.7833 46.7309 29.511 46.1909 29.2466C45.6511 28.9822 45.1921 28.7126 44.8142 28.4374C44.4362 28.1623 44.1447 27.8709 43.9396 27.5634C43.7344 27.2559 43.6319 26.9081 43.6319 26.5196C43.6319 26.1636 43.7236 25.8427 43.9071 25.5568C44.0907 25.2709 44.35 25.0254 44.6847 24.8205C45.0194 24.6154 45.4296 24.4564 45.9156 24.3429C46.4014 24.2297 46.9414 24.1731 47.5353 24.1731C47.9673 24.1731 48.4234 24.2055 48.9038 24.2702C49.3844 24.3349 49.8676 24.4346 50.3536 24.5696C50.8394 24.7044 51.3117 24.8743 51.7707 25.0794C52.2295 25.2844 52.6534 25.5217 53.0421 25.7914V20.9526C52.2539 20.6505 51.3927 20.4266 50.4587 20.2809C49.5248 20.1353 48.4531 20.0625 47.2437 20.0625C46.0127 20.0625 44.8467 20.1947 43.7453 20.4591C42.6439 20.7232 41.6747 21.1359 40.8379 21.6969C40.0011 22.2581 39.3398 22.9729 38.8538 23.8414C38.368 24.7099 38.125 25.7482 38.125 26.9567C38.125 28.4994 38.5703 29.8157 39.4613 30.9054C40.3521 31.995 41.7044 32.9175 43.5184 33.6727C44.2311 33.9641 44.8953 34.2499 45.5106 34.5306C46.1262 34.8111 46.6579 35.1023 47.1061 35.4043C47.5542 35.7064 47.9078 36.0354 48.1669 36.3915C48.4261 36.7476 48.5556 37.1522 48.5556 37.6054C48.5556 37.9397 48.4746 38.25 48.3126 38.5359C48.1508 38.8217 47.905 39.0699 47.5758 39.2803C47.2465 39.4907 46.8361 39.6551 46.3448 39.7738C45.8536 39.8925 45.2785 39.9519 44.6198 39.9519C43.4969 39.9519 42.3848 39.7551 41.2834 39.3611C40.1819 38.9674 39.1615 38.3768 38.2221 37.5891ZM29.5904 24.7016H36.25V20.4375H17.6875V24.7016H24.3146V43.6875H29.5904V24.7016Z" fill="white"/>
</g>
<path d="M4.83301 55.0469V65H3.53418V55.0469H4.83301ZM8.03223 55.0469V56.127H0.341797V55.0469H8.03223ZM10.9033 64.2344L12.9609 57.6035H14.3145L11.3477 66.1416C11.2793 66.3239 11.1882 66.5199 11.0742 66.7295C10.9648 66.9437 10.8236 67.1465 10.6504 67.3379C10.4772 67.5293 10.2676 67.6842 10.0215 67.8027C9.77995 67.9258 9.49056 67.9873 9.15332 67.9873C9.05306 67.9873 8.92546 67.9736 8.77051 67.9463C8.61556 67.9189 8.50618 67.8962 8.44238 67.8779L8.43555 66.8525C8.47201 66.8571 8.52897 66.8617 8.60645 66.8662C8.68848 66.8753 8.74544 66.8799 8.77734 66.8799C9.06445 66.8799 9.30827 66.8411 9.50879 66.7637C9.70931 66.6908 9.87793 66.5654 10.0146 66.3877C10.1559 66.2145 10.2767 65.9753 10.377 65.6699L10.9033 64.2344ZM9.39258 57.6035L11.3135 63.3457L11.6416 64.6787L10.7324 65.1436L8.01172 57.6035H9.39258ZM16.7207 59.0254V67.8438H15.4492V57.6035H16.6113L16.7207 59.0254ZM21.7041 61.2402V61.3838C21.7041 61.9215 21.6403 62.4206 21.5127 62.8809C21.3851 63.3366 21.1982 63.7331 20.9521 64.0703C20.7106 64.4076 20.4121 64.6696 20.0566 64.8564C19.7012 65.0433 19.2933 65.1367 18.833 65.1367C18.3636 65.1367 17.9489 65.0592 17.5889 64.9043C17.2288 64.7493 16.9235 64.5238 16.6729 64.2275C16.4222 63.9313 16.2217 63.5758 16.0713 63.1611C15.9255 62.7464 15.8252 62.2793 15.7705 61.7598V60.9941C15.8252 60.4473 15.9277 59.9574 16.0781 59.5244C16.2285 59.0915 16.4268 58.7223 16.6729 58.417C16.9235 58.1071 17.2266 57.8724 17.582 57.7129C17.9375 57.5488 18.3477 57.4668 18.8125 57.4668C19.2773 57.4668 19.6898 57.5579 20.0498 57.7402C20.4098 57.918 20.7129 58.1732 20.959 58.5059C21.2051 58.8385 21.3896 59.2373 21.5127 59.7021C21.6403 60.1624 21.7041 60.6751 21.7041 61.2402ZM20.4326 61.3838V61.2402C20.4326 60.8711 20.3939 60.5247 20.3164 60.2012C20.2389 59.873 20.1182 59.5859 19.9541 59.3398C19.7946 59.0892 19.5895 58.8932 19.3389 58.752C19.0882 58.6061 18.7897 58.5332 18.4434 58.5332C18.1243 58.5332 17.8464 58.5879 17.6094 58.6973C17.377 58.8066 17.1787 58.9548 17.0146 59.1416C16.8506 59.3239 16.7161 59.5335 16.6113 59.7705C16.5111 60.0029 16.4359 60.2445 16.3857 60.4951V62.2656C16.4769 62.5846 16.6045 62.8854 16.7686 63.168C16.9326 63.446 17.1514 63.6715 17.4248 63.8447C17.6982 64.0133 18.0423 64.0977 18.457 64.0977C18.7988 64.0977 19.0928 64.027 19.3389 63.8857C19.5895 63.7399 19.7946 63.5417 19.9541 63.291C20.1182 63.0404 20.2389 62.7533 20.3164 62.4297C20.3939 62.1016 20.4326 61.7529 20.4326 61.3838ZM26.3867 65.1367C25.8717 65.1367 25.4046 65.0501 24.9854 64.877C24.5706 64.6992 24.2129 64.4508 23.9121 64.1318C23.6159 63.8128 23.388 63.4346 23.2285 62.9971C23.069 62.5596 22.9893 62.0811 22.9893 61.5615V61.2744C22.9893 60.6729 23.0781 60.1374 23.2559 59.668C23.4336 59.194 23.6751 58.793 23.9805 58.4648C24.2858 58.1367 24.6322 57.8883 25.0195 57.7197C25.4069 57.5511 25.8079 57.4668 26.2227 57.4668C26.7513 57.4668 27.207 57.5579 27.5898 57.7402C27.9772 57.9225 28.2939 58.1777 28.54 58.5059C28.7861 58.8294 28.9684 59.2122 29.0869 59.6543C29.2054 60.0918 29.2646 60.5703 29.2646 61.0898V61.6572H23.7412V60.625H28V60.5293C27.9818 60.2012 27.9134 59.8822 27.7949 59.5723C27.681 59.2624 27.4987 59.0072 27.248 58.8066C26.9974 58.6061 26.6556 58.5059 26.2227 58.5059C25.9355 58.5059 25.6712 58.5674 25.4297 58.6904C25.1882 58.8089 24.9808 58.9867 24.8076 59.2236C24.6344 59.4606 24.5 59.75 24.4043 60.0918C24.3086 60.4336 24.2607 60.8278 24.2607 61.2744V61.5615C24.2607 61.9124 24.3086 62.2428 24.4043 62.5527C24.5046 62.8581 24.6481 63.127 24.835 63.3594C25.0264 63.5918 25.2565 63.7741 25.5254 63.9062C25.7988 64.0384 26.1087 64.1045 26.4551 64.1045C26.9017 64.1045 27.2799 64.0133 27.5898 63.8311C27.8997 63.6488 28.1709 63.4049 28.4033 63.0996L29.1689 63.708C29.0094 63.9495 28.8066 64.1797 28.5605 64.3984C28.3145 64.6172 28.0114 64.7949 27.6514 64.9316C27.2959 65.0684 26.8743 65.1367 26.3867 65.1367ZM36.2373 62.4844C36.2373 62.252 36.2008 62.0469 36.1279 61.8691C36.0596 61.6868 35.9365 61.5228 35.7588 61.377C35.5856 61.2311 35.3441 61.0921 35.0342 60.96C34.7288 60.8278 34.3415 60.6934 33.8721 60.5566C33.3799 60.4108 32.9355 60.249 32.5391 60.0713C32.1426 59.889 31.8031 59.6816 31.5205 59.4492C31.238 59.2168 31.0215 58.9502 30.8711 58.6494C30.7207 58.3486 30.6455 58.0046 30.6455 57.6172C30.6455 57.2298 30.7253 56.8721 30.8848 56.5439C31.0443 56.2158 31.2721 55.931 31.5684 55.6895C31.8691 55.4434 32.2269 55.252 32.6416 55.1152C33.0563 54.9785 33.5189 54.9102 34.0293 54.9102C34.7767 54.9102 35.4102 55.0537 35.9297 55.3408C36.4538 55.6234 36.8525 55.9948 37.126 56.4551C37.3994 56.9108 37.5361 57.3984 37.5361 57.918H36.2236C36.2236 57.5443 36.1439 57.2139 35.9844 56.9268C35.8249 56.6351 35.5833 56.4072 35.2598 56.2432C34.9362 56.0745 34.526 55.9902 34.0293 55.9902C33.5599 55.9902 33.1725 56.0609 32.8672 56.2021C32.5618 56.3434 32.334 56.5348 32.1836 56.7764C32.0378 57.0179 31.9648 57.2936 31.9648 57.6035C31.9648 57.8132 32.0081 58.0046 32.0947 58.1777C32.1859 58.3464 32.3249 58.5036 32.5117 58.6494C32.7031 58.7952 32.9447 58.9297 33.2363 59.0527C33.5326 59.1758 33.8857 59.2943 34.2959 59.4082C34.861 59.5677 35.3486 59.7454 35.7588 59.9414C36.1689 60.1374 36.5062 60.3584 36.7705 60.6045C37.0394 60.846 37.2376 61.1217 37.3652 61.4316C37.4974 61.737 37.5635 62.0833 37.5635 62.4707C37.5635 62.8763 37.4814 63.2432 37.3174 63.5713C37.1533 63.8994 36.9186 64.1797 36.6133 64.4121C36.3079 64.6445 35.9411 64.8245 35.5127 64.9521C35.0889 65.0752 34.6149 65.1367 34.0908 65.1367C33.6305 65.1367 33.1771 65.0729 32.7305 64.9453C32.2884 64.8177 31.8851 64.6263 31.5205 64.3711C31.1605 64.1159 30.8711 63.8014 30.6523 63.4277C30.4382 63.0495 30.3311 62.612 30.3311 62.1152H31.6436C31.6436 62.457 31.7096 62.751 31.8418 62.9971C31.974 63.2386 32.154 63.4391 32.3818 63.5986C32.6143 63.7581 32.8763 63.8766 33.168 63.9541C33.4642 64.027 33.7718 64.0635 34.0908 64.0635C34.5511 64.0635 34.9408 63.9997 35.2598 63.8721C35.5788 63.7445 35.8203 63.5622 35.9844 63.3252C36.153 63.0882 36.2373 62.8079 36.2373 62.4844ZM42.0137 64.0977C42.3145 64.0977 42.5924 64.0361 42.8477 63.9131C43.1029 63.79 43.3125 63.6214 43.4766 63.4072C43.6406 63.1885 43.734 62.9401 43.7568 62.6621H44.96C44.9372 63.0996 44.7891 63.5075 44.5156 63.8857C44.2467 64.2594 43.8936 64.5625 43.4561 64.7949C43.0186 65.0228 42.5378 65.1367 42.0137 65.1367C41.4577 65.1367 40.9723 65.0387 40.5576 64.8428C40.1475 64.6468 39.8057 64.3779 39.5322 64.0361C39.2633 63.6943 39.0605 63.3024 38.9238 62.8604C38.7917 62.4137 38.7256 61.9421 38.7256 61.4453V61.1582C38.7256 60.6615 38.7917 60.1921 38.9238 59.75C39.0605 59.3034 39.2633 58.9092 39.5322 58.5674C39.8057 58.2256 40.1475 57.9567 40.5576 57.7607C40.9723 57.5648 41.4577 57.4668 42.0137 57.4668C42.5924 57.4668 43.0983 57.5853 43.5312 57.8223C43.9642 58.0547 44.3037 58.3737 44.5498 58.7793C44.8005 59.1803 44.9372 59.6361 44.96 60.1465H43.7568C43.734 59.8411 43.6475 59.5654 43.4971 59.3193C43.3512 59.0732 43.1507 58.8773 42.8955 58.7314C42.6449 58.5811 42.3509 58.5059 42.0137 58.5059C41.6263 58.5059 41.3005 58.5833 41.0361 58.7383C40.7764 58.8887 40.569 59.0938 40.4141 59.3535C40.2637 59.6087 40.1543 59.8936 40.0859 60.208C40.0221 60.5179 39.9902 60.8346 39.9902 61.1582V61.4453C39.9902 61.7689 40.0221 62.0879 40.0859 62.4023C40.1497 62.7168 40.2568 63.0016 40.4072 63.2568C40.5622 63.512 40.7695 63.7171 41.0293 63.8721C41.2936 64.0225 41.6217 64.0977 42.0137 64.0977ZM47.6465 58.7656V65H46.3818V57.6035H47.6123L47.6465 58.7656ZM49.957 57.5625L49.9502 58.7383C49.8454 58.7155 49.7451 58.7018 49.6494 58.6973C49.5583 58.6882 49.4535 58.6836 49.335 58.6836C49.0433 58.6836 48.7858 58.7292 48.5625 58.8203C48.3392 58.9115 48.1501 59.0391 47.9951 59.2031C47.8402 59.3672 47.7171 59.5632 47.626 59.791C47.5394 60.0143 47.4824 60.2604 47.4551 60.5293L47.0996 60.7344C47.0996 60.2878 47.1429 59.8685 47.2295 59.4766C47.3206 59.0846 47.4596 58.7383 47.6465 58.4375C47.8333 58.1322 48.0703 57.8952 48.3574 57.7266C48.6491 57.5534 48.9954 57.4668 49.3965 57.4668C49.4876 57.4668 49.5924 57.4782 49.7109 57.501C49.8294 57.5192 49.9115 57.5397 49.957 57.5625ZM52.5 57.6035V65H51.2285V57.6035H52.5ZM51.1328 55.6416C51.1328 55.4365 51.1943 55.2633 51.3174 55.1221C51.445 54.9808 51.6318 54.9102 51.8779 54.9102C52.1195 54.9102 52.304 54.9808 52.4316 55.1221C52.5638 55.2633 52.6299 55.4365 52.6299 55.6416C52.6299 55.8376 52.5638 56.0062 52.4316 56.1475C52.304 56.2842 52.1195 56.3525 51.8779 56.3525C51.6318 56.3525 51.445 56.2842 51.3174 56.1475C51.1943 56.0062 51.1328 55.8376 51.1328 55.6416ZM55.7949 59.0254V67.8438H54.5234V57.6035H55.6855L55.7949 59.0254ZM60.7783 61.2402V61.3838C60.7783 61.9215 60.7145 62.4206 60.5869 62.8809C60.4593 63.3366 60.2725 63.7331 60.0264 64.0703C59.7848 64.4076 59.4863 64.6696 59.1309 64.8564C58.7754 65.0433 58.3675 65.1367 57.9072 65.1367C57.4378 65.1367 57.0231 65.0592 56.6631 64.9043C56.3031 64.7493 55.9977 64.5238 55.7471 64.2275C55.4964 63.9313 55.2959 63.5758 55.1455 63.1611C54.9997 62.7464 54.8994 62.2793 54.8447 61.7598V60.9941C54.8994 60.4473 55.002 59.9574 55.1523 59.5244C55.3027 59.0915 55.501 58.7223 55.7471 58.417C55.9977 58.1071 56.3008 57.8724 56.6562 57.7129C57.0117 57.5488 57.4219 57.4668 57.8867 57.4668C58.3516 57.4668 58.764 57.5579 59.124 57.7402C59.484 57.918 59.7871 58.1732 60.0332 58.5059C60.2793 58.8385 60.4639 59.2373 60.5869 59.7021C60.7145 60.1624 60.7783 60.6751 60.7783 61.2402ZM59.5068 61.3838V61.2402C59.5068 60.8711 59.4681 60.5247 59.3906 60.2012C59.3132 59.873 59.1924 59.5859 59.0283 59.3398C58.8688 59.0892 58.6637 58.8932 58.4131 58.752C58.1624 58.6061 57.8639 58.5332 57.5176 58.5332C57.1986 58.5332 56.9206 58.5879 56.6836 58.6973C56.4512 58.8066 56.2529 58.9548 56.0889 59.1416C55.9248 59.3239 55.7904 59.5335 55.6855 59.7705C55.5853 60.0029 55.5101 60.2445 55.46 60.4951V62.2656C55.5511 62.5846 55.6787 62.8854 55.8428 63.168C56.0068 63.446 56.2256 63.6715 56.499 63.8447C56.7725 64.0133 57.1165 64.0977 57.5312 64.0977C57.873 64.0977 58.167 64.027 58.4131 63.8857C58.6637 63.7399 58.8688 63.5417 59.0283 63.291C59.1924 63.0404 59.3132 62.7533 59.3906 62.4297C59.4681 62.1016 59.5068 61.7529 59.5068 61.3838ZM65.4883 57.6035V58.5742H61.4893V57.6035H65.4883ZM62.8428 55.8057H64.1074V63.168C64.1074 63.4186 64.1462 63.6077 64.2236 63.7354C64.3011 63.863 64.4014 63.9473 64.5244 63.9883C64.6475 64.0293 64.7796 64.0498 64.9209 64.0498C65.0257 64.0498 65.1351 64.0407 65.249 64.0225C65.3675 63.9997 65.4564 63.9814 65.5156 63.9678L65.5225 65C65.4222 65.0319 65.29 65.0615 65.126 65.0889C64.9665 65.1208 64.7728 65.1367 64.5449 65.1367C64.235 65.1367 63.9502 65.0752 63.6904 64.9521C63.4307 64.8291 63.2233 64.624 63.0684 64.3369C62.918 64.0452 62.8428 63.6533 62.8428 63.1611V55.8057Z" fill="white"/>
<defs>
<clipPath id="clip0_313_3">
<rect width="48" height="48" fill="white" transform="translate(10)"/>
</clipPath>
</defs>
</svg>
