<svg width="71" height="68" viewBox="0 0 71 68" fill="none" xmlns="http://www.w3.org/2000/svg">
<g clip-path="url(#clip0_313_17)">
<path d="M17.47 43.3799L11 5.02994L22.965 0.0649414L30.605 4.60494L37.605 0.829941L52.19 6.42994L44.01 47.9999L17.47 43.3799Z" fill="url(#paint0_linear_313_17)"/>
<path d="M59 16.255L52.805 0.955L41.565 0L24.215 16.67L28.885 38.155L37.605 44.27L59 31.575L53.75 21.73L59 16.255Z" fill="url(#paint1_linear_313_17)"/>
<path d="M49.385 13.9751L53.75 21.7301L59 16.2551L55.145 6.7251L49.385 13.9751Z" fill="url(#paint2_linear_313_17)"/>
<path d="M20 9H50V39H20V9Z" fill="black"/>
<path d="M23.74 33.33H34.99V35.205H23.74V33.33ZM34.39 12.735L32.715 19.3L30.8 12.735H28.895L26.975 19.3L25.305 12.735H22.68L25.895 23.99H28.005L29.845 17.475L31.665 23.99H33.8L37.01 12.735H34.39ZM37.48 22.43L38.945 20.63C39.8653 21.4798 41.0628 21.9667 42.315 22C43.315 22 43.945 21.6 43.945 20.935V20.905C43.945 20.5489 43.8204 20.2919 43.3717 20.0481L43.3001 20.0107L43.2232 19.9734C43.2099 19.9672 43.1964 19.961 43.1827 19.9548L43.0976 19.9176C43.0829 19.9114 43.068 19.9052 43.0529 19.899L42.9592 19.8617L42.8596 19.8243C42.8425 19.8181 42.8251 19.8118 42.8075 19.8055L42.6987 19.7678C42.6801 19.7615 42.6612 19.7552 42.642 19.7488L42.5236 19.7106L42.3987 19.6719C42.3773 19.6654 42.3557 19.6589 42.3337 19.6524L42.1987 19.613L42.0566 19.573L41.9075 19.5324L41.751 19.491L41.45 19.413L41.2354 19.3555L41.0953 19.3165L40.9577 19.2771L40.8226 19.237L40.69 19.1962L40.56 19.1546L40.4326 19.1121C40.4116 19.105 40.3907 19.0978 40.3699 19.0905L40.2465 19.0465L40.1259 19.0013L40.008 18.9548L39.8929 18.907C39.8739 18.8989 39.8551 18.8908 39.8364 18.8826L39.7255 18.8326L39.6176 18.781C38.5708 18.2657 37.9509 17.5067 37.9305 16.0925L37.93 15.985C37.93 13.9615 39.5405 12.6136 41.8074 12.5855L41.88 12.585C43.4016 12.5581 44.8844 13.0659 46.07 14.02L44.78 15.89C43.9371 15.2306 42.9133 14.8434 41.845 14.78C40.895 14.78 40.395 15.215 40.395 15.78V15.815C40.395 16.2654 40.5802 16.538 41.1616 16.7952L41.2474 16.8318C41.2769 16.844 41.3073 16.8562 41.3387 16.8683L41.4357 16.9049L41.5384 16.9415L41.6471 16.9784L41.7619 17.0155L41.8829 17.0531L42.0102 17.0913L42.2134 17.1496L42.3571 17.1895L42.5078 17.2303L42.83 17.315C42.8832 17.329 42.936 17.343 42.9881 17.3572L43.143 17.4002C43.1685 17.4075 43.1939 17.4148 43.2192 17.4221L43.3691 17.4664L43.5158 17.5117L43.659 17.558L43.7989 17.6054L43.9354 17.654C43.9579 17.6622 43.9802 17.6704 44.0024 17.6787L44.1338 17.7292C45.5819 18.3001 46.3861 19.1227 46.4095 20.6367L46.41 20.735C46.41 22.975 44.7 24.2351 42.265 24.2351C40.5023 24.242 38.7989 23.5994 37.48 22.43Z" fill="white"/>
</g>
<path d="M4.04297 62.7773L6.15967 55.3359H7.18506L6.5918 58.229L4.31396 66H3.2959L4.04297 62.7773ZM1.85303 55.3359L3.5376 62.6309L4.04297 66H3.03223L0.446777 55.3359H1.85303ZM9.92432 62.6235L11.5723 55.3359H12.9858L10.4077 66H9.39697L9.92432 62.6235ZM7.33887 55.3359L9.39697 62.7773L10.144 66H9.12598L6.92871 58.229L6.32812 55.3359H7.33887ZM17.4023 66.1465C16.8506 66.1465 16.3501 66.0537 15.9009 65.8682C15.4565 65.6777 15.0732 65.4116 14.751 65.0698C14.4336 64.728 14.1895 64.3228 14.0186 63.854C13.8477 63.3853 13.7622 62.8726 13.7622 62.3159V62.0083C13.7622 61.3638 13.8574 60.79 14.0479 60.2871C14.2383 59.7793 14.4971 59.3496 14.8242 58.998C15.1514 58.6465 15.5225 58.3804 15.9375 58.1997C16.3525 58.019 16.7822 57.9287 17.2266 57.9287C17.793 57.9287 18.2812 58.0264 18.6914 58.2217C19.1064 58.417 19.4458 58.6904 19.7095 59.042C19.9731 59.3887 20.1685 59.7988 20.2954 60.2725C20.4224 60.7412 20.4858 61.2539 20.4858 61.8105V62.4185H14.5679V61.3125H19.1309V61.21C19.1113 60.8584 19.0381 60.5166 18.9111 60.1846C18.7891 59.8525 18.5938 59.5791 18.3252 59.3643C18.0566 59.1494 17.6904 59.042 17.2266 59.042C16.9189 59.042 16.6357 59.1079 16.377 59.2397C16.1182 59.3667 15.896 59.5571 15.7104 59.811C15.5249 60.0649 15.3809 60.375 15.2783 60.7412C15.1758 61.1074 15.1245 61.5298 15.1245 62.0083V62.3159C15.1245 62.6919 15.1758 63.0459 15.2783 63.3779C15.3857 63.7051 15.5396 63.9932 15.7397 64.2422C15.9448 64.4912 16.1914 64.6865 16.4795 64.8281C16.7725 64.9697 17.1045 65.0405 17.4756 65.0405C17.9541 65.0405 18.3594 64.9429 18.6914 64.7476C19.0234 64.5522 19.314 64.291 19.563 63.9639L20.3833 64.6157C20.2124 64.8745 19.9951 65.1211 19.7314 65.3555C19.4678 65.5898 19.1431 65.7803 18.7573 65.9268C18.3765 66.0732 17.9248 66.1465 17.4023 66.1465ZM22.0605 54.75H23.4229V64.4619L23.3057 66H22.0605V54.75ZM28.7769 61.9717V62.1255C28.7769 62.7017 28.7085 63.2363 28.5718 63.7295C28.4351 64.2178 28.2349 64.6426 27.9712 65.0039C27.7075 65.3652 27.3853 65.646 27.0044 65.8462C26.6235 66.0464 26.1865 66.1465 25.6934 66.1465C25.1904 66.1465 24.7485 66.061 24.3677 65.8901C23.9917 65.7144 23.6743 65.4629 23.4155 65.1357C23.1567 64.8086 22.9492 64.4131 22.793 63.9492C22.6416 63.4854 22.5366 62.9629 22.478 62.3818V61.708C22.5366 61.1221 22.6416 60.5972 22.793 60.1333C22.9492 59.6694 23.1567 59.2739 23.4155 58.9468C23.6743 58.6147 23.9917 58.3633 24.3677 58.1924C24.7437 58.0166 25.1807 57.9287 25.6787 57.9287C26.1768 57.9287 26.6187 58.0264 27.0044 58.2217C27.3901 58.4121 27.7124 58.6855 27.9712 59.042C28.2349 59.3984 28.4351 59.8257 28.5718 60.3237C28.7085 60.8169 28.7769 61.3662 28.7769 61.9717ZM27.4146 62.1255V61.9717C27.4146 61.5762 27.3779 61.2051 27.3047 60.8584C27.2314 60.5068 27.1143 60.1992 26.9531 59.9355C26.792 59.667 26.5796 59.457 26.3159 59.3057C26.0522 59.1494 25.7275 59.0713 25.3418 59.0713C25 59.0713 24.7021 59.1299 24.4482 59.2471C24.1992 59.3643 23.9868 59.5229 23.811 59.7231C23.6353 59.9185 23.4912 60.1431 23.3789 60.397C23.2715 60.646 23.1909 60.9048 23.1372 61.1733V62.9385C23.2153 63.2803 23.3423 63.6099 23.5181 63.9272C23.6987 64.2397 23.938 64.4961 24.2358 64.6963C24.5386 64.8965 24.9121 64.9966 25.3564 64.9966C25.7227 64.9966 26.0352 64.9233 26.2939 64.7769C26.5576 64.6255 26.77 64.418 26.9312 64.1543C27.0972 63.8906 27.2192 63.5854 27.2974 63.2388C27.3755 62.8921 27.4146 62.521 27.4146 62.1255ZM36.3794 63.3047C36.3794 63.0557 36.3403 62.8359 36.2622 62.6455C36.189 62.4502 36.0571 62.2744 35.8667 62.1182C35.6812 61.9619 35.4224 61.813 35.0903 61.6714C34.7632 61.5298 34.3481 61.3857 33.8452 61.2393C33.3179 61.083 32.8418 60.9097 32.417 60.7192C31.9922 60.5239 31.6284 60.3018 31.3257 60.0527C31.0229 59.8037 30.791 59.5181 30.6299 59.1958C30.4688 58.8735 30.3882 58.5049 30.3882 58.0898C30.3882 57.6748 30.4736 57.2915 30.6445 56.9399C30.8154 56.5884 31.0596 56.2832 31.377 56.0244C31.6992 55.7607 32.0825 55.5557 32.5269 55.4092C32.9712 55.2627 33.4668 55.1895 34.0137 55.1895C34.8145 55.1895 35.4932 55.3433 36.0498 55.6509C36.6113 55.9536 37.0386 56.3516 37.3315 56.8447C37.6245 57.333 37.771 57.8555 37.771 58.4121H36.3647C36.3647 58.0117 36.2793 57.6577 36.1084 57.3501C35.9375 57.0376 35.6787 56.7935 35.332 56.6177C34.9854 56.437 34.5459 56.3467 34.0137 56.3467C33.5107 56.3467 33.0957 56.4224 32.7686 56.5737C32.4414 56.7251 32.1973 56.9302 32.0361 57.189C31.8799 57.4478 31.8018 57.7432 31.8018 58.0752C31.8018 58.2998 31.8481 58.5049 31.9409 58.6904C32.0386 58.8711 32.1875 59.0396 32.3877 59.1958C32.5928 59.3521 32.8516 59.4961 33.1641 59.6279C33.4814 59.7598 33.8599 59.8867 34.2993 60.0088C34.9048 60.1797 35.4272 60.3701 35.8667 60.5801C36.3062 60.79 36.6675 61.0269 36.9507 61.2905C37.2388 61.5493 37.4512 61.8447 37.5879 62.1768C37.7295 62.5039 37.8003 62.875 37.8003 63.29C37.8003 63.7246 37.7124 64.1177 37.5366 64.4692C37.3608 64.8208 37.1094 65.1211 36.7822 65.3701C36.4551 65.6191 36.062 65.812 35.603 65.9487C35.1489 66.0806 34.6411 66.1465 34.0796 66.1465C33.5864 66.1465 33.1006 66.0781 32.6221 65.9414C32.1484 65.8047 31.7163 65.5996 31.3257 65.3262C30.9399 65.0527 30.6299 64.7158 30.3955 64.3154C30.166 63.9102 30.0513 63.4414 30.0513 62.9092H31.4575C31.4575 63.2754 31.5283 63.5903 31.6699 63.854C31.8115 64.1128 32.0044 64.3276 32.2485 64.4985C32.4976 64.6694 32.7783 64.7964 33.0908 64.8794C33.4082 64.9575 33.7378 64.9966 34.0796 64.9966C34.5728 64.9966 34.9902 64.9282 35.332 64.7915C35.6738 64.6548 35.9326 64.4595 36.1084 64.2056C36.2891 63.9517 36.3794 63.6514 36.3794 63.3047ZM42.7148 58.0752V59.1152H38.4302V58.0752H42.7148ZM39.8804 56.1489H41.2354V64.0371C41.2354 64.3057 41.2769 64.5083 41.3599 64.645C41.4429 64.7817 41.5503 64.8721 41.6821 64.916C41.814 64.96 41.9556 64.9819 42.1069 64.9819C42.2192 64.9819 42.3364 64.9722 42.4585 64.9526C42.5854 64.9282 42.6807 64.9087 42.7441 64.894L42.7515 66C42.644 66.0342 42.5024 66.0659 42.3267 66.0952C42.1558 66.1294 41.9482 66.1465 41.7041 66.1465C41.3721 66.1465 41.0669 66.0806 40.7886 65.9487C40.5103 65.8169 40.2881 65.5972 40.1221 65.2896C39.9609 64.9771 39.8804 64.5571 39.8804 64.0298V56.1489ZM43.7988 62.1255V61.957C43.7988 61.3857 43.8818 60.856 44.0479 60.3677C44.2139 59.8745 44.4531 59.4473 44.7656 59.0859C45.0781 58.7197 45.4565 58.4365 45.9009 58.2363C46.3452 58.0312 46.8433 57.9287 47.395 57.9287C47.9517 57.9287 48.4521 58.0312 48.8965 58.2363C49.3457 58.4365 49.7266 58.7197 50.0391 59.0859C50.3564 59.4473 50.5981 59.8745 50.7642 60.3677C50.9302 60.856 51.0132 61.3857 51.0132 61.957V62.1255C51.0132 62.6968 50.9302 63.2266 50.7642 63.7148C50.5981 64.2031 50.3564 64.6304 50.0391 64.9966C49.7266 65.3579 49.3481 65.6411 48.9038 65.8462C48.4644 66.0464 47.9663 66.1465 47.4097 66.1465C46.853 66.1465 46.3525 66.0464 45.9082 65.8462C45.4639 65.6411 45.083 65.3579 44.7656 64.9966C44.4531 64.6304 44.2139 64.2031 44.0479 63.7148C43.8818 63.2266 43.7988 62.6968 43.7988 62.1255ZM45.1538 61.957V62.1255C45.1538 62.521 45.2002 62.8945 45.293 63.2461C45.3857 63.5928 45.5249 63.9004 45.7104 64.1689C45.9009 64.4375 46.1377 64.6499 46.4209 64.8062C46.7041 64.9575 47.0337 65.0332 47.4097 65.0332C47.7808 65.0332 48.1055 64.9575 48.3838 64.8062C48.667 64.6499 48.9014 64.4375 49.0869 64.1689C49.2725 63.9004 49.4116 63.5928 49.5044 63.2461C49.6021 62.8945 49.6509 62.521 49.6509 62.1255V61.957C49.6509 61.5664 49.6021 61.1978 49.5044 60.8511C49.4116 60.4995 49.27 60.1895 49.0796 59.9209C48.894 59.6475 48.6597 59.4326 48.3765 59.2764C48.0981 59.1201 47.771 59.042 47.395 59.042C47.0239 59.042 46.6968 59.1201 46.4136 59.2764C46.1353 59.4326 45.9009 59.6475 45.7104 59.9209C45.5249 60.1895 45.3857 60.4995 45.293 60.8511C45.2002 61.1978 45.1538 61.5664 45.1538 61.957ZM54.0674 59.3203V66H52.7124V58.0752H54.0308L54.0674 59.3203ZM56.543 58.0312L56.5356 59.291C56.4233 59.2666 56.3159 59.252 56.2134 59.2471C56.1157 59.2373 56.0034 59.2324 55.8765 59.2324C55.564 59.2324 55.2881 59.2812 55.0488 59.3789C54.8096 59.4766 54.6069 59.6133 54.4409 59.7891C54.2749 59.9648 54.1431 60.1748 54.0454 60.4189C53.9526 60.6582 53.8916 60.9219 53.8623 61.21L53.4814 61.4297C53.4814 60.9512 53.5278 60.502 53.6206 60.082C53.7183 59.6621 53.8672 59.291 54.0674 58.9688C54.2676 58.6416 54.5215 58.3877 54.8291 58.207C55.1416 58.0215 55.5127 57.9287 55.9424 57.9287C56.04 57.9287 56.1523 57.9409 56.2793 57.9653C56.4062 57.9849 56.4941 58.0068 56.543 58.0312ZM59.1431 59.6499V66H57.7808V58.0752H59.0698L59.1431 59.6499ZM58.8647 61.7373L58.2349 61.7153C58.2397 61.1733 58.3105 60.6729 58.4473 60.2139C58.584 59.75 58.7866 59.3472 59.0552 59.0054C59.3237 58.6636 59.6582 58.3999 60.0586 58.2144C60.459 58.0239 60.9229 57.9287 61.4502 57.9287C61.8213 57.9287 62.1631 57.9824 62.4756 58.0898C62.7881 58.1924 63.0591 58.356 63.2886 58.5806C63.5181 58.8052 63.6963 59.0933 63.8232 59.4448C63.9502 59.7964 64.0137 60.2212 64.0137 60.7192V66H62.6587V60.7852C62.6587 60.3701 62.5879 60.0381 62.4463 59.7891C62.3096 59.54 62.1143 59.3594 61.8604 59.2471C61.6064 59.1299 61.3086 59.0713 60.9668 59.0713C60.5664 59.0713 60.2319 59.1421 59.9634 59.2837C59.6948 59.4253 59.48 59.6206 59.3188 59.8696C59.1577 60.1187 59.0405 60.4043 58.9673 60.7266C58.8989 61.0439 58.8647 61.3809 58.8647 61.7373ZM63.999 60.9902L63.0908 61.2686C63.0957 60.834 63.1665 60.4165 63.3032 60.0161C63.4448 59.6157 63.6475 59.2593 63.9111 58.9468C64.1797 58.6343 64.5093 58.3877 64.8999 58.207C65.2905 58.0215 65.7373 57.9287 66.2402 57.9287C66.665 57.9287 67.041 57.9849 67.3682 58.0972C67.7002 58.2095 67.9785 58.3828 68.2031 58.6172C68.4326 58.8467 68.606 59.1421 68.7231 59.5034C68.8403 59.8647 68.8989 60.2944 68.8989 60.7925V66H67.5366V60.7778C67.5366 60.3335 67.4658 59.9893 67.3242 59.7451C67.1875 59.4961 66.9922 59.3228 66.7383 59.2251C66.4893 59.1226 66.1914 59.0713 65.8447 59.0713C65.5469 59.0713 65.2832 59.1226 65.0537 59.2251C64.8242 59.3276 64.6313 59.4692 64.4751 59.6499C64.3188 59.8257 64.1992 60.0283 64.1162 60.2578C64.0381 60.4873 63.999 60.7314 63.999 60.9902Z" fill="white"/>
<defs>
<linearGradient id="paint0_linear_313_17" x1="1819.08" y1="93.5649" x2="3037.81" y2="4481.78" gradientUnits="userSpaceOnUse">
<stop offset="0.28" stop-color="#07C3F2"/>
<stop offset="0.94" stop-color="#087CFA"/>
</linearGradient>
<linearGradient id="paint1_linear_313_17" x1="1174.31" y1="667.5" x2="3020.57" y2="3374.73" gradientUnits="userSpaceOnUse">
<stop offset="0.14" stop-color="#FCF84A"/>
<stop offset="0.37" stop-color="#07C3F2"/>
</linearGradient>
<linearGradient id="paint2_linear_313_17" x1="476.448" y1="382.725" x2="740.437" y2="1317.69" gradientUnits="userSpaceOnUse">
<stop offset="0.28" stop-color="#07C3F2"/>
<stop offset="0.94" stop-color="#087CFA"/>
</linearGradient>
<clipPath id="clip0_313_17">
<rect width="48" height="48" fill="white" transform="translate(11)"/>
</clipPath>
</defs>
</svg>
