<svg width="79" height="79" viewBox="0 0 79 79" fill="none" xmlns="http://www.w3.org/2000/svg">
<path fill-rule="evenodd" clip-rule="evenodd" d="M60.1229 2.83039L63.826 6.53352C64.0575 6.765 64.1875 7.07891 64.1875 7.40622C64.1875 7.73353 64.0575 8.04744 63.826 8.27892L60.1229 11.982C60.0091 12.0999 59.8728 12.194 59.7222 12.2587C59.5717 12.3234 59.4097 12.3574 59.2458 12.3588C59.0819 12.3603 58.9193 12.329 58.7676 12.267C58.6159 12.2049 58.4781 12.1132 58.3622 11.9973C58.2463 11.8814 58.1547 11.7436 58.0926 11.5919C58.0305 11.4402 57.9993 11.2777 58.0007 11.1138C58.0021 10.9499 58.0362 10.7879 58.1009 10.6373C58.1656 10.4867 58.2596 10.3505 58.3775 10.2366L59.9736 8.64059H9.15188L10.7479 10.2366C10.9728 10.4694 11.0972 10.7813 11.0944 11.1049C11.0916 11.4285 10.9618 11.7381 10.7329 11.967C10.504 12.1959 10.1944 12.3257 9.87078 12.3285C9.54713 12.3313 9.23533 12.2069 9.00252 11.982L5.2994 8.27892C5.06799 8.04744 4.93799 7.73353 4.93799 7.40622C4.93799 7.07891 5.06799 6.765 5.2994 6.53352L9.00252 2.83039C9.23533 2.60554 9.54713 2.48112 9.87078 2.48393C10.1944 2.48675 10.504 2.61656 10.7329 2.84543C10.9618 3.07429 11.0916 3.38389 11.0944 3.70754C11.0972 4.03118 10.9728 4.34299 10.7479 4.5758L9.15188 6.17184H59.9736L58.3775 4.5758C58.1527 4.34299 58.0282 4.03118 58.0311 3.70754C58.0339 3.38389 58.1637 3.07429 58.3926 2.84543C58.6214 2.61656 58.931 2.48675 59.2547 2.48393C59.5783 2.48112 59.8901 2.60554 60.1229 2.83039ZM72.8281 69.8481L74.4241 68.252C74.6569 68.0272 74.9688 67.9028 75.2924 67.9056C75.6161 67.9084 75.9257 68.0382 76.1545 68.2671C76.3834 68.4959 76.5132 68.8055 76.516 69.1292C76.5188 69.4528 76.3944 69.7646 76.1695 69.9974L72.4664 73.7006C72.2349 73.932 71.921 74.062 71.5937 74.062C71.2664 74.062 70.9525 73.932 70.721 73.7006L67.0179 69.9974C66.793 69.7646 66.6686 69.4528 66.6714 69.1292C66.6742 68.8055 66.8041 68.4959 67.0329 68.2671C67.2618 68.0382 67.5714 67.9084 67.895 67.9056C68.2187 67.9028 68.5305 68.0272 68.7633 68.252L70.3593 69.8481V19.0264L68.7633 20.6224C68.5305 20.8473 68.2187 20.9717 67.895 20.9689C67.5714 20.9661 67.2618 20.8363 67.0329 20.6074C66.8041 20.3785 66.6742 20.0689 66.6714 19.7453C66.6686 19.4216 66.793 19.1098 67.0179 18.877L70.721 15.1739C70.9525 14.9425 71.2664 14.8125 71.5937 14.8125C71.921 14.8125 72.2349 14.9425 72.4664 15.1739L76.1695 18.877C76.3944 19.1098 76.5188 19.4216 76.516 19.7453C76.5132 20.0689 76.3834 20.3785 76.1545 20.6074C75.9257 20.8363 75.6161 20.9661 75.2924 20.9689C74.9688 20.9717 74.6569 20.8473 74.4241 20.6224L72.8281 19.0264V69.8481ZM4.9375 22.2188H61.7188V16.0469C61.7188 15.7195 61.5887 15.4055 61.3572 15.174C61.1257 14.9425 60.8118 14.8125 60.4844 14.8125H6.17188C5.8445 14.8125 5.53053 14.9425 5.29904 15.174C5.06755 15.4055 4.9375 15.7195 4.9375 16.0469V22.2188ZM27.1562 17.2812H58.0156C58.343 17.2812 58.657 17.4113 58.8885 17.6428C59.1199 17.8743 59.25 18.1882 59.25 18.5156C59.25 18.843 59.1199 19.157 58.8885 19.3885C58.657 19.6199 58.343 19.75 58.0156 19.75H27.1562C26.8289 19.75 26.5149 19.6199 26.2834 19.3885C26.0519 19.157 25.9219 18.843 25.9219 18.5156C25.9219 18.1882 26.0519 17.8743 26.2834 17.6428C26.5149 17.4113 26.8289 17.2812 27.1562 17.2812ZM18.5156 17.2812H19.75C20.0774 17.2812 20.3913 17.4113 20.6228 17.6428C20.8543 17.8743 20.9844 18.1882 20.9844 18.5156C20.9844 18.843 20.8543 19.157 20.6228 19.3885C20.3913 19.6199 20.0774 19.75 19.75 19.75H18.5156C18.1882 19.75 17.8743 19.6199 17.6428 19.3885C17.4113 19.157 17.2812 18.843 17.2812 18.5156C17.2812 18.1882 17.4113 17.8743 17.6428 17.6428C17.8743 17.4113 18.1882 17.2812 18.5156 17.2812ZM13.5781 17.2812H14.8125C15.1399 17.2812 15.4538 17.4113 15.6853 17.6428C15.9168 17.8743 16.0469 18.1882 16.0469 18.5156C16.0469 18.843 15.9168 19.157 15.6853 19.3885C15.4538 19.6199 15.1399 19.75 14.8125 19.75H13.5781C13.2507 19.75 12.9368 19.6199 12.7053 19.3885C12.4738 19.157 12.3438 18.843 12.3438 18.5156C12.3438 18.1882 12.4738 17.8743 12.7053 17.6428C12.9368 17.4113 13.2507 17.2812 13.5781 17.2812ZM8.64062 17.2812H9.875C10.2024 17.2812 10.5163 17.4113 10.7478 17.6428C10.9793 17.8743 11.1094 18.1882 11.1094 18.5156C11.1094 18.843 10.9793 19.157 10.7478 19.3885C10.5163 19.6199 10.2024 19.75 9.875 19.75H8.64062C8.31325 19.75 7.99928 19.6199 7.76779 19.3885C7.5363 19.157 7.40625 18.843 7.40625 18.5156C7.40625 18.1882 7.5363 17.8743 7.76779 17.6428C7.99928 17.4113 8.31325 17.2812 8.64062 17.2812ZM22.2188 56.7812V44.4375H9.875V56.7812H22.2188ZM9.875 29.625H56.7812V37.0312H9.875V29.625ZM60.4844 74.0625H6.17188C5.8445 74.0625 5.53053 73.9324 5.29904 73.701C5.06755 73.4695 4.9375 73.1555 4.9375 72.8281V24.6875H61.7188V72.8281C61.7188 73.1555 61.5887 73.4695 61.3572 73.701C61.1257 73.9324 60.8118 74.0625 60.4844 74.0625ZM58.8885 71.2322C59.1199 71.0007 59.25 70.6868 59.25 70.3594V43.2031C59.25 42.8757 59.1199 42.5618 58.8885 42.3303C58.657 42.0988 58.343 41.9688 58.0156 41.9688H28.3906C28.0632 41.9688 27.7493 42.0988 27.5178 42.3303C27.2863 42.5618 27.1562 42.8757 27.1562 43.2031V70.3594C27.1562 70.6868 27.2863 71.0007 27.5178 71.2322C27.7493 71.4637 28.0632 71.5938 28.3906 71.5938H58.0156C58.343 71.5938 58.657 71.4637 58.8885 71.2322ZM7.76779 27.5178C7.5363 27.7493 7.40625 28.0632 7.40625 28.3906V38.2656C7.40625 38.593 7.5363 38.907 7.76779 39.1385C7.99928 39.3699 8.31325 39.5 8.64062 39.5H58.0156C58.343 39.5 58.657 39.3699 58.8885 39.1385C59.1199 38.907 59.25 38.593 59.25 38.2656V28.3906C59.25 28.0632 59.1199 27.7493 58.8885 27.5178C58.657 27.2863 58.343 27.1562 58.0156 27.1562H8.64062C8.31325 27.1562 7.99928 27.2863 7.76779 27.5178ZM7.76779 42.3303C7.5363 42.5618 7.40625 42.8757 7.40625 43.2031V58.0156C7.40625 58.343 7.5363 58.657 7.76779 58.8885C7.99928 59.1199 8.31325 59.25 8.64062 59.25H23.4531C23.7805 59.25 24.0945 59.1199 24.326 58.8885C24.5575 58.657 24.6875 58.343 24.6875 58.0156V43.2031C24.6875 42.8757 24.5575 42.5618 24.326 42.3303C24.0945 42.0988 23.7805 41.9688 23.4531 41.9688H8.64062C8.31325 41.9688 7.99928 42.0988 7.76779 42.3303ZM7.76779 62.0803C7.5363 62.3118 7.40625 62.6257 7.40625 62.9531V70.3594C7.40625 70.6868 7.5363 71.0007 7.76779 71.2322C7.99928 71.4637 8.31325 71.5938 8.64062 71.5938H23.4531C23.7805 71.5938 24.0945 71.4637 24.326 71.2322C24.5575 71.0007 24.6875 70.6868 24.6875 70.3594V62.9531C24.6875 62.6257 24.5575 62.3118 24.326 62.0803C24.0945 61.8488 23.7805 61.7188 23.4531 61.7188H8.64062C8.31325 61.7188 7.99928 61.8488 7.76779 62.0803ZM22.2188 64.1875V69.125H9.875V64.1875H22.2188ZM56.7812 44.4375H29.625V69.125H56.7812V44.4375Z" fill="url(#paint0_linear_5_2376)"/>
<defs>
<linearGradient id="paint0_linear_5_2376" x1="40.7268" y1="2.48389" x2="40.7268" y2="74.0625" gradientUnits="userSpaceOnUse">
<stop stop-color="#F96B26"/>
<stop offset="1" stop-color="#F9B740"/>
</linearGradient>
</defs>
</svg>
