<svg width="78" height="78" viewBox="0 0 78 78" fill="none" xmlns="http://www.w3.org/2000/svg">
<path fill-rule="evenodd" clip-rule="evenodd" d="M66.0441 27.7753V27.8606C66.4929 28.9807 67.2641 29.9423 68.26 30.6236C69.2558 31.3048 70.4316 31.6751 71.6381 31.6875H74.3438V46.3125H71.6381C70.4281 46.3234 69.2487 46.6944 68.2503 47.3781C67.2518 48.0618 66.4796 49.0273 66.0319 50.1516V50.2369C65.5496 51.3454 65.408 52.5724 65.625 53.7617C65.842 54.951 66.4079 56.0488 67.2506 56.9156L69.1641 58.8291L58.8169 69.1762L56.9034 67.2628C56.0367 66.4201 54.9388 65.8542 53.7495 65.6372C52.5602 65.4202 51.3333 65.5618 50.2247 66.0441H50.1394C49.0193 66.4929 48.0577 67.2641 47.3764 68.26C46.6952 69.2558 46.3249 70.4316 46.3125 71.6381V74.3438H31.6875V73.125H13.4062V70.6875H31.6022C31.4317 69.6569 30.9992 68.6874 30.3461 67.8722C29.693 67.0569 28.8414 66.4232 27.8728 66.0319H27.7875C26.6789 65.5496 25.452 65.408 24.2627 65.625C23.0734 65.842 21.9755 66.4079 21.1087 67.2506L19.1953 69.1641L18.2812 68.25H10.9688V65.8125H15.8438L13.4062 63.375H8.53125V60.9375H10.9688L8.83594 58.8169L10.7372 56.9034C11.5799 56.0367 12.1458 54.9388 12.3628 53.7495C12.5798 52.5602 12.4382 51.3333 11.9559 50.2247V50.1394C11.5071 49.0193 10.7359 48.0577 9.74004 47.3764C8.74416 46.6952 7.56843 46.3249 6.36187 46.3125H3.65625V31.6875H6.36187C7.57052 31.6775 8.74889 31.3084 9.74717 30.6269C10.7455 29.9455 11.5185 28.9826 11.9681 27.8606V27.7753C12.4504 26.6667 12.592 25.4398 12.375 24.2505C12.158 23.0612 11.5921 21.9633 10.7494 21.0966L8.83594 19.1831L19.1831 8.83594L21.0966 10.7372C21.9633 11.5799 23.0612 12.1458 24.2505 12.3628C25.4398 12.5798 26.6667 12.4382 27.7753 11.9559H27.8606C28.9807 11.5071 29.9423 10.7359 30.6236 9.74004C31.3048 8.74416 31.6751 7.56843 31.6875 6.36187V3.65625H46.3125V4.875H64.5938V7.3125H46.3978C46.5694 8.34441 47.0038 9.31476 47.6591 10.1302C48.3144 10.9455 49.1686 11.5785 50.1394 11.9681H50.2247C51.3333 12.4504 52.5602 12.592 53.7495 12.375C54.9388 12.158 56.0367 11.5921 56.9034 10.7494L58.8047 8.83594L59.7188 9.75H67.0312V12.1875H62.1562L64.5938 14.625H69.4688V17.0625H67.0312L69.1762 19.1831L67.2628 21.0966C66.4201 21.9633 65.8542 23.0612 65.6372 24.2505C65.4202 25.4398 65.5618 26.6667 66.0441 27.7753ZM26.8122 57.2404C30.4198 59.6509 34.6612 60.9375 39 60.9375C44.8182 60.9375 50.3981 58.6262 54.5122 54.5122C58.6262 50.3981 60.9375 44.8182 60.9375 39C60.9375 34.6612 59.6509 30.4198 57.2404 26.8122C54.8298 23.2046 51.4037 20.3928 47.3951 18.7324C43.3866 17.072 38.9757 16.6376 34.7202 17.484C30.4647 18.3305 26.5559 20.4198 23.4878 23.4878C20.4198 26.5559 18.3305 30.4647 17.484 34.7202C16.6376 38.9757 17.072 43.3866 18.7324 47.3951C20.3928 51.4037 23.2046 54.8298 26.8122 57.2404ZM52.8053 25.2138C56.1717 28.569 58.1968 33.0381 58.5 37.7813H53.625V40.2188H58.5C58.2111 44.9729 56.1923 49.4568 52.8245 52.8246C49.4567 56.1924 44.9728 58.2112 40.2188 58.5001V53.6251H37.7813V58.5001C33.038 58.1969 28.5689 56.1718 25.2137 52.8054C21.8585 49.439 19.8483 44.963 19.5609 40.2188H24.375V37.7813H19.5609C19.8626 33.048 21.8791 28.5868 25.2329 25.233C28.5867 21.8792 33.0479 19.8627 37.7813 19.561V24.3751H40.2188V19.561C44.963 19.8484 49.4389 21.8586 52.8053 25.2138ZM36.8951 41.9825C37.5105 42.4188 38.2457 42.6542 39 42.6563C39.8574 42.6497 40.6853 42.3419 41.3388 41.7868C41.9923 41.2316 42.4299 40.4644 42.5751 39.6194C42.7203 38.7743 42.5639 37.905 42.1331 37.1636C41.7024 36.4222 41.0248 35.8557 40.2188 35.5632V26.8126H37.7813V35.5632C37.2701 35.7452 36.8059 36.0387 36.4222 36.4223C36.0386 36.806 35.7451 37.2702 35.5631 37.7813H26.8125V40.2188H35.5631C35.8146 40.93 36.2798 41.5461 36.8951 41.9825ZM3.65625 60.9375H6.09375V63.375H3.65625V60.9375ZM8.53125 65.8125H6.09375V68.25H8.53125V65.8125ZM8.53125 70.6875H10.9688V73.125H8.53125V70.6875ZM74.3438 14.625H71.9062V17.0625H74.3438V14.625ZM69.4688 9.75H71.9062V12.1875H69.4688V9.75ZM69.4688 4.875H67.0312V7.3125H69.4688V4.875Z" fill="url(#paint0_linear_5_2365)"/>
<defs>
<linearGradient id="paint0_linear_5_2365" x1="39" y1="3.65625" x2="39" y2="74.3438" gradientUnits="userSpaceOnUse">
<stop stop-color="#F96B26"/>
<stop offset="1" stop-color="#F9B740"/>
</linearGradient>
</defs>
</svg>
