<svg width="77" height="77" viewBox="0 0 77 77" fill="none" xmlns="http://www.w3.org/2000/svg">
<g clip-path="url(#clip0_5_2387)">
<path fill-rule="evenodd" clip-rule="evenodd" d="M65.253 38.0247H74.7441C75.9894 38.0247 77 37.0156 77 35.7689C77 34.5236 75.9894 33.513 74.7441 33.513H66.1493C67.2306 26.6973 66.7283 22.0878 66.6997 21.8397C66.5975 20.9479 65.9764 20.2019 65.1191 19.9403C61.6917 18.8905 58.705 17.8258 56.1062 16.7821V11.2056H63.8528C64.7838 13.8314 67.2923 15.7173 70.2324 15.7173C73.9636 15.7173 77 12.6809 77 8.94971C77 5.21701 73.9636 2.18213 70.2324 2.18213C67.2923 2.18213 64.7838 4.06803 63.8528 6.69385H53.8504C52.6036 6.69385 51.5945 7.70297 51.5945 8.94971V14.8195C43.2328 10.8717 40.4611 7.63379 40.2942 7.43226C39.3929 6.19229 37.6079 6.19124 36.7058 7.43226C36.5389 7.63379 33.7672 10.8717 25.4055 14.8195V8.94971C25.4055 7.70297 24.3964 6.69385 23.1496 6.69385H13.1471C12.2162 4.06803 9.70772 2.18213 6.76758 2.18213C3.03639 2.18213 0 5.21701 0 8.94971C0 12.6809 3.03639 15.7173 6.76758 15.7173C9.70772 15.7173 12.2162 13.8314 13.1471 11.2056H20.8938V16.7821C18.295 17.8258 15.3083 18.8905 11.8809 19.9403C11.0236 20.2019 10.4025 20.9479 10.3003 21.8397C10.2717 22.0878 9.76937 26.6973 10.8507 33.513H2.25586C1.01063 33.513 0 34.5236 0 35.7689C0 37.0156 1.01063 38.0247 2.25586 38.0247H11.747C12.2398 40.0771 12.8158 42.0498 13.5833 44.1983H7.38568C6.14045 44.1983 5.12982 45.2074 5.12982 46.4541C5.12982 47.6994 6.14045 48.71 7.38568 48.71H15.403C17.3606 53.0385 19.743 56.9509 22.5631 60.6014H13.1471C12.2162 57.9755 9.70772 56.0896 6.76758 56.0896C3.03639 56.0896 0 59.126 0 62.8572C0 66.5884 3.03639 69.6248 6.76758 69.6248C9.70772 69.6248 12.2162 67.7389 13.1471 65.1131H26.4101C29.5879 68.5014 33.1957 71.613 37.2096 74.4117C37.9858 74.9531 39.0143 74.9531 39.7903 74.4117C43.8043 71.613 47.4122 68.5014 50.5899 65.1131H63.8528C64.7838 67.7389 67.2923 69.6248 70.2324 69.6248C73.9636 69.6248 77 66.5884 77 62.8572C77 59.126 73.9636 56.0896 70.2324 56.0896C67.2923 56.0896 64.7838 57.9755 63.8528 60.6014H54.4369C57.2503 56.9597 59.6348 53.0485 61.597 48.71H69.6143C70.8596 48.71 71.8702 47.6994 71.8702 46.4541C71.8702 45.2074 70.8596 44.1983 69.6143 44.1983H63.4167C64.1833 42.0523 64.7594 40.0797 65.253 38.0247ZM50.9132 49.5807C50.9132 51.8486 49.0695 53.6924 46.8016 53.6924H30.1984C27.9305 53.6924 26.0868 51.8486 26.0868 49.5807V36.6622C26.0868 34.8695 27.2388 33.3431 28.8419 32.7806V31.3128C28.8419 25.9875 33.1747 21.6547 38.5 21.6547C43.8253 21.6547 48.1581 25.9875 48.1581 31.3128V32.7806C49.7612 33.3431 50.9132 34.8695 50.9132 36.6622V49.5807ZM30.5984 37.062V49.1805H46.4015V37.062H30.5984ZM40.7558 43.9168C40.7558 45.1636 39.7452 46.1727 38.5 46.1727C37.2547 46.1727 36.2441 45.1636 36.2441 43.9168V42.3257C36.2441 41.0789 37.2547 40.0698 38.5 40.0698C39.7452 40.0698 40.7558 41.0789 40.7558 42.3257V43.9168ZM43.6464 32.5506V31.3129C43.6464 28.475 41.3379 26.1665 38.5 26.1665C35.6621 26.1665 33.3536 28.475 33.3536 31.3129V32.5506H43.6464Z" fill="url(#paint0_linear_5_2387)"/>
</g>
<defs>
<linearGradient id="paint0_linear_5_2387" x1="38.5" y1="2.18213" x2="38.5" y2="74.8178" gradientUnits="userSpaceOnUse">
<stop stop-color="#F96B26"/>
<stop offset="1" stop-color="#F9B740"/>
</linearGradient>
<clipPath id="clip0_5_2387">
<rect width="77" height="77" fill="white"/>
</clipPath>
</defs>
</svg>
