<svg width="78" height="78" viewBox="0 0 78 78" fill="none" xmlns="http://www.w3.org/2000/svg">
<g clip-path="url(#clip0_5_2363)">
<path fill-rule="evenodd" clip-rule="evenodd" d="M50.1347 3.32764L62.5863 15.6477H51.1624C50.8899 15.6474 50.6286 15.539 50.4359 15.3463C50.2432 15.1536 50.1349 14.8923 50.1347 14.6198V3.32764ZM28.0101 75.3483C28.0099 75.5118 27.9449 75.6685 27.8293 75.7842C27.7138 75.8998 27.557 75.9649 27.3935 75.9651H0.616535C0.453041 75.9649 0.296318 75.8998 0.180739 75.7842C0.0651594 75.6685 0.000161177 75.5118 0 75.3483L0 36.485C0.000161177 36.3215 0.0651594 36.1647 0.180739 36.0491C0.296318 35.9334 0.453041 35.8684 0.616535 35.8681H27.3935C27.557 35.8684 27.7138 35.9334 27.8293 36.0491C27.9449 36.1647 28.0099 36.3215 28.0101 36.485V75.3478V75.3483ZM29.9278 66.3372H31.0314C30.8243 65.4247 30.887 64.4717 31.2117 63.5942C31.5365 62.7167 32.1093 61.9525 32.8605 61.3947C32.045 60.7879 31.4414 59.9396 31.1356 58.9702C30.8298 58.0008 30.8373 56.9596 31.157 55.9947C31.4767 55.0298 32.0925 54.1903 32.9166 53.5953C33.7408 53.0004 34.7316 52.6803 35.7481 52.6806H51.4852C52.7339 50.4868 54.5082 48.6378 56.6487 47.2998C58.7892 45.9618 61.2287 45.1768 63.7478 45.0154V17.5654H51.1627C50.3817 17.5646 49.6329 17.254 49.0806 16.7018C48.5283 16.1496 48.2176 15.4008 48.2168 14.6198V11.7966H22.8452C22.5967 11.7877 22.3614 11.6828 22.1887 11.5039C22.0161 11.325 21.9196 11.0861 21.9196 10.8374C21.9196 10.5888 22.0161 10.3499 22.1887 10.171C22.3614 9.99206 22.5967 9.88713 22.8452 9.87827H48.2168V2.03516H15.079C14.8066 2.0354 14.5455 2.14367 14.3528 2.33623C14.1602 2.52878 14.0518 2.78989 14.0514 3.06226V33.9506H27.3935C28.0655 33.9512 28.7097 34.2185 29.1848 34.6936C29.6599 35.1688 29.9271 35.813 29.9278 36.485V37.0663H54.9536C55.2025 37.0746 55.4384 37.1793 55.6115 37.3583C55.7846 37.5373 55.8814 37.7765 55.8814 38.0255C55.8814 38.2745 55.7846 38.5138 55.6115 38.6928C55.4384 38.8718 55.2025 38.9765 54.9536 38.9848H29.9278V46.1297H54.9536C55.2079 46.1297 55.4518 46.2307 55.6316 46.4105C55.8114 46.5903 55.9124 46.8342 55.9124 47.0885C55.9124 47.3428 55.8114 47.5867 55.6316 47.7665C55.4518 47.9464 55.2079 48.0474 54.9536 48.0474H29.9278V66.3372ZM49.495 60.1953C49.495 60.2753 49.4966 60.3551 49.4982 60.4351H35.7481C34.9741 60.4351 34.2318 60.1276 33.6845 59.5803C33.1372 59.033 32.8298 58.2908 32.8298 57.5168C32.8298 56.7428 33.1372 56.0005 33.6845 55.4532C34.2318 54.9059 34.9741 54.5985 35.7481 54.5985H50.5618C49.8553 56.3798 49.4934 58.279 49.4954 60.1953H49.495ZM32.8301 65.2717C32.831 64.4979 33.1387 63.7562 33.6859 63.2091C34.233 62.662 34.9748 62.3542 35.7485 62.3534H49.6488C49.9445 64.4248 50.6671 66.4123 51.7708 68.19H35.7481C34.9744 68.189 34.2327 67.8812 33.6857 67.3341C33.1387 66.787 32.831 66.0453 32.8301 65.2717ZM58.151 75.9449H35.7481C34.9776 75.9393 34.2407 75.6294 33.6978 75.0826C33.155 74.5359 32.8504 73.7966 32.8504 73.0262C32.8504 72.2558 33.155 71.5166 33.6978 70.9698C34.2407 70.423 34.9776 70.1131 35.7481 70.1075H53.1777C55.1 72.3439 57.6294 73.975 60.4598 74.8032C60.1871 75.1567 59.8374 75.4432 59.4372 75.641C59.0371 75.8389 58.5971 75.9428 58.1507 75.9449H58.151ZM64.7069 73.4888C62.0777 73.4889 59.5075 72.7093 57.3213 71.2486C55.1352 69.788 53.4312 67.7119 52.425 65.2828C51.4188 62.8537 51.1555 60.1808 51.6683 57.6021C52.1812 55.0234 53.4473 52.6547 55.3064 50.7955C57.1655 48.9363 59.5342 47.6702 62.1129 47.1572C64.6916 46.6443 67.3645 46.9075 69.7936 47.9136C72.2227 48.9198 74.2989 50.6236 75.7596 52.8097C77.2203 54.9959 78 57.5661 78 60.1953C77.996 63.7197 76.5942 67.0987 74.1021 69.5908C71.6099 72.083 68.2309 73.4848 64.7065 73.4888H64.7069ZM68.124 56.1541C68.124 54.7545 67.0843 53.5721 65.6653 53.1974V59.3188C68.1511 59.7434 70.0422 61.7868 70.0422 64.237C70.0422 66.6871 68.1511 68.7297 65.6653 69.1549V70.7536C65.6669 70.8806 65.6433 71.0066 65.5958 71.1243C65.5484 71.2421 65.478 71.3492 65.3888 71.4395C65.2996 71.5299 65.1933 71.6016 65.0762 71.6505C64.9591 71.6995 64.8334 71.7247 64.7064 71.7247C64.5795 71.7247 64.4538 71.6995 64.3366 71.6505C64.2195 71.6016 64.1132 71.5299 64.024 71.4395C63.9348 71.3492 63.8644 71.2421 63.817 71.1243C63.7695 71.0066 63.7459 70.8806 63.7475 70.7536V69.1551C61.2617 68.7299 59.3708 66.6871 59.3708 64.2371C59.3662 64.1083 59.3876 63.9798 59.4337 63.8595C59.4799 63.7391 59.5498 63.6292 59.6393 63.5365C59.7288 63.4437 59.8361 63.3699 59.9548 63.3195C60.0734 63.2691 60.201 63.2431 60.33 63.2431C60.4589 63.2431 60.5865 63.2691 60.7051 63.3195C60.8238 63.3699 60.9311 63.4437 61.0206 63.5365C61.1101 63.6292 61.18 63.7391 61.2262 63.8595C61.2723 63.9798 61.2937 64.1083 61.2891 64.2371C61.2891 65.6359 62.3289 66.8183 63.7475 67.1938V61.0723C61.2617 60.647 59.3708 58.6044 59.3708 56.1542C59.3708 53.7041 61.2617 51.6601 63.7475 51.2361V49.6365C63.7507 49.3843 63.8531 49.1434 64.0326 48.9662C64.2121 48.789 64.4542 48.6896 64.7064 48.6896C64.9587 48.6896 65.2008 48.789 65.3802 48.9662C65.5597 49.1434 65.6622 49.3843 65.6653 49.6365V51.2361C68.1511 51.6607 70.0422 53.7041 70.0422 56.1542C70.0471 56.2832 70.0259 56.4119 69.9799 56.5325C69.9339 56.6531 69.864 56.7632 69.7745 56.8562C69.6849 56.9492 69.5775 57.0231 69.4587 57.0737C69.34 57.1242 69.2122 57.1502 69.0831 57.1502C68.954 57.1502 68.8262 57.1242 68.7074 57.0737C68.5887 57.0231 68.4813 56.9492 68.3917 56.8562C68.3022 56.7632 68.2323 56.6531 68.1863 56.5325C68.1403 56.4119 68.1191 56.2832 68.124 56.1542V56.1541ZM61.2891 56.1541C61.2891 54.7545 62.3289 53.5721 63.7475 53.1974V59.1107C62.3289 58.7352 61.2891 57.5529 61.2891 56.1541ZM68.124 64.237C68.124 62.8374 67.0843 61.655 65.6653 61.2803V67.1936C67.0843 66.8181 68.124 65.6358 68.124 64.237ZM21.8862 19.9007C21.886 19.7747 21.9108 19.6499 21.9589 19.5334C22.007 19.417 22.0777 19.3111 22.1667 19.222C22.2558 19.1329 22.3616 19.0622 22.478 19.0139C22.5944 18.9657 22.7192 18.9409 22.8452 18.9409H54.9536C55.2025 18.9492 55.4384 19.0539 55.6115 19.2329C55.7846 19.4119 55.8814 19.6511 55.8814 19.9001C55.8814 20.1491 55.7846 20.3884 55.6115 20.5674C55.4384 20.7464 55.2025 20.8511 54.9536 20.8594H22.8452C22.5907 20.8592 22.3468 20.758 22.167 20.578C21.9872 20.398 21.8862 20.154 21.8862 19.8996V19.9007ZM55.9127 28.9631C55.9127 29.0892 55.8879 29.214 55.8397 29.3304C55.7915 29.4469 55.7208 29.5527 55.6316 29.6418C55.5425 29.7309 55.4367 29.8016 55.3203 29.8498C55.2038 29.8981 55.079 29.9229 54.953 29.9229H22.8452C22.5963 29.9146 22.3604 29.8099 22.1873 29.6309C22.0142 29.4519 21.9174 29.2127 21.9174 28.9637C21.9174 28.7147 22.0142 28.4754 22.1873 28.2964C22.3604 28.1174 22.5963 28.0127 22.8452 28.0044H54.9536C55.0796 28.0044 55.2044 28.0293 55.3209 28.0775C55.4373 28.1257 55.5431 28.1964 55.6322 28.2855C55.7214 28.3747 55.7921 28.4805 55.8403 28.5969C55.8885 28.7134 55.9134 28.8382 55.9134 28.9642L55.9127 28.9631ZM24.5546 38.3649H3.45516C3.32926 38.3648 3.20458 38.3896 3.08825 38.4377C2.97192 38.4859 2.86622 38.5565 2.77716 38.6455C2.68811 38.7345 2.61746 38.8401 2.56925 38.9564C2.52103 39.0727 2.49619 39.1974 2.49615 39.3233V47.5245C2.49615 47.779 2.59717 48.023 2.77699 48.2029C2.95682 48.3829 3.20074 48.4841 3.45516 48.4843H24.5548C24.8092 48.4841 25.0531 48.3829 25.2329 48.2029C25.4128 48.023 25.5138 47.779 25.5138 47.5245V39.3233C25.5137 39.1974 25.4889 39.0727 25.4407 38.9564C25.3925 38.8401 25.3218 38.7345 25.2328 38.6455C25.1437 38.5565 25.038 38.4859 24.9217 38.4377C24.8053 38.3896 24.6805 38.3648 24.5546 38.3649ZM23.5948 46.5654V40.2824H4.41431V46.5654H23.5948ZM7.94808 67.0573H3.45516C3.20074 67.0575 2.95682 67.1587 2.77699 67.3387C2.59717 67.5186 2.49615 67.7626 2.49615 68.0171V72.5112C2.49652 72.7654 2.59769 73.009 2.77748 73.1887C2.95726 73.3684 3.20098 73.4694 3.45516 73.4696H7.94808C8.20239 73.4696 8.4463 73.3687 8.62625 73.189C8.8062 73.0093 8.90748 72.7655 8.90784 72.5112V68.0171C8.90784 67.7625 8.80673 67.5184 8.62673 67.3384C8.44674 67.1584 8.20262 67.0573 7.94808 67.0573ZM6.98923 71.5514V68.9768H4.41462V71.5514H6.98923ZM7.94808 50.4518H3.45516C3.20074 50.452 2.95682 50.5532 2.77699 50.7332C2.59717 50.9132 2.49615 51.1572 2.49615 51.4116V55.9045C2.49615 56.1589 2.59717 56.4029 2.77699 56.5829C2.95682 56.7629 3.20074 56.8641 3.45516 56.8643H7.94808C8.20262 56.8643 8.44674 56.7632 8.62673 56.5832C8.80673 56.4032 8.90784 56.1591 8.90784 55.9045V51.4102C8.90784 51.2842 8.88302 51.1594 8.83479 51.0429C8.78655 50.9265 8.71586 50.8207 8.62673 50.7316C8.53761 50.6424 8.43181 50.5717 8.31536 50.5235C8.19892 50.4753 8.07412 50.4505 7.94808 50.4505V50.4518ZM6.98923 54.9446V52.37H4.41462V54.9446H6.98923ZM7.94808 58.755H3.45516C3.20074 58.7552 2.95682 58.8564 2.77699 59.0364C2.59717 59.2164 2.49615 59.4604 2.49615 59.7148V64.2076C2.49603 64.3336 2.52075 64.4584 2.56889 64.5748C2.61704 64.6913 2.68766 64.7971 2.77672 64.8862C2.86579 64.9753 2.97155 65.0461 3.08796 65.0943C3.20437 65.1425 3.32915 65.1673 3.45516 65.1673H7.94808C8.07415 65.1674 8.19901 65.1427 8.31551 65.0945C8.432 65.0463 8.53786 64.9756 8.627 64.8865C8.71615 64.7973 8.78684 64.6915 8.83503 64.575C8.88322 64.4585 8.90796 64.3336 8.90784 64.2076V59.7134C8.90784 59.4589 8.80673 59.2147 8.62673 59.0348C8.44674 58.8548 8.20262 58.7536 7.94808 58.7536V58.755ZM6.98923 63.2492V60.6718H4.41462V63.2478L6.98923 63.2492ZM16.2517 67.0587H11.7582C11.5038 67.0589 11.26 67.1602 11.0802 67.3402C10.9005 67.5201 10.7995 67.7641 10.7995 68.0184V72.5126C10.7999 72.7667 10.901 73.0103 11.0807 73.19C11.2604 73.3696 11.5041 73.4707 11.7582 73.471H16.2514C16.5056 73.4707 16.7493 73.3697 16.929 73.19C17.1088 73.0104 17.2099 72.7667 17.2103 72.5126V68.0184C17.2103 67.764 17.1093 67.5201 16.9295 67.3401C16.7497 67.1601 16.5058 67.0589 16.2514 67.0587H16.2517ZM15.292 71.5528V68.9782H12.7174V71.5528H15.292ZM16.2517 50.4532H11.7582C11.6322 50.4532 11.5075 50.478 11.3911 50.5263C11.2747 50.5745 11.169 50.6452 11.0799 50.7344C10.9909 50.8235 10.9203 50.9293 10.8722 51.0458C10.824 51.1622 10.7994 51.287 10.7995 51.413V55.9059C10.7994 56.0319 10.824 56.1567 10.8722 56.2731C10.9203 56.3895 10.9909 56.4953 11.0799 56.5845C11.169 56.6736 11.2747 56.7443 11.3911 56.7926C11.5075 56.8408 11.6322 56.8657 11.7582 56.8657H16.2514C16.3774 56.8657 16.5022 56.8409 16.6186 56.7926C16.735 56.7444 16.8407 56.6737 16.9298 56.5845C17.0189 56.4954 17.0895 56.3896 17.1376 56.2731C17.1857 56.1567 17.2104 56.0319 17.2103 55.9059V51.4102C17.2104 51.2842 17.1857 51.1594 17.1376 51.043C17.0895 50.9265 17.0189 50.8207 16.9298 50.7316C16.8407 50.6424 16.735 50.5717 16.6186 50.5235C16.5022 50.4753 16.3774 50.4504 16.2514 50.4505L16.2517 50.4532ZM15.292 54.946V52.3714H12.7174V54.946H15.292ZM16.2517 58.7564H11.7582C11.5038 58.7567 11.26 58.8579 11.0802 59.0379C10.9005 59.2178 10.7995 59.4618 10.7995 59.7162V64.2089C10.7993 64.3349 10.824 64.4597 10.8721 64.5762C10.9202 64.6926 10.9908 64.7984 11.0799 64.8876C11.1689 64.9767 11.2747 65.0474 11.391 65.0957C11.5074 65.1439 11.6322 65.1687 11.7582 65.1687H16.2514C16.3774 65.1687 16.5022 65.1439 16.6186 65.0957C16.735 65.0474 16.8407 64.9767 16.9298 64.8876C17.0189 64.7984 17.0895 64.6926 17.1376 64.5762C17.1857 64.4597 17.2104 64.3349 17.2103 64.2089V59.7134C17.2103 59.459 17.1093 59.215 16.9295 59.0351C16.7497 58.8551 16.5058 58.7539 16.2514 58.7536L16.2517 58.7564ZM15.292 63.2505V60.6718H12.7174V63.2478L15.292 63.2505ZM24.5545 50.4537H20.0615C19.807 50.4537 19.5629 50.5548 19.3829 50.7348C19.2029 50.9148 19.1018 51.1589 19.1018 51.4134V55.9063C19.1018 56.1609 19.2029 56.405 19.3829 56.585C19.5629 56.765 19.807 56.8661 20.0615 56.8661H24.5546C24.809 56.8659 25.053 56.7647 25.2328 56.5847C25.4126 56.4048 25.5136 56.1608 25.5136 55.9063V51.4102C25.5136 51.1558 25.4126 50.9118 25.2328 50.7318C25.053 50.5519 24.809 50.4507 24.5546 50.4505L24.5545 50.4537ZM23.5947 54.9464V52.3718H21.0201V54.9464H23.5947ZM24.5545 67.0599H20.0615C19.807 67.0599 19.5629 67.161 19.3829 67.341C19.2029 67.521 19.1018 67.7651 19.1018 68.0197V72.5138C19.1021 72.7681 19.2034 73.0119 19.3834 73.1916C19.5633 73.3713 19.8072 73.4722 20.0615 73.4722H24.5546C24.8088 73.472 25.0525 73.371 25.2323 73.1913C25.4121 73.0116 25.5133 72.768 25.5136 72.5138V68.0197C25.5136 67.7652 25.4126 67.5212 25.2328 67.3413C25.053 67.1613 24.809 67.0601 24.5546 67.0599H24.5545ZM23.5947 71.554V68.9794H21.0201V71.554H23.5947ZM24.5545 58.7572H20.0615C19.807 58.7572 19.5629 58.8583 19.3829 59.0383C19.2029 59.2183 19.1018 59.4624 19.1018 59.7169V64.2097C19.1017 64.3358 19.1264 64.4606 19.1746 64.5771C19.2228 64.6936 19.2935 64.7995 19.3826 64.8886C19.4718 64.9778 19.5776 65.0485 19.6941 65.0966C19.8106 65.1448 19.9355 65.1696 20.0615 65.1695H24.5546C24.6806 65.1695 24.8054 65.1447 24.9218 65.0964C25.0382 65.0482 25.144 64.9775 25.233 64.8883C25.3221 64.7992 25.3927 64.6934 25.4409 64.5769C25.489 64.4605 25.5137 64.3357 25.5136 64.2097V59.7134C25.5136 59.459 25.4126 59.215 25.2328 59.035C25.053 58.8551 24.809 58.7538 24.5546 58.7536L24.5545 58.7572ZM23.5947 63.2513V60.6718H21.0201V63.2478L23.5947 63.2513Z" fill="url(#paint0_linear_5_2363)"/>
</g>
<defs>
<linearGradient id="paint0_linear_5_2363" x1="39" y1="2.03516" x2="39" y2="75.9651" gradientUnits="userSpaceOnUse">
<stop stop-color="#F96B26"/>
<stop offset="1" stop-color="#F9B740"/>
</linearGradient>
<clipPath id="clip0_5_2363">
<rect width="78" height="78" fill="white"/>
</clipPath>
</defs>
</svg>
